<svg width="85" height="68" viewBox="0 0 85 68" fill="none" xmlns="http://www.w3.org/2000/svg">
<path opacity="0.24" d="M51.1163 59.6438C56.8931 58.9218 62.7852 58.7706 68.3848 57.1685C71.2584 56.3464 74.013 55.1537 76.5794 53.6205C78.1482 52.6839 79.6676 51.5948 80.7474 50.1206C83.6612 46.1325 82.6048 40.4612 80.349 36.0675C78.0933 31.6737 74.7866 27.8012 73.2177 23.1187C71.7546 18.7497 71.6791 13.5129 68.2309 10.4669C66.875 9.2677 65.1509 8.5801 63.4391 7.99152C60.4855 6.97525 57.3725 6.18039 54.265 6.49806C50.3704 6.89687 46.8878 8.98579 43.2404 10.4091C39.6562 11.8036 35.8509 12.5737 32.2557 13.9489C28.6605 15.3241 25.1532 17.4267 23.1887 20.7354C20.9453 24.5049 21.0401 29.1874 21.4825 33.5523C21.9248 37.9171 22.6378 42.4099 21.4248 46.6262C20.4247 50.0986 18.1689 53.1556 17.504 56.7078C16.7155 60.9214 18.647 64.4088 22.5087 66.2571C27.1054 68.4574 32.1458 67.5773 35.8715 64.7815C40.2387 61.4989 45.786 60.308 51.1163 59.6438Z" fill="#696969"/>
<path opacity="0.24" d="M10.4665 34.84C4.83498 36.3631 3.94468 36.0133 2.81426 31.8337C1.68385 27.6541 0.741368 21.2273 6.37288 19.7042C12.0044 18.1811 13.9181 22.3148 15.0485 26.4945C16.1789 30.6741 16.098 33.3169 10.4665 34.84Z" fill="#696969"/>
<path opacity="0.24" d="M84.1747 25.8204C84.1747 27.6434 83.9347 27.8835 82.1116 27.8835C80.2885 27.8835 77.5728 27.6434 77.5728 25.8204C77.5728 23.9973 79.4633 23.7573 81.2863 23.7573C83.1094 23.7573 84.1747 23.9973 84.1747 25.8204Z" fill="#696969"/>
<path opacity="0.24" d="M33.8349 2.30096C33.8349 4.12404 33.5948 4.36407 31.7717 4.36407C29.9487 4.36407 27.2329 4.12404 27.2329 2.30096C27.2329 0.477885 29.1234 0.237854 30.9465 0.237854C32.7696 0.237854 33.8349 0.477885 33.8349 2.30096Z" fill="#696969"/>
<g clip-path="url(#clip0)">
<path d="M70.4336 18.6445H22.6914C21.0604 18.6445 19.7383 19.9667 19.7383 21.5977V53.5898C19.7383 55.2208 21.0604 56.543 22.6914 56.543H70.4336C72.0646 56.543 73.3867 55.2208 73.3867 53.5898V21.5977C73.3867 19.9667 72.0646 18.6445 70.4336 18.6445Z" fill="#ED9595"/>
<path d="M19.7383 26.5195H73.3867V33.9023H19.7383V26.5195Z" fill="#816A6A"/>
<path d="M41.6406 37.4707H24.9063C24.2267 37.4707 23.6758 38.0216 23.6758 38.7012V41.6543C23.6758 42.3339 24.2267 42.8848 24.9063 42.8848H41.6406C42.3202 42.8848 42.8711 42.3339 42.8711 41.6543V38.7012C42.8711 38.0216 42.3202 37.4707 41.6406 37.4707Z" fill="#F7D1D1"/>
<path d="M32.7812 48.668H25.0293C24.703 48.668 24.39 48.5383 24.1592 48.3076C23.9285 48.0768 23.7988 47.7638 23.7988 47.4375C23.7988 47.1112 23.9285 46.7982 24.1592 46.5674C24.39 46.3367 24.703 46.207 25.0293 46.207H32.7812C33.1076 46.207 33.4206 46.3367 33.6513 46.5674C33.8821 46.7982 34.0117 47.1112 34.0117 47.4375C34.0117 47.7638 33.8821 48.0768 33.6513 48.3076C33.4206 48.5383 33.1076 48.668 32.7812 48.668Z" fill="#F2B3B3"/>
</g>
<defs>
<clipPath id="clip0">
<rect width="53" height="53" fill="white" transform="translate(20 10)"/>
</clipPath>
</defs>
</svg>
