<svg width="120" height="77" viewBox="0 0 120 77" fill="none" xmlns="http://www.w3.org/2000/svg">
<g clip-path="url(#clip0)">
<path opacity="0.1" d="M64.2403 68.7717C70.2657 68.015 76.4114 67.8565 82.252 66.1775C85.2493 65.3159 88.1224 64.066 90.7992 62.4591C92.4356 61.4777 94.0204 60.3362 95.1467 58.7912C98.1859 54.6117 97.084 48.6681 94.7311 44.0634C92.3783 39.4587 88.9293 35.4002 87.2929 30.4929C85.7669 25.9141 85.6881 20.4259 82.0915 17.2336C80.6772 15.9769 78.8789 15.2563 77.0935 14.6394C74.0127 13.5744 70.7658 12.7414 67.5246 13.0743C63.4623 13.4922 59.8298 15.6814 56.0255 17.1731C52.287 18.6345 48.3179 19.4416 44.568 20.8828C40.8181 22.324 37.1598 24.5277 35.1108 27.9952C32.7709 31.9456 32.8697 36.853 33.3311 41.4274C33.7925 46.0018 34.5362 50.7103 33.2709 55.1291C32.2278 58.7682 29.8749 61.972 29.1814 65.6947C28.3589 70.1106 30.3736 73.7655 34.4015 75.7025C39.196 78.0085 44.4533 77.0861 48.3394 74.1561C52.8946 70.7159 58.6807 69.4678 64.2403 68.7717Z" fill="#696969"/>
<path opacity="0.1" d="M14.5768 47.2061C6.82784 49.3019 5.60279 48.8206 4.04732 43.0694C2.49186 37.3182 1.195 28.4749 8.944 26.3791C16.693 24.2833 19.3263 29.9713 20.8817 35.7226C22.4372 41.4738 22.3258 45.1103 14.5768 47.2061Z" fill="#696969"/>
<g opacity="0.1" filter="url(#filter0_d)">
<path opacity="0.1" d="M116 35C116 37.651 115.673 38 113.188 38C110.702 38 107 37.651 107 35C107 32.349 109.577 32 112.062 32C114.548 32 116 32.349 116 35Z" fill="#696969"/>
</g>
<path opacity="0.24" d="M47 2.5C47 4.70914 46.6728 5 44.1875 5C41.7022 5 38 4.70914 38 2.5C38 0.290861 40.5772 0 43.0625 0C45.5478 0 47 0.290861 47 2.5Z" fill="#696969"/>
<path d="M60.2063 58.3044C60.953 58.9365 62.047 58.9365 62.7937 58.3044L82.1949 43.7293L82.9125 41.1517C82.8135 40.9205 82.6648 40.7251 82.4657 40.5616L62.5078 24.1723C61.9221 23.6913 61.0779 23.6913 60.4921 24.1723L40.5342 40.5616C40.3358 40.7245 40.1866 40.9214 40.0875 41.1516L40.805 43.7101L60.2063 58.3044Z" fill="#FFC250"/>
<path d="M75 26H48C45.7909 26 44 27.7909 44 30V57C44 59.2091 45.7909 61 48 61H75C77.2091 61 79 59.2091 79 57V30C79 27.7909 77.2091 26 75 26Z" fill="#F4FBFF"/>
<path d="M70.8333 26V49.4681L57 62.6255L57.8042 63.3904C58.5731 64.2032 59.6998 64.2032 60.4687 63.3904L77 47.6667V27.3993C77 26.5422 76.1866 26 75.3295 26H70.8333Z" fill="#E4F6FF"/>
<path d="M76.4784 62.8946C77.3555 62.8946 78.0665 62.1835 78.0665 61.3064V44.8429L62.7937 56.4762C62.047 57.1082 60.953 57.1082 60.2063 56.4762L40.0875 41.1516C40.0004 41.3501 39.954 41.5666 39.954 41.7887V61.8779L41.0515 62.8946H76.4784Z" fill="#FFDA2D"/>
<path d="M82.9126 41.1518L77.0579 45.6114V60.2901C77.0579 61.1672 76.3469 61.8782 75.4698 61.8782H39.954V64.4119C39.954 65.289 40.6649 66 41.5421 66H81.458C82.3351 66 83.0461 65.289 83.0461 64.4119V41.789C83.046 41.5669 82.9995 41.3504 82.9126 41.1518Z" fill="#FFDA2D"/>
<path d="M74.4719 42.1043C74.9194 38.5885 74.2569 36.3689 73.0619 35.365L73.0625 35.3644C71.1338 33.65 64.62 33.3963 62.3125 35.4414C61.2763 36.4418 60.9113 37.9101 60.8713 39.7278C60.8313 41.546 60.7838 44.9521 64.1844 45.8761H64.1875L64.1844 47.2872C64.1844 47.2872 64.1613 47.8588 64.5525 47.9738C65 48.1091 65.2025 47.8437 66.5944 46.292C68.9219 46.4804 70.7094 46.0488 70.9125 45.9858C71.3825 45.8388 74.0419 45.5103 74.4719 42.1043ZM66.8238 45.2992C66.8238 45.2992 65.3507 47.0136 64.8925 47.4587C64.7425 47.6033 64.5782 47.5899 64.5807 47.3029C64.5807 47.1145 64.5919 44.9603 64.5919 44.9603C61.7088 44.1891 61.8788 41.2888 61.91 39.7715C61.9413 38.2537 62.2388 37.0106 63.1163 36.1735C65.1407 34.4019 70.8513 34.798 72.3063 36.0743C74.0851 37.5461 73.4519 41.7041 73.4557 41.8458C73.09 44.689 70.935 44.8693 70.5388 44.9923C70.3694 45.0448 68.7975 45.4223 66.8238 45.2992Z" fill="#8E24AA"/>
<path d="M67.6387 36.5066C67.3981 36.5066 67.3981 36.8566 67.6387 36.8595C69.5056 36.8729 71.0431 38.0874 71.06 40.3152C71.06 40.5503 71.4287 40.5473 71.4256 40.3123H71.425C71.405 37.9118 69.7262 36.52 67.6387 36.5066Z" fill="#8E24AA"/>
<path d="M70.0945 39.9459C70.0888 40.1781 70.457 40.1892 70.4601 39.9541C70.4907 38.6305 69.6163 37.5403 67.9732 37.4254C67.7326 37.409 67.7076 37.7619 67.9476 37.7783C69.3726 37.8792 70.1232 38.7869 70.0945 39.9459Z" fill="#8E24AA"/>
<path d="M69.7008 41.4515C69.392 41.2847 69.0776 41.3885 68.9476 41.5525L68.6758 41.8809C68.5376 42.0477 68.2795 42.0255 68.2795 42.0255C66.3958 41.5606 65.892 39.7208 65.892 39.7208C65.892 39.7208 65.8689 39.4717 66.0414 39.3381L66.3814 39.0756C66.5514 38.9496 66.6589 38.6463 66.4858 38.3482C66.0233 37.5683 65.7126 37.2994 65.5545 37.0929C65.3883 36.8986 65.1383 36.8549 64.8783 36.9861H64.8726C64.332 37.2813 63.7401 37.8337 63.9295 38.4025C64.2526 39.0021 64.8464 40.9137 66.7389 42.358C67.6283 43.0411 69.0358 43.7411 69.6333 43.9027L69.6389 43.9109C70.2276 44.094 70.8001 43.52 71.1058 43.0003V42.9962C71.2414 42.7448 71.1964 42.5068 70.9983 42.351C70.647 42.0314 70.117 41.6785 69.7008 41.4515Z" fill="#8E24AA"/>
<path d="M68.2307 38.7273C68.8313 38.76 69.1226 39.0528 69.1538 39.6542C69.1651 39.8893 69.5307 39.873 69.5195 39.6379C69.4795 38.8527 69.0407 38.4152 68.2507 38.3744C68.0101 38.361 67.9876 38.7139 68.2307 38.7273Z" fill="#8E24AA"/>
<path d="M72.002 53H71.998C67.587 53 64 56.588 64 61C64 62.75 64.564 64.372 65.523 65.689L64.526 68.661L67.601 67.678C68.866 68.516 70.375 69 72.002 69C76.413 69 80 65.411 80 61C80 56.589 76.413 53 72.002 53Z" fill="#4CAF50"/>
<path d="M76.6569 64.297C76.4639 64.842 75.6979 65.294 75.0869 65.426C74.6689 65.515 74.1229 65.586 72.2849 64.824C69.9339 63.85 68.4199 61.461 68.3019 61.306C68.1889 61.151 67.3519 60.041 67.3519 58.893C67.3519 57.745 67.9349 57.186 68.1699 56.946C68.3629 56.749 68.6819 56.659 68.9879 56.659C69.0869 56.659 69.1759 56.664 69.2559 56.668C69.4909 56.678 69.6089 56.692 69.7639 57.063C69.9569 57.528 70.4269 58.676 70.4829 58.794C70.5399 58.912 70.5969 59.072 70.5169 59.227C70.4419 59.387 70.3759 59.458 70.2579 59.594C70.1399 59.73 70.0279 59.834 69.9099 59.98C69.8019 60.107 69.6799 60.243 69.8159 60.478C69.9519 60.708 70.4219 61.475 71.1139 62.091C72.0069 62.886 72.7309 63.14 72.9899 63.248C73.1829 63.328 73.4129 63.309 73.5539 63.159C73.7329 62.966 73.9539 62.646 74.1789 62.331C74.3389 62.105 74.5409 62.077 74.7529 62.157C74.9689 62.232 76.1119 62.797 76.3469 62.914C76.5819 63.032 76.7369 63.088 76.7939 63.187C76.8499 63.286 76.8499 63.751 76.6569 64.297Z" fill="#FAFAFA"/>
<path d="M50.5 56C54.0899 56 57 53.0899 57 49.5C57 45.9101 54.0899 43 50.5 43C46.9101 43 44 45.9101 44 49.5C44 53.0899 46.9101 56 50.5 56Z" fill="#039BE5"/>
<path d="M46.9743 49.3592L53.2414 46.9428C53.5323 46.8377 53.7863 47.0137 53.6921 47.4536L53.6926 47.453L52.6255 52.4802C52.5464 52.8367 52.3346 52.9233 52.0384 52.7554L50.4134 51.5578L49.6296 52.3129C49.5429 52.3995 49.4698 52.4727 49.3019 52.4727L49.4172 50.8189L52.4289 48.0982C52.56 47.9828 52.3996 47.9178 52.2269 48.0326L48.5051 50.3759L46.9006 49.8754C46.5524 49.7649 46.5448 49.5271 46.9743 49.3592Z" fill="white"/>
</g>
<defs>
<filter id="filter0_d" x="103" y="32" width="17" height="14" filterUnits="userSpaceOnUse" color-interpolation-filters="sRGB">
<feFlood flood-opacity="0" result="BackgroundImageFix"/>
<feColorMatrix in="SourceAlpha" type="matrix" values="0 0 0 0 0 0 0 0 0 0 0 0 0 0 0 0 0 0 127 0"/>
<feOffset dy="4"/>
<feGaussianBlur stdDeviation="2"/>
<feColorMatrix type="matrix" values="0 0 0 0 0 0 0 0 0 0 0 0 0 0 0 0 0 0 0.25 0"/>
<feBlend mode="normal" in2="BackgroundImageFix" result="effect1_dropShadow"/>
<feBlend mode="normal" in="SourceGraphic" in2="effect1_dropShadow" result="shape"/>
</filter>
<clipPath id="clip0">
<rect width="120" height="77" fill="white"/>
</clipPath>
</defs>
</svg>
