<svg width="85" height="68" viewBox="0 0 85 68" fill="none" xmlns="http://www.w3.org/2000/svg">
<path opacity="0.24" d="M51.1163 59.6438C56.8931 58.9218 62.7852 58.7706 68.3848 57.1685C71.2584 56.3464 74.013 55.1537 76.5794 53.6205C78.1482 52.6839 79.6676 51.5948 80.7474 50.1206C83.6612 46.1325 82.6048 40.4612 80.349 36.0675C78.0933 31.6737 74.7866 27.8012 73.2177 23.1187C71.7546 18.7497 71.6791 13.5129 68.2309 10.4669C66.875 9.2677 65.1509 8.5801 63.4391 7.99152C60.4855 6.97525 57.3725 6.18039 54.265 6.49806C50.3704 6.89687 46.8878 8.98579 43.2404 10.4091C39.6562 11.8036 35.8509 12.5737 32.2557 13.9489C28.6605 15.3241 25.1532 17.4267 23.1887 20.7354C20.9453 24.5049 21.0401 29.1874 21.4825 33.5523C21.9248 37.9171 22.6378 42.4099 21.4248 46.6262C20.4247 50.0986 18.1689 53.1556 17.504 56.7078C16.7155 60.9214 18.647 64.4088 22.5087 66.2571C27.1054 68.4574 32.1458 67.5773 35.8715 64.7815C40.2387 61.4989 45.786 60.308 51.1163 59.6438Z" fill="#696969"/>
<path opacity="0.24" d="M10.4665 34.84C4.83495 36.3631 3.94465 36.0133 2.81423 31.8337C1.68382 27.6541 0.741342 21.2273 6.37285 19.7042C12.0044 18.1811 13.9181 22.3148 15.0485 26.4945C16.1789 30.6741 16.098 33.3169 10.4665 34.84Z" fill="#696969"/>
<path opacity="0.24" d="M84.1747 25.8204C84.1747 27.6434 83.9347 27.8835 82.1116 27.8835C80.2885 27.8835 77.5728 27.6434 77.5728 25.8204C77.5728 23.9973 79.4633 23.7573 81.2863 23.7573C83.1094 23.7573 84.1747 23.9973 84.1747 25.8204Z" fill="#696969"/>
<path opacity="0.24" d="M33.8349 2.30096C33.8349 4.12404 33.5948 4.36407 31.7717 4.36407C29.9487 4.36407 27.2329 4.12404 27.2329 2.30096C27.2329 0.477885 29.1234 0.237854 30.9465 0.237854C32.7696 0.237854 33.8349 0.477885 33.8349 2.30096Z" fill="#696969"/>
<path d="M71.6473 30.413H23.3526C22.0532 30.413 21 31.4663 21 32.7655V50.9198C21 52.219 22.0532 53.2723 23.3526 53.2723H71.6473C72.9467 53.2723 73.9999 52.2191 73.9999 50.9198V32.7655C73.9999 31.4663 72.9467 30.413 71.6473 30.413Z" fill="#E63950"/>
<path d="M69.2946 33.2471H25.7052C24.6391 33.2471 23.7749 34.1113 23.7749 35.1775V48.5078C23.7749 49.5739 24.6391 50.4381 25.7052 50.4381H69.2945C70.3607 50.4381 71.2249 49.5739 71.2249 48.5078V35.1775C71.225 34.1113 70.3608 33.2471 69.2946 33.2471Z" fill="#FDBF00"/>
<path d="M46.2012 50.4384H31.978L27.3357 45.7962C27.0083 45.5954 26.8494 45.2815 26.8494 44.8735C26.8494 44.5784 26.9622 44.3291 27.121 44.1467L27.8565 43.2039L25.9752 41.2731C25.5746 41.1031 25.4863 40.6902 25.4863 40.1717C25.4863 39.5813 25.9045 39.0255 26.6313 39.0255C26.6995 39.0255 26.8136 39.0255 26.9724 39.0937L29.4614 39.8664L29.3473 37.4456C29.3709 36.6953 29.8349 36.4594 30.4699 36.4594C30.9474 36.4594 31.374 36.5464 31.5662 36.9595L33.8605 39.1744C33.8605 39.1744 34.2192 39.0255 34.332 39.0255C34.7413 39.0255 35.0737 39.1758 35.2796 39.5169L39.014 43.2513L46.2012 50.4384Z" fill="#FDBF00"/>
<path d="M57.5693 50.4384H43.3461L38.7039 45.7961C38.3764 45.5952 38.2175 45.2814 38.2175 44.8734C38.2175 44.5782 38.3304 44.3289 38.4892 44.1465L39.2246 43.2038L37.3433 41.2729C36.9427 41.103 36.8545 40.69 36.8545 40.1716C36.8545 39.5812 37.2727 39.0254 37.9994 39.0254C38.0676 39.0254 38.1817 39.0254 38.3405 39.0936L40.8295 39.8662L40.7154 37.4455C40.739 36.6952 41.203 36.3553 41.838 36.3553C42.3156 36.3553 42.7409 36.5464 42.9344 36.9593L45.1247 39.0702L45.3591 38.9895C45.4732 38.9449 45.5873 38.9214 45.7002 38.9214C46.1094 38.9214 46.4419 39.1757 46.6477 39.5167L57.5693 50.4384Z" fill="#FDBF00"/>
<path d="M68.9363 50.4384H54.7144L50.0721 45.7961C49.7446 45.5952 49.4805 45.2814 49.4805 44.8734C49.4805 44.5783 49.5946 44.329 49.7534 44.1466L50.3822 43.2511L50.4888 43.0998L48.7103 41.2729C48.3109 41.103 48.1174 40.6901 48.1174 40.1716C48.1174 39.5812 48.6408 38.9214 49.3676 38.9214C49.4358 38.9214 49.5486 38.9214 49.7087 38.9896L52.0937 39.7622L51.9796 37.4454C52.0032 36.6951 52.5699 36.3553 53.2061 36.3553C53.6837 36.3553 54.109 36.5463 54.3025 36.9593L56.4928 39.0701L56.7271 38.9895C56.8412 38.9448 56.9541 38.9213 57.0682 38.9213C57.4774 38.9213 57.8086 39.1756 58.0157 39.5167L61.7501 43.2511L68.9363 50.4384Z" fill="#FDBF00"/>
<path d="M71.2246 41.3573V48.5073C71.2246 49.574 70.3602 50.4384 69.2948 50.4384H66.0813L61.439 45.7961C61.1128 45.5952 60.8487 45.2814 60.8487 44.8734C60.8487 44.5783 60.9628 44.329 61.1216 44.1466L61.7504 43.2511L61.8571 43.0998L60.0786 41.2729C59.6792 41.103 59.4858 40.6901 59.4858 40.1716C59.4858 39.5812 60.0092 38.9214 60.736 38.9214C60.8042 38.9214 60.917 38.9214 61.0758 38.9896L63.4621 39.7622L63.348 37.4454C63.3703 36.6951 63.9383 36.3553 64.5746 36.3553C65.0521 36.3553 65.4774 36.5463 65.6709 36.9593L67.8599 39.0701L68.0956 38.9895C68.2097 38.9448 68.3226 38.9213 68.4367 38.9213C68.8459 38.9213 69.1771 39.1756 69.3842 39.5167L71.2246 41.3573Z" fill="#FDBF00"/>
<path d="M34.0144 44.1696C34.128 44.3058 34.1961 44.5785 34.1961 44.8283C34.1961 45.5553 33.4691 46.055 32.8104 46.055C32.5606 46.055 32.1971 46.0096 31.9472 45.6234L30.4706 43.3517L28.9713 45.6461C28.7669 45.9869 28.4943 46.055 28.1762 46.055C27.6309 46.055 26.7451 45.6234 26.7451 44.8738C26.7451 44.5785 26.8587 44.3286 27.0177 44.1468L28.517 42.0114L26.1545 41.3299C25.632 41.2163 25.3821 40.762 25.3821 40.1714C25.3821 39.5807 25.9046 38.922 26.6315 38.922C26.6997 38.922 26.8133 38.922 26.9723 38.9901L29.3576 39.7625L29.2439 37.4454C29.2667 36.6959 29.8346 36.3551 30.4706 36.3551C31.1067 36.3551 31.6519 36.6959 31.6746 37.4454L31.5837 39.808L33.9917 38.9901C34.1052 38.9447 34.2188 38.922 34.3324 38.922C35.0367 38.922 35.5137 39.6717 35.5137 40.3304C35.5137 40.7848 35.2865 41.2163 34.7413 41.3299L32.4242 41.8751L34.0144 44.1696Z" fill="#EDF5FF"/>
<path d="M45.3823 44.1696C45.4959 44.3058 45.564 44.5785 45.564 44.8283C45.564 45.5553 44.8371 46.055 44.1783 46.055C43.9285 46.055 43.5651 46.0096 43.3151 45.6234L41.8385 43.3517L40.3392 45.6461C40.1348 45.9869 39.8622 46.055 39.5441 46.055C38.9989 46.055 38.113 45.6234 38.113 44.8738C38.113 44.5785 38.2266 44.3286 38.3856 44.1468L39.8849 42.0114L37.5224 41.3299C36.9999 41.2163 36.75 40.762 36.75 40.1714C36.75 39.5807 37.2725 38.922 37.9994 38.922C38.0676 38.922 38.1812 38.922 38.3402 38.9901L40.7255 39.7625L40.6118 37.4454C40.6346 36.6959 41.2025 36.3551 41.8385 36.3551C42.4746 36.3551 43.0198 36.6959 43.0425 37.4454L42.9516 39.808L45.3596 38.9901C45.4732 38.9447 45.5867 38.922 45.7003 38.922C46.4046 38.922 46.8816 39.6717 46.8816 40.3304C46.8816 40.7848 46.6544 41.2163 46.1093 41.3299L43.7921 41.8751L45.3823 44.1696Z" fill="#EDF5FF"/>
<path d="M56.7505 44.1696C56.8641 44.3058 56.9322 44.5785 56.9322 44.8283C56.9322 45.5553 56.2052 46.055 55.5465 46.055C55.2966 46.055 54.9332 46.0096 54.6833 45.6234L53.2067 43.3517L51.7074 45.6461C51.503 45.9869 51.2304 46.055 50.9123 46.055C50.367 46.055 49.4812 45.6234 49.4812 44.8738C49.4812 44.5785 49.5948 44.3286 49.7538 44.1468L51.2531 42.0114L48.8906 41.3299C48.3681 41.2163 48.1182 40.762 48.1182 40.1714C48.1182 39.5807 48.6407 38.922 49.3676 38.922C49.4358 38.922 49.5494 38.922 49.7084 38.9901L52.0937 39.7625L51.98 37.4454C52.0027 36.6959 52.5707 36.3551 53.2067 36.3551C53.8428 36.3551 54.388 36.6959 54.4107 37.4454L54.3198 39.808L56.7277 38.9901C56.8413 38.9447 56.9549 38.922 57.0685 38.922C57.7728 38.922 58.2498 39.6717 58.2498 40.3304C58.2498 40.7848 58.0226 41.2163 57.4774 41.3299L55.1603 41.8751L56.7505 44.1696Z" fill="#EDF5FF"/>
<path d="M68.1184 44.1696C68.232 44.3058 68.3001 44.5785 68.3001 44.8283C68.3001 45.5553 67.5731 46.055 66.9144 46.055C66.6646 46.055 66.3011 46.0096 66.0512 45.6234L64.5746 43.3517L63.0753 45.6461C62.8709 45.9869 62.5983 46.055 62.2802 46.055C61.7349 46.055 60.8491 45.6234 60.8491 44.8738C60.8491 44.5785 60.9627 44.3286 61.1217 44.1468L62.621 42.0114L60.2585 41.3299C59.736 41.2163 59.4861 40.762 59.4861 40.1714C59.4861 39.5807 60.0086 38.922 60.7355 38.922C60.8037 38.922 60.9173 38.922 61.0763 38.9901L63.4616 39.7625L63.3479 37.4454C63.3707 36.6959 63.9386 36.3551 64.5746 36.3551C65.2107 36.3551 65.7559 36.6959 65.7786 37.4454L65.6877 39.808L68.0957 38.9901C68.2093 38.9447 68.3228 38.922 68.4364 38.922C69.1407 38.922 69.6177 39.6717 69.6177 40.3304C69.6177 40.7848 69.3905 41.2163 68.8454 41.3299L66.5282 41.8751L68.1184 44.1696Z" fill="#EDF5FF"/>
<path d="M54.2259 18.2138H54.2004C53.4962 18.2138 52.8781 17.7635 52.6414 17.1003C51.8303 14.8265 49.643 13.2006 47.0874 13.2303C43.8875 13.2676 41.3343 15.9217 41.3343 19.1219V20.4552H38.0144V19.0516C38.0144 14.011 42.1153 9.91016 47.1564 9.91016C51.1376 9.91016 54.5327 12.4684 55.7838 16.0273C56.1595 17.0957 55.3584 18.2138 54.2259 18.2138Z" fill="#EDF5FF"/>
<path d="M54.6629 18.2138H54.2003C53.4961 18.2138 52.878 17.7635 52.6414 17.1003C51.8303 14.8265 49.6429 13.2006 47.0873 13.2303C43.8875 13.2676 41.3342 15.9217 41.3342 19.1218V20.4551H39.5728V19.291C39.5728 15.1097 42.9745 11.7075 47.1563 11.7075C50.9718 11.7075 54.1384 14.5409 54.6629 18.2138Z" fill="#B5DBFF"/>
<path d="M58.4484 17.3024C58.3045 16.9335 58.4868 16.518 58.8556 16.374L59.8964 15.968C60.2652 15.8242 60.6808 16.0065 60.8247 16.3753C60.9686 16.7441 60.7863 17.1597 60.4175 17.3036L59.3767 17.7096C59.0079 17.8536 58.5922 17.6712 58.4484 17.3024Z" fill="#FF637B"/>
<path d="M58.32 18.7886C58.5251 18.4499 58.9658 18.3416 59.3045 18.5465L60.2601 19.1251C60.5988 19.3301 60.7071 19.7708 60.5022 20.1095C60.2971 20.4482 59.8564 20.5565 59.5177 20.3516L58.5621 19.773C58.2234 19.568 58.115 19.1271 58.32 18.7886Z" fill="#FF637B"/>
<path d="M57.3477 16.2958C57.7279 16.4062 58.1256 16.1876 58.2359 15.8074L58.5475 14.7346C58.6579 14.3545 58.4392 13.9568 58.0589 13.8464C57.6788 13.7361 57.2811 13.9547 57.1707 14.335L56.8592 15.4077C56.7488 15.7878 56.9675 16.1855 57.3477 16.2958Z" fill="#FF637B"/>
<path d="M55.9299 37.2311H39.0715C37.7899 37.2311 36.751 36.1921 36.751 34.9105V22.0108C36.751 20.7291 37.79 19.6902 39.0715 19.6902H55.93C57.2116 19.6902 58.2505 20.7292 58.2505 22.0108V34.9105C58.2505 36.1921 57.2115 37.2311 55.9299 37.2311Z" fill="#FFDA2D"/>
<path d="M51.6209 26.8073C51.6209 24.5313 49.7757 22.6862 47.4998 22.6862C45.2238 22.6862 43.3787 24.5313 43.3787 26.8073C43.3787 28.4186 44.304 29.8129 45.6516 30.4906V32.387C45.6516 33.4077 46.4791 34.2352 47.4998 34.2352C48.5205 34.2352 49.3479 33.4077 49.3479 32.387V30.4906C50.6957 29.8129 51.6209 28.4186 51.6209 26.8073Z" fill="#FFDA2D"/>
<path d="M47.4999 33.1637C47.0716 33.1637 46.7231 32.8152 46.7231 32.3869V29.8299L46.133 29.5332C45.095 29.0113 44.4502 27.9668 44.4502 26.8071C44.4502 25.1255 45.8183 23.7574 47.4999 23.7574C49.1814 23.7574 50.5495 25.1256 50.5495 26.8071C50.5495 27.9667 49.9047 29.0113 48.8667 29.5332L48.2767 29.8299V32.3869C48.2767 32.8151 47.9281 33.1637 47.4999 33.1637Z" fill="#0B799D"/>
<path d="M36.75 31.3983V34.9104C36.75 36.192 37.789 37.231 39.0706 37.231H55.929C57.2107 37.231 58.2496 36.1919 58.2496 34.9104V31.3983H36.75Z" fill="#FFDA2D"/>
</svg>
