<svg width="85" height="68" viewBox="0 0 85 68" fill="none" xmlns="http://www.w3.org/2000/svg">
<path opacity="0.24" d="M51.1163 59.6438C56.8931 58.9218 62.7852 58.7706 68.3848 57.1685C71.2584 56.3464 74.013 55.1537 76.5794 53.6205C78.1482 52.6839 79.6676 51.5948 80.7474 50.1206C83.6612 46.1325 82.6048 40.4612 80.349 36.0675C78.0933 31.6737 74.7866 27.8012 73.2177 23.1187C71.7546 18.7497 71.6791 13.5129 68.2309 10.4669C66.875 9.2677 65.1509 8.5801 63.4391 7.99152C60.4855 6.97525 57.3725 6.18039 54.265 6.49806C50.3704 6.89687 46.8878 8.98579 43.2404 10.4091C39.6562 11.8036 35.8509 12.5737 32.2557 13.9489C28.6605 15.3241 25.1532 17.4267 23.1887 20.7354C20.9453 24.5049 21.0401 29.1874 21.4825 33.5523C21.9248 37.9171 22.6378 42.4099 21.4248 46.6262C20.4247 50.0986 18.1689 53.1556 17.504 56.7078C16.7155 60.9214 18.647 64.4088 22.5087 66.2571C27.1054 68.4574 32.1458 67.5773 35.8715 64.7815C40.2387 61.4989 45.786 60.308 51.1163 59.6438Z" fill="#696969"/>
<path opacity="0.24" d="M10.4666 34.84C4.8351 36.3631 3.94481 36.0133 2.81439 31.8337C1.68397 27.6541 0.741494 21.2273 6.373 19.7042C12.0045 18.1811 13.9182 22.3148 15.0486 26.4945C16.179 30.6741 16.0981 33.3169 10.4666 34.84Z" fill="#696969"/>
<path opacity="0.24" d="M84.1747 25.8204C84.1747 27.6434 83.9347 27.8835 82.1116 27.8835C80.2885 27.8835 77.5728 27.6434 77.5728 25.8204C77.5728 23.9973 79.4633 23.7573 81.2863 23.7573C83.1094 23.7573 84.1747 23.9973 84.1747 25.8204Z" fill="#696969"/>
<path opacity="0.24" d="M33.835 2.30096C33.835 4.12404 33.5949 4.36407 31.7719 4.36407C29.9488 4.36407 27.233 4.12404 27.233 2.30096C27.233 0.477885 29.1235 0.237854 30.9466 0.237854C32.7697 0.237854 33.835 0.477885 33.835 2.30096Z" fill="#696969"/>
<g clip-path="url(#clip0)">
<path d="M18.7691 20.5631L59.5152 9.66925C60.7819 9.33144 62.133 10.0914 62.4708 11.3582L70.5356 41.2949C70.8735 42.5616 70.1135 43.8706 68.8044 44.2084L28.0585 55.1022C26.7918 55.44 25.4406 54.68 25.1028 53.4132L17.0803 23.4765C16.7424 22.2098 17.5025 20.9009 18.7691 20.5631Z" fill="#E4E7E7"/>
<path d="M22.1893 22.9698L57.8262 13.4695C58.7973 13.2162 59.8108 13.8073 60.1063 14.7784L66.7778 39.5639C67.0311 40.535 66.4399 41.5484 65.4688 41.8017L29.8318 51.3021C28.8607 51.5554 27.8473 50.9642 27.5517 49.9931L20.8804 25.2077C20.5848 24.2365 21.176 23.2232 22.1893 22.9698Z" fill="#208DB2"/>
<path d="M26.1584 20.1408H68.5934C69.9445 20.1408 71.0001 21.2386 71.0001 22.5475V54.0043C71.0001 55.3554 69.9023 56.411 68.5934 56.411H26.1584C24.8073 56.411 23.7517 55.3132 23.7517 54.0043V22.5477C23.7517 21.2386 24.8495 20.1408 26.1584 20.1408Z" fill="#F3F3F3"/>
<path d="M28.9873 23.5187H65.8488C66.8621 23.5187 67.7066 24.3632 67.7066 25.3766V51.2176C67.7066 52.2309 66.8621 53.0754 65.8488 53.0754H28.9873C27.974 53.0754 27.1295 52.2309 27.1295 51.2176V25.3766C27.1295 24.3632 27.9318 23.5187 28.9873 23.5187Z" fill="#A3E0F5"/>
<path d="M27.1295 25.3766V34.4125C27.5517 34.4547 27.974 34.497 28.3962 34.497C33.7586 34.497 38.1077 30.1479 38.1077 24.7854C38.1077 24.3632 38.0655 23.9409 38.0232 23.5187H28.9873C27.9318 23.5187 27.1295 24.3632 27.1295 25.3766Z" fill="#EFC75E"/>
<path d="M30.2119 44.2084C29.1563 44.2084 28.1007 44.2929 27.1295 44.4195V51.2175C27.1295 52.2309 27.974 53.0754 28.9873 53.0754H43.0479C43.1324 52.6953 43.1746 52.3576 43.1746 51.9776C43.1745 47.6708 37.39 44.2084 30.2119 44.2084Z" fill="#3DB39E"/>
<path d="M59.6418 40.4082C48.0725 40.4082 38.6565 46.0662 38.5299 53.0754H65.8066C66.8199 53.0754 67.6644 52.2309 67.6644 51.2175V41.3794C65.1732 40.7883 62.4709 40.4082 59.6418 40.4082Z" fill="#4BC2AD"/>
</g>
<defs>
<clipPath id="clip0">
<rect width="54" height="54" fill="white" transform="translate(17 6)"/>
</clipPath>
</defs>
</svg>
