<svg width="20" height="20" viewBox="0 0 20 20" fill="none" xmlns="http://www.w3.org/2000/svg">
<path d="M0.807892 9.19209H16.1921C16.6383 9.19209 17 9.55377 17 9.99998C17 10.4462 16.6383 10.8079 16.1921 10.8079H0.807892C0.361681 10.8079 0 10.4462 0 9.99998C0 9.55381 0.361681 9.19209 0.807892 9.19209Z" fill="white"/>
<path d="M0.807892 3.06401H19.1921C19.6383 3.06401 20 3.42573 20 3.8719C20 4.31807 19.6383 4.67979 19.1921 4.67979H0.807892C0.361679 4.67979 0 4.31807 0 3.8719C0 3.42573 0.361679 3.06401 0.807892 3.06401Z" fill="white"/>
<path d="M0.807892 15.3202H19.1921C19.6383 15.3202 20 15.6819 20 16.1281C20 16.5743 19.6383 16.936 19.1921 16.936H0.807892C0.361679 16.936 0 16.5743 0 16.1281C0 15.6819 0.361679 15.3202 0.807892 15.3202Z" fill="white"/>
</svg>
