<svg width="14" height="20" viewBox="0 0 14 20" fill="none" xmlns="http://www.w3.org/2000/svg">
<path d="M13.2797 9.63379C13.1882 9.3575 12.9566 9.15097 12.6716 9.09128L8.74892 8.27029L9.9323 0.948207C9.9909 0.585271 9.80015 0.227765 9.46581 0.0746372C9.13119 -0.0787639 8.73611 0.00979234 8.49958 0.291516L0.870149 9.36511C0.696592 9.57164 0.636083 9.85094 0.708584 10.1109C0.781046 10.3709 0.977534 10.5785 1.23312 10.6651L5.03776 11.9564L3.50344 19.009C3.42441 19.3728 3.60098 19.7439 3.93313 19.912C4.05056 19.9714 4.177 20 4.30209 20C4.53096 20 4.75604 19.9039 4.91518 19.7235L13.1169 10.4324C13.3094 10.2142 13.3716 9.91008 13.2797 9.63379ZM5.7691 16.2853L6.79065 11.5905C6.8792 11.1839 6.64842 10.776 6.25466 10.6425L2.89143 9.50109L7.84648 3.60868L7.01077 8.77956C6.941 9.21062 7.22276 9.62043 7.65027 9.71008L10.9617 10.403L5.7691 16.2853Z" fill="#48E286"/>
</svg>
