<svg width="20" height="19" viewBox="0 0 20 19" fill="none" xmlns="http://www.w3.org/2000/svg">
<path fill-rule="evenodd" clip-rule="evenodd" d="M9.99994 0.833344C10.3171 0.833344 10.6068 1.0134 10.7472 1.29782L13.1285 6.12207L18.4538 6.90044C18.7676 6.94631 19.0282 7.16631 19.126 7.46798C19.2238 7.76966 19.1419 8.1007 18.9147 8.32198L15.062 12.0745L15.9713 17.3758C16.0249 17.6885 15.8964 18.0044 15.6397 18.1909C15.3831 18.3773 15.0428 18.4019 14.7621 18.2542L9.99994 15.7499L5.23782 18.2542C4.95706 18.4019 4.61681 18.3773 4.36016 18.1909C4.10352 18.0044 3.97498 17.6885 4.0286 17.3758L4.93784 12.0745L1.08517 8.32198C0.857984 8.1007 0.77609 7.76966 0.873905 7.46798C0.971719 7.16631 1.23229 6.94631 1.54609 6.90044L6.87139 6.12207L9.25269 1.29782C9.39308 1.0134 9.68276 0.833344 9.99994 0.833344ZM9.99994 3.54939L8.1722 7.2522C8.05092 7.4979 7.8166 7.66829 7.54547 7.70792L3.45695 8.30551L6.41472 11.1864C6.61128 11.3778 6.701 11.6538 6.65462 11.9242L5.95676 15.9931L9.61207 14.0708C9.85489 13.9431 10.145 13.9431 10.3878 14.0708L14.0431 15.9931L13.3453 11.9242C13.2989 11.6538 13.3886 11.3778 13.5852 11.1864L16.5429 8.30551L12.4544 7.70792C12.1833 7.66829 11.949 7.4979 11.8277 7.2522L9.99994 3.54939Z" fill="#48E286"/>
</svg>
