<svg width="20" height="20" viewBox="0 0 20 20" fill="none" xmlns="http://www.w3.org/2000/svg">
<path fill-rule="evenodd" clip-rule="evenodd" d="M9.16658 4.16667C6.8654 4.16667 4.99992 6.03215 4.99992 8.33333V9.16667V15H2.49992C1.57944 15 0.833252 14.2538 0.833252 13.3333V10C0.833252 9.07952 1.57944 8.33333 2.49992 8.33333H3.33325C3.33325 5.11167 5.94492 2.5 9.16658 2.5H10.8333C14.0549 2.5 16.6666 5.11167 16.6666 8.33333L17.4999 8.33333C18.4204 8.33333 19.1666 9.07952 19.1666 10V13.3333C19.1666 14.2538 18.4204 15 17.4999 15H16.5616C16.1915 16.4377 14.8865 17.5 13.3333 17.5H12.2769C11.9888 17.9982 11.4502 18.3333 10.8333 18.3333C9.91278 18.3333 9.16659 17.5871 9.16659 16.6667C9.16659 15.7462 9.91278 15 10.8333 15C11.4502 15 11.9888 15.3352 12.2769 15.8333H13.3333C14.2535 15.8333 14.9996 15.0875 14.9999 14.1673C14.9999 14.1671 14.9999 14.1669 14.9999 14.1667L14.9999 9.16667V8.33333C14.9999 6.03215 13.1344 4.16667 10.8333 4.16667H9.16658ZM3.33325 10H2.49992L2.49992 13.3333H3.33325V10ZM9.16659 10.2083C9.16659 10.7836 8.70022 11.25 8.12492 11.25C7.54962 11.25 7.08325 10.7836 7.08325 10.2083C7.08325 9.63304 7.54962 9.16667 8.12492 9.16667C8.70022 9.16667 9.16659 9.63304 9.16659 10.2083ZM11.8749 11.25C12.4502 11.25 12.9166 10.7836 12.9166 10.2083C12.9166 9.63304 12.4502 9.16667 11.8749 9.16667C11.2996 9.16667 10.8333 9.63304 10.8333 10.2083C10.8333 10.7836 11.2996 11.25 11.8749 11.25ZM16.6666 10H17.4999V13.3333H16.6666V10Z" fill="#FFEE97"/>
</svg>
