<svg width="20" height="20" viewBox="0 0 20 20" fill="none" xmlns="http://www.w3.org/2000/svg">
<path fill-rule="evenodd" clip-rule="evenodd" d="M9.99992 2.50001C5.85778 2.50001 2.49992 5.85787 2.49992 10C2.49992 14.1421 5.85778 17.5 9.99992 17.5C14.1421 17.5 17.4999 14.1421 17.4999 10C17.4999 5.85787 14.1421 2.50001 9.99992 2.50001ZM0.833252 10C0.833252 4.9374 4.93731 0.833344 9.99992 0.833344C15.0625 0.833344 19.1666 4.9374 19.1666 10C19.1666 15.0626 15.0625 19.1667 9.99992 19.1667C4.93731 19.1667 0.833252 15.0626 0.833252 10Z" fill="#6FB1FF"/>
<path fill-rule="evenodd" clip-rule="evenodd" d="M9.99992 9.16668C10.4602 9.16668 10.8333 9.53977 10.8333 10V13.3333C10.8333 13.7936 10.4602 14.1667 9.99992 14.1667C9.53968 14.1667 9.16658 13.7936 9.16658 13.3333V10C9.16658 9.53977 9.53968 9.16668 9.99992 9.16668Z" fill="#6FB1FF"/>
<path d="M10.8333 6.66668C10.8333 7.12691 10.4602 7.50001 9.99992 7.50001C9.53968 7.50001 9.16658 7.12691 9.16658 6.66668C9.16658 6.20644 9.53968 5.83334 9.99992 5.83334C10.4602 5.83334 10.8333 6.20644 10.8333 6.66668Z" fill="#6FB1FF"/>
</svg>
