<svg width="64" height="64" viewBox="0 0 64 64" fill="none" xmlns="http://www.w3.org/2000/svg">
<path d="M64 25.1183V13.4194C64 12.2792 63.0756 11.3549 61.9355 11.3549H2.0645L0.958374 13.4194V25.1183L3.09637 27.871H60.9034L64 25.1183Z" fill="#A4CCFF"/>
<path d="M0 13.4194V25.1183L2.0645 26.9537V11.3549C0.924375 11.3549 0 12.2792 0 13.4194Z" fill="#8BB3EA"/>
<path d="M0.977173 38.8819V49.6857C0.977173 50.8259 1.90155 51.7502 3.04167 51.7502H61.9355L64 50.5808V38.8819L60.9038 36.1292H3.0968L0.977173 38.8819Z" fill="#A4CCFF"/>
<path d="M2.0645 44.3871V37.0466L0 38.8817V50.5806C0 51.7208 0.924375 52.6451 2.0645 52.6451H61.9355C63.0756 52.6451 64 51.7208 64 50.5806H8.25813C4.8375 50.5806 2.0645 47.8077 2.0645 44.3871Z" fill="#8BB3EA"/>
<path d="M1.08337 37.1251L2.0645 38.8818H64V25.1183H2.0645L1.08337 27.2917V37.1251Z" fill="#F2F2F6"/>
<path d="M0 25.1183H2.0645V38.8818H0V25.1183Z" fill="#E1E1E6"/>
<path d="M36.0923 33.1706L34.0648 32.0001L36.0923 30.8296C36.5864 30.5443 36.7554 29.9136 36.4701 29.4194C36.1849 28.9253 35.5541 28.7563 35.06 29.0416L33.0325 30.2121V27.8709C33.0325 27.3003 32.5707 26.8387 32.0002 26.8387C31.4297 26.8387 30.968 27.3004 30.968 27.8709V30.2121L28.9405 29.0416C28.4464 28.7563 27.8157 28.9253 27.5304 29.4194C27.2451 29.9136 27.4141 30.5442 27.9082 30.8296L29.9357 32.0001L27.9082 33.1706C27.4141 33.4558 27.2451 34.0866 27.5304 34.5807C27.8156 35.0748 28.4464 35.2438 28.9405 34.9586L30.968 33.7881V36.1292C30.968 36.6998 31.4297 37.1615 32.0002 37.1615C32.5707 37.1615 33.0325 36.6997 33.0325 36.1292V33.7881L35.06 34.9586C35.5541 35.2438 36.1849 35.0748 36.4701 34.5807C36.7554 34.0866 36.5864 33.456 36.0923 33.1706Z" fill="#FFC269"/>
<path d="M32.0003 34.0645C33.1405 34.0645 34.0648 33.1402 34.0648 32C34.0648 30.8598 33.1405 29.9355 32.0003 29.9355C30.8601 29.9355 29.9358 30.8598 29.9358 32C29.9358 33.1402 30.8601 34.0645 32.0003 34.0645Z" fill="#FFE07D"/>
</svg>
