<svg width="64" height="64" viewBox="0 0 64 64" fill="none" xmlns="http://www.w3.org/2000/svg">
<g clip-path="url(#clip0)">
<path d="M61.9355 11.3549H32L30.9947 12.1459L30.0965 11.3549H19.6129L17.5484 13.1875H14.4516L12.3871 11.3549H2.2038C2.11093 11.3549 2.01818 11.3595 1.92593 11.3689L0.977051 12.625V49.3939C0.977051 50.5342 1.90143 51.4584 3.04155 51.4584H62.75L64 50.5808V13.4195C64 12.2792 63.0756 11.3549 61.9355 11.3549Z" fill="#5055A0"/>
<path d="M2.0645 44.3871V12.9844L0.139125 12.6729C0.04925 12.9044 0 13.1561 0 13.4194V18.0324L0.770875 18.9166V24.625L0 25.2581V30.7718L0.770875 31.3333L0 32V50.5806C0 51.7208 0.924375 52.6451 2.0645 52.6451H61.9355C63.0756 52.6451 64 51.7207 64 50.5806H8.25813C4.8375 50.5806 2.0645 47.8077 2.0645 44.3871Z" fill="#3F3F8F"/>
<path d="M18.5806 19.0968L17.5485 11.3549H14.4516L13.4194 19.0968H1.0625V24.2582H13.4194L14.4516 32.0002H17.5485L18.5806 24.2582L32 23.1935V20.0968L18.5806 19.0968Z" fill="#E5646E"/>
<path d="M2.0645 19.0966L0 20.0966V23.1934L2.0645 24.258V19.0966Z" fill="#DB4655"/>
<path d="M32.0002 11.3549H30.0967L19.7467 18.0323H19.6132V11.3549H17.5487V19.0968C17.5487 19.6491 17.9965 20.0968 18.5487 20.0968H32.0002V18.0323H23.5547L32.0002 12.5837V11.3549Z" fill="#F2F2F6"/>
<path d="M12.3871 11.3549V18.0323H12.2541L2.0645 11.4583L1 12.3125L2.0645 13.9152L8.44613 18.0324H2.0645L1.0625 19.0968L2.0645 20.0968H13.4516C14.0039 20.0968 14.4516 19.6491 14.4516 19.0968V11.3549H12.3871Z" fill="#F2F2F6"/>
<path d="M1.1875 24.3333L2.0645 25.2581H8.5465L2.0645 29.44L1.36462 30.823L2.0645 31.8968L12.3545 25.2582H12.3872V32.0002H14.4517V24.1937C14.4517 23.6415 14.004 23.1937 13.4517 23.1937H2.0645L1.1875 24.3333Z" fill="#F2F2F6"/>
<path d="M17.5487 32.0003H19.6132V25.2583H19.6462L30.0961 32.0002H32.0002V30.7718L23.4542 25.2582H32.0002V23.1937H18.5487C17.9965 23.1937 17.5487 23.6414 17.5487 24.1937V32.0003Z" fill="#F2F2F6"/>
<path d="M2.06442 11.4584L1.92579 11.369C1.11004 11.4243 0.421788 11.9431 0.139038 12.673L2.06442 13.9153V11.4584Z" fill="#E1E1E6"/>
<path d="M0 18.0325H2.0645V20.097H0V18.0325Z" fill="#E1E1E6"/>
<path d="M2.0645 29.44L0 30.7719V32H1.9045L2.0645 31.8968V29.44Z" fill="#E1E1E6"/>
<path d="M0 23.1937H2.0645V25.2582H0V23.1937Z" fill="#E1E1E6"/>
<path d="M21.0753 40.8008L18.7317 40.7802L17.5809 38.262C17.4722 37.936 17.0111 37.936 16.9023 38.262L16.0624 40.7802L13.4079 40.8008C13.0643 40.8035 12.9218 41.2421 13.1982 41.4462L15.3337 43.0231L14.5329 45.5541C14.4292 45.8818 14.8023 46.1528 15.0819 45.953L17.2416 44.4093L19.4012 45.953C19.6808 46.1528 20.0539 45.8817 19.9502 45.5541L19.1494 43.0231L21.2849 41.4462C21.5616 41.2421 21.4191 40.8036 21.0753 40.8008Z" fill="#F2F2F6"/>
<path d="M49.6147 42.8599L48.9358 42.8539L48.4792 41.8545C48.3767 41.6301 48.1527 41.4863 47.9061 41.4863C47.6348 41.4863 47.3941 41.6598 47.3083 41.917L46.9959 42.8538L46.0931 42.8608C45.5143 42.8653 45.2743 43.6038 45.7399 43.9477L46.4662 44.484L46.1938 45.3448C46.0192 45.8965 46.6474 46.353 47.1183 46.0165L47.8528 45.4915L48.5873 46.0165C49.0582 46.353 49.6864 45.8967 49.5118 45.3448L49.2394 44.484L49.9672 43.9467C50.4326 43.6032 50.1932 42.865 49.6147 42.8599Z" fill="#F2F2F6"/>
<path d="M41.3408 30.4731L40.6619 30.4671L40.2053 29.4677C40.1028 29.2434 39.8788 29.0995 39.6321 29.0995C39.3609 29.0995 39.1201 29.273 39.0344 29.5302L38.722 30.467L37.8191 30.474C37.2404 30.4785 37.0004 31.217 37.466 31.5609L38.1923 32.0972L37.9199 32.958C37.7453 33.5097 38.3735 33.9662 38.8444 33.6297L39.5789 33.1047L40.3134 33.6297C40.7843 33.9662 41.4125 33.5098 41.2379 32.958L40.9655 32.0972L41.6933 31.5599C42.1587 31.2162 41.9192 30.4781 41.3408 30.4731Z" fill="#F2F2F6"/>
<path d="M57.846 26.2825L57.1671 26.2765L56.7105 25.2771C56.608 25.0527 56.384 24.9089 56.1374 24.9089C55.8661 24.9089 55.6254 25.0824 55.5396 25.3396L55.2273 26.2764L54.3244 26.2834C53.7456 26.2879 53.5056 27.0264 53.9713 27.3703L54.6975 27.9066L54.4251 28.7674C54.2505 29.3191 54.8789 29.7756 55.3496 29.4391L56.0841 28.9141L56.8186 29.4391C57.2895 29.7756 57.9178 29.3193 57.7431 28.7674L57.4708 27.9066L58.1985 27.3693C58.6639 27.0258 58.4245 26.2876 57.846 26.2825Z" fill="#F2F2F6"/>
<path d="M49.5928 20.05L48.914 20.044L48.4573 19.0446C48.3548 18.8202 48.1308 18.6763 47.8842 18.6763C47.613 18.6763 47.3722 18.8498 47.2865 19.1071L46.9741 20.0438L46.0712 20.0508C45.4925 20.0553 45.2525 20.7938 45.7181 21.1377L46.4443 21.6741L46.172 22.5348C45.9973 23.0866 46.6256 23.5431 47.0965 23.2066L47.831 22.6816L48.5655 23.2066C49.0363 23.5431 49.6646 23.0867 49.49 22.5348L49.2176 21.6741L49.9453 21.1367C50.4107 20.7932 50.1713 20.0551 49.5928 20.05Z" fill="#F2F2F6"/>
<path d="M51.5642 32.3943L51.1886 32.391L50.936 31.8381C50.8792 31.714 50.7553 31.6344 50.6188 31.6344C50.4688 31.6344 50.3356 31.7304 50.2881 31.8728L50.1152 32.391L49.6157 32.3949C49.2956 32.3974 49.1627 32.806 49.4203 32.9961L49.8222 33.2929L49.6716 33.7691C49.575 34.0744 49.9226 34.3269 50.1831 34.1407L50.5895 33.8502L50.9958 34.1407C51.2563 34.3269 51.604 34.0744 51.5073 33.7691L51.3567 33.2929L51.7594 32.9956C52.0167 32.8055 51.8842 32.3971 51.5642 32.3943Z" fill="#F2F2F6"/>
</g>
<defs>
<clipPath id="clip0">
<rect width="64" height="64" fill="white"/>
</clipPath>
</defs>
</svg>
