<svg width="64" height="64" viewBox="0 0 64 64" fill="none" xmlns="http://www.w3.org/2000/svg">
<path d="M61.9355 11.3549H2.06455L0.977173 12.625V49.3939C0.977173 50.5342 1.90155 51.4584 3.04167 51.4584H62.75L64 50.5808V13.4195C64 12.2792 63.0757 11.3549 61.9355 11.3549Z" fill="#95CC81"/>
<path d="M2.0645 44.3872V11.3549C0.924375 11.3549 0 12.2792 0 13.4194V50.5807C0 51.7209 0.924375 52.6452 2.0645 52.6452H61.9355C63.0756 52.6452 64 51.7208 64 50.5807H8.25813C4.8375 50.5807 2.0645 47.8078 2.0645 44.3872Z" fill="#7DBD80"/>
<path d="M55.0173 31.5592L33.0732 18.2018C32.4138 17.8005 31.5857 17.8005 30.9263 18.2018L8.98203 31.5592C8.65166 31.7603 8.65166 32.24 8.98203 32.441L30.9262 45.7983C31.5855 46.1997 32.4137 46.1997 33.073 45.7983L55.0172 32.441C55.3477 32.2398 55.3477 31.7603 55.0173 31.5592Z" fill="#FFE07D"/>
<path d="M31.9998 23.7419C28.9292 23.7419 26.2501 25.4178 24.8271 27.9047L24.0001 29.9424C23.8314 30.6002 23.7417 31.2896 23.7417 31.9998C23.7417 36.5606 27.4389 40.2578 31.9997 40.2578C35.7289 40.2578 38.881 37.7858 39.9062 34.3909L40.2552 32.2023C40.2568 32.1349 40.2577 32.0674 40.2577 31.9998C40.2578 27.4392 36.5606 23.7419 31.9998 23.7419Z" fill="#5055A0"/>
<path d="M24.0001 29.9427C29.7369 29.9892 35.2233 31.5278 39.9064 34.3913C40.1167 33.6957 40.2372 32.9624 40.2554 32.2027C35.6423 29.5518 30.3514 28.0768 24.827 27.9049C24.466 28.536 24.1854 29.2209 24.0001 29.9427Z" fill="white"/>
</svg>
