<svg width="64" height="64" viewBox="0 0 64 64" fill="none" xmlns="http://www.w3.org/2000/svg">
<g clip-path="url(#clip0)">
<path d="M49.5487 11.3549H14.452C13.3117 11.3549 12.3875 12.2793 12.3875 13.4194V51.7084H51.6132V13.4194C51.6132 12.2792 50.689 11.3549 49.5487 11.3549Z" fill="#F2F2F6"/>
<path d="M13.25 50.5807L14.4516 52.6452H49.5484L50.75 50.5807H13.25Z" fill="#E1E1E6"/>
<path d="M43.8372 32.6658L41.7499 31.2743C41.4628 31.0828 41.2903 30.7606 41.2903 30.4155V27.4997C41.2903 27.1962 40.9708 26.9986 40.6993 27.1345L35.0968 29.9357L36.9487 23.4545C37.0389 23.1386 36.7384 22.851 36.4268 22.9548L34.8919 23.4665C34.4142 23.6257 33.8913 23.417 33.6545 22.9726L32.3605 20.5446C32.2068 20.2562 31.7934 20.2562 31.6397 20.5446L30.3457 22.9726C30.1089 23.417 29.5859 23.6256 29.1083 23.4665L27.5734 22.9548C27.2619 22.851 26.9613 23.1387 27.0515 23.4545L28.9034 29.9357L23.3009 27.1345C23.0294 26.9987 22.7099 27.1962 22.7099 27.4997V30.4155C22.7099 30.7606 22.5374 31.083 22.2503 31.2743L20.163 32.6658C19.9104 32.8342 19.9234 33.2096 20.187 33.3602L26.839 37.1613L26.2597 38.8994C26.0369 39.5678 26.5344 40.2581 27.239 40.2581H30.9682V45.4193C30.9682 45.9893 31.4299 46.4516 32.0004 46.4516C32.5709 46.4516 33.0327 45.9893 33.0327 45.4193V40.2581H36.7618C37.4664 40.2581 37.9639 39.5678 37.7412 38.8994L37.1618 37.1613L43.8138 33.3602C44.0768 33.2096 44.0898 32.8342 43.8372 32.6658Z" fill="#E5646E"/>
<path d="M14.4519 11.3549H2.06479L1.06079 13.4194V49.3522C1.06079 50.4923 1.98517 51.4167 3.12529 51.4167H13.1253L14.4519 50.5805V11.3549Z" fill="#E5646E"/>
<path d="M0 13.4194V50.5807C0 51.7208 0.924375 52.6452 2.0645 52.6452H14.4516V50.5807H8.25813C4.8375 50.5807 2.06463 47.8078 2.06463 44.3872V11.3549C0.924375 11.3549 0 12.2792 0 13.4194H0Z" fill="#DB4655"/>
<path d="M51.7085 51.8334H61.9356L64.0001 50.5807V13.4194C64.0001 12.2793 63.0757 11.3549 61.9356 11.3549H49.5485V50.5808L51.7085 51.8334Z" fill="#E5646E"/>
<path d="M64.0001 50.5807H49.5485V52.6452H61.9356C63.0757 52.6452 64.0001 51.7209 64.0001 50.5807Z" fill="#DB4655"/>
</g>
<defs>
<clipPath id="clip0">
<rect width="64" height="64" fill="white"/>
</clipPath>
</defs>
</svg>
