<svg width="64" height="64" viewBox="0 0 64 64" fill="none" xmlns="http://www.w3.org/2000/svg">
<g clip-path="url(#clip0)">
<path d="M61.9358 29.9354H2.87529C1.73504 29.9354 0.810791 30.8598 0.810791 31.9999V49.5604C0.810791 50.7006 1.73504 51.625 2.87529 51.625H61.9358L64.0003 50.5806V31.9999C64.0003 30.8597 63.0759 29.9354 61.9358 29.9354Z" fill="#E5646E"/>
<path d="M2.0645 44.3871V29.9354C0.924375 29.9354 0 30.8597 0 31.9999V50.5806C0 51.7208 0.924375 52.6451 2.0645 52.6451H61.9355C63.0756 52.6451 64 51.7207 64 50.5806H8.25813C4.8375 50.5806 2.0645 47.8077 2.0645 44.3871Z" fill="#DB4655"/>
<path d="M61.9356 11.3549H20.6452C19.5051 11.3549 18.5807 12.2792 18.5807 13.4194L20.6452 32H64.0001V13.4194C64.0001 12.2792 63.0757 11.3549 61.9356 11.3549Z" fill="#F2F2F6"/>
<path d="M2.0645 11.3549L0.791626 15.875L2.0645 32H20.6451V11.3549H2.0645Z" fill="#5055A0"/>
<path d="M0 13.4194V32H2.0645V11.3549C0.924375 11.3549 0 12.2792 0 13.4194Z" fill="#3F3F8F"/>
<path d="M15.046 20.2214L12.1586 20.196L10.7408 17.0935C10.607 16.6917 10.0387 16.6917 9.90471 17.0935L8.86996 20.196L5.59946 20.2214C5.17609 20.2246 5.00046 20.765 5.34109 21.0165L7.97209 22.9592L6.98559 26.0774C6.85784 26.4811 7.31746 26.815 7.66196 26.5689L10.3227 24.667L12.9835 26.5689C13.328 26.8151 13.7876 26.4811 13.6598 26.0774L12.6733 22.9592L15.3043 21.0165C15.645 20.765 15.4693 20.2246 15.046 20.2214Z" fill="white"/>
</g>
<defs>
<clipPath id="clip0">
<rect width="64" height="64" fill="white"/>
</clipPath>
</defs>
</svg>
