<svg width="64" height="64" viewBox="0 0 64 64" fill="none" xmlns="http://www.w3.org/2000/svg">
<path d="M61.9355 11.3549H2.06455L0.977173 12.625V49.3939C0.977173 50.5341 1.90155 51.4584 3.04167 51.4584H62.75L64 50.5807V13.4195C64 12.2791 63.0757 11.3549 61.9355 11.3549Z" fill="#E5646E"/>
<path d="M2.0645 44.3871V11.3549C0.924375 11.3549 0 12.2791 0 13.4194V50.5806C0 51.7209 0.924375 52.6451 2.0645 52.6451H61.9355C63.0756 52.6451 64 51.7207 64 50.5806H8.25813C4.8375 50.5806 2.0645 47.8077 2.0645 44.3871Z" fill="#DB4655"/>
<path d="M18.0765 23.3428L14.7529 23.3137L13.121 19.7424C12.9669 19.28 12.3129 19.28 12.1586 19.7424L10.9676 23.3137L7.20312 23.3428C6.71575 23.3465 6.51362 23.9685 6.90575 24.2582L9.93412 26.4945L8.79862 30.0838C8.65162 30.5485 9.18062 30.9329 9.57725 30.6495L12.64 28.4604L15.7027 30.6495C16.0992 30.9329 16.6284 30.5485 16.4814 30.0838L15.3459 26.4945L18.3742 24.2582C18.766 23.9685 18.5639 23.3465 18.0765 23.3428Z" fill="#FFE07D"/>
<path d="M22.0151 16.7284L21.3362 16.7224L20.8796 15.723C20.7771 15.4986 20.5531 15.3547 20.3065 15.3547C20.0352 15.3547 19.7945 15.5282 19.7087 15.7855L19.3963 16.7222L18.4935 16.7292C17.9147 16.7337 17.6747 17.4722 18.1403 17.8161L18.8666 18.3525L18.5942 19.2132C18.4196 19.765 19.0478 20.2215 19.5187 19.885L20.2532 19.36L20.9877 19.885C21.4586 20.2215 22.0868 19.7651 21.9122 19.2132L21.6398 18.3525L22.3676 17.8151C22.8328 17.4716 22.5934 16.7334 22.0151 16.7284Z" fill="#FFE07D"/>
<path d="M22.0151 33.1155L21.3362 33.1095L20.8796 32.1101C20.7771 31.8857 20.5531 31.7418 20.3065 31.7418C20.0352 31.7418 19.7945 31.9153 19.7087 32.1726L19.3963 33.1093L18.4935 33.1163C17.9147 33.1208 17.6747 33.8593 18.1403 34.2032L18.8666 34.7396L18.5942 35.6003C18.4196 36.1521 19.0478 36.6086 19.5187 36.2721L20.2532 35.7471L20.9877 36.2721C21.4586 36.6086 22.0868 36.1522 21.9122 35.6003L21.6398 34.7396L22.3676 34.2022C22.8328 33.8586 22.5934 33.1205 22.0151 33.1155Z" fill="#FFE07D"/>
<path d="M26.8328 28.0401L26.154 28.0341L25.6973 27.0348C25.5948 26.8104 25.3708 26.6665 25.1242 26.6665C24.853 26.6665 24.6122 26.84 24.5265 27.0973L24.2141 28.034L23.3112 28.041C22.7325 28.0455 22.4925 28.784 22.9581 29.1279L23.6843 29.6643L23.412 30.525C23.2373 31.0768 23.8657 31.5333 24.3365 31.1968L25.071 30.6718L25.8055 31.1968C26.2763 31.5333 26.9046 31.0769 26.73 30.525L26.4576 29.6643L27.1853 29.1269C27.6507 28.7834 27.4112 28.0453 26.8328 28.0401Z" fill="#FFE07D"/>
<path d="M26.8328 21.3305L26.154 21.3245L25.6973 20.3252C25.5948 20.1008 25.3708 19.9569 25.1242 19.9569C24.853 19.9569 24.6122 20.1304 24.5265 20.3877L24.2141 21.3244L23.3112 21.3314C22.7325 21.3359 22.4925 22.0744 22.9581 22.4183L23.6843 22.9547L23.412 23.8154C23.2373 24.3672 23.8657 24.8237 24.3365 24.4872L25.071 23.9622L25.8055 24.4872C26.2763 24.8237 26.9046 24.3673 26.73 23.8154L26.4576 22.9547L27.1853 22.4173C27.6507 22.0738 27.4112 21.3357 26.8328 21.3305Z" fill="#FFE07D"/>
</svg>
