<svg width="64" height="64" viewBox="0 0 64 64" fill="none" xmlns="http://www.w3.org/2000/svg">
<g clip-path="url(#clip0)">
<path d="M61.9355 11.3549H2.0645L0.958374 13.4194V34.0645H61.9355C63.0758 34.0645 64 33.1401 64 32V13.4194C64 12.2791 63.0756 11.3549 61.9355 11.3549Z" fill="#FFE07D"/>
<path d="M0 13.4194V32L2.0645 33.4026V11.3549C0.924375 11.3549 0 12.2791 0 13.4194Z" fill="#FFD064"/>
<path d="M1.22717 40.875V49.4771C1.22717 50.6172 2.15155 51.5416 3.29167 51.5416H61.9355L64 50.5806V42.3225L61.7084 40.875H1.22717Z" fill="#E5646E"/>
<path d="M64 50.5806H8.25813C4.8375 50.5806 2.06463 47.8077 2.06463 44.3871V41L0 42.3226V50.5807C0 51.7209 0.924375 52.6452 2.0645 52.6452H61.9355C63.0756 52.6451 64 51.7209 64 50.5806Z" fill="#DB4655"/>
<path d="M64 32H2.0645L0.75 33.9166V40.4166L2.0645 42.3226H64V32Z" fill="#5055A0"/>
<path d="M0 32H2.0645V42.3226H0V32Z" fill="#3F3F8F"/>
</g>
<defs>
<clipPath id="clip0">
<rect width="64" height="64" fill="white"/>
</clipPath>
</defs>
</svg>
