<svg width="64" height="64" viewBox="0 0 64 64" fill="none" xmlns="http://www.w3.org/2000/svg">
<g clip-path="url(#clip0)">
<path d="M61.9356 11.3547H2.06457C1.56144 11.3547 1.10032 11.5347 0.742065 11.8338L11.8065 35.0967L64.0001 31.9998V13.4192C64.0001 12.2789 63.0758 11.3547 61.9356 11.3547Z" fill="#F2F2F6"/>
<path d="M0.791626 32V51.625H61.9355L64 50.5806V32H0.791626Z" fill="#E5646E"/>
<path d="M8.25806 50.5802C6.98493 50.5802 5.80156 50.1961 4.81743 49.5375L1.25906 49.1261L0.74231 52.1658C1.10043 52.4648 1.56143 52.6447 2.06443 52.6447H61.9354C63.0756 52.6447 63.9999 51.7203 63.9999 50.5802H8.25806Z" fill="#DB4655"/>
<path d="M2.0645 12.6865L1.4375 13.4191V49.1262L4.81738 49.5376L32 31.9997L2.0645 12.6865Z" fill="#5055A0"/>
<path d="M4.818 49.5366C3.158 48.4256 2.0645 46.5344 2.0645 44.3869V12.6866L0.741875 11.8337C0.287 12.2124 0 12.781 0 13.4192V50.5805C0 51.2186 0.28725 51.7874 0.742125 52.166L4.818 49.5366Z" fill="#3F3F8F"/>
</g>
<defs>
<clipPath id="clip0">
<rect width="64" height="64" fill="white"/>
</clipPath>
</defs>
</svg>
