<svg width="64" height="64" viewBox="0 0 64 64" fill="none" xmlns="http://www.w3.org/2000/svg">
<g clip-path="url(#clip0)">
<path d="M61.9355 11.3548H25.8065L24.875 12.4166H20.7084L19.6129 11.3547H2.06455L0.977173 12.6249V49.3938C0.977173 50.534 1.90155 51.4583 3.04167 51.4583H62.75L64 50.5807V35.0967L62.9375 33.8437V30.0312L64 28.9032V13.4193C64 12.2791 63.0757 11.3548 61.9355 11.3548Z" fill="#E5646E"/>
<path d="M2.0645 44.3891V11.3568C0.924375 11.3568 0 12.2811 0 13.4213V28.9052L0.8125 29.8769V33.7832L0 35.0987V50.5826C0 51.7228 0.924375 52.6471 2.0645 52.6471H19.6129L20.8438 51.7207H24.6562L25.8065 52.6471H61.9355C63.0756 52.6471 64 51.7227 64 50.5826H8.25813C4.8375 50.5826 2.0645 47.8097 2.0645 44.3891Z" fill="#DB4655"/>
<path d="M64 28.9033H25.8065V11.3549H19.6129V28.9033H2.0645L1.03125 30.4688V33.5313L2.0645 35.0968H19.6129V50.5807L20.8438 51.5313H24.8125L25.8065 50.5807V35.0968H64V28.9033Z" fill="#F2F2F6"/>
<path d="M0 28.9031H2.0645V35.0966H0V28.9031Z" fill="#E1E1E6"/>
<path d="M19.6134 50.5805H25.8069V52.645H19.6134V50.5805Z" fill="#E1E1E6"/>
</g>
<defs>
<clipPath id="clip0">
<rect width="64" height="64" fill="white"/>
</clipPath>
</defs>
</svg>
