<svg width="64" height="64" viewBox="0 0 64 64" fill="none" xmlns="http://www.w3.org/2000/svg">
<path d="M64 25.1183V13.4194C64 12.2792 63.0756 11.3549 61.9355 11.3549H2.0645L0.958374 13.4194V25.1183L3.09637 27.871H60.9034L64 25.1183Z" fill="#E5646E"/>
<path d="M0 13.4194V25.1183L2.0645 26.9537V11.3549C0.924375 11.3549 0 12.2792 0 13.4194Z" fill="#DB4655"/>
<path d="M0.977051 38.8819V49.6857C0.977051 50.8259 1.90143 51.7502 3.04155 51.7502H61.9355L64 50.5808V38.8819L60.9037 36.1292H3.09668L0.977051 38.8819Z" fill="#5D5360"/>
<path d="M2.0645 44.3871V37.0466L0 38.8817V50.5806C0 51.7208 0.924375 52.6451 2.0645 52.6451H61.9355C63.0756 52.6451 64 51.7208 64 50.5806H8.25813C4.8375 50.5806 2.0645 47.8077 2.0645 44.3871Z" fill="#4B3F4E"/>
<path d="M1.08337 37.1249L2.0645 38.8816H64V25.1182H2.0645L1.08337 27.2915V37.1249Z" fill="#F2F2F6"/>
<path d="M0 25.1182H2.0645V38.8816H0V25.1182Z" fill="#E1E1E6"/>
<path d="M33.0321 30.9678V28.9033C33.0321 27.7652 32.1057 26.8388 30.9676 26.8388C30.397 26.8388 29.9353 27.3006 29.9353 27.8711C29.9353 28.4416 30.3971 28.9033 30.9676 28.9033V30.9678C29.8275 30.9678 28.9031 31.892 28.9031 33.0323V36.129C28.9031 36.6992 29.3652 37.1613 29.9353 37.1613H34.0644C34.6345 37.1613 35.0966 36.6992 35.0966 36.129V33.0323C35.0966 31.892 34.1724 30.9678 33.0321 30.9678Z" fill="#FFD064"/>
<path d="M32.0001 35.0967C31.43 35.0967 30.9679 34.6346 30.9679 34.0645V33.0322C30.9679 32.4621 31.43 32 32.0001 32C32.5703 32 33.0324 32.4621 33.0324 33.0322V34.0645C33.0324 34.6346 32.5703 35.0967 32.0001 35.0967Z" fill="white"/>
</svg>
