<svg width="64" height="64" viewBox="0 0 64 64" fill="none" xmlns="http://www.w3.org/2000/svg">
<path d="M61.9355 11.3549H34.0645L32 12.3334L29.9355 11.3549H2.06443L0.977051 12.625V49.3939C0.977051 50.5341 1.90143 51.4584 3.04155 51.4584H62.75L64 50.5807V34.0645L62.4375 32.0625L64 29.9354V13.4194C64 12.2791 63.0756 11.3549 61.9355 11.3549Z" fill="#F2F2F6"/>
<path d="M2.0645 44.3871V11.3549C0.924375 11.3549 0 12.2791 0 13.4194V29.9355L1.25 32.1667L0 34.0645V50.5806C0 51.7209 0.924375 52.6451 2.0645 52.6451H29.9355L31.9375 51.6129L34.0645 52.6451H61.9355C63.0756 52.6451 64 51.7207 64 50.5806H8.25813C4.8375 50.5806 2.0645 47.8077 2.0645 44.3871Z" fill="#E1E1E6"/>
<path d="M64 29.9355H34.0645V11.3549H29.9355V29.9355H2.0645L0.666626 32L2.0645 34.0645H29.9355V50.5806L32 51.9062L34.0645 50.5806V34.0645H64V29.9355Z" fill="#E5646E"/>
<path d="M0 29.9355H2.0645V34.0645H0V29.9355Z" fill="#DB4655"/>
<path d="M29.9354 50.5807H34.0645V52.6452H29.9354V50.5807Z" fill="#DB4655"/>
</svg>
