<svg width="64" height="64" viewBox="0 0 64 64" fill="none" xmlns="http://www.w3.org/2000/svg">
<path d="M61.9355 11.3549H2.06443L0.977051 12.625V49.3939C0.977051 50.5342 1.90143 51.4584 3.04155 51.4584H62.75L64 50.5808V13.4195C64 12.2792 63.0756 11.3549 61.9355 11.3549Z" fill="#5055A0"/>
<path d="M2.0645 44.3872V11.3549C0.924375 11.3549 0 12.2792 0 13.4194V50.5807C0 51.7209 0.924375 52.6452 2.0645 52.6452H61.9355C63.0756 52.6452 64 51.7208 64 50.5807H8.25813C4.8375 50.5807 2.0645 47.8078 2.0645 44.3872Z" fill="#3F3F8F"/>
<path d="M33.765 17.4298L33.0861 17.4238L32.6295 16.4245C32.527 16.2001 32.303 16.0562 32.0563 16.0562C31.7851 16.0562 31.5443 16.2297 31.4586 16.487L31.1462 17.4237L30.2433 17.4307C29.6646 17.4352 29.4246 18.1737 29.8902 18.5176L30.6165 19.054L30.3441 19.9147C30.1695 20.4665 30.7977 20.923 31.2686 20.5865L32.0031 20.0615L32.7376 20.5865C33.2085 20.923 33.8367 20.4666 33.6621 19.9147L33.3897 19.054L34.1175 18.5166C34.5828 18.1731 34.3433 17.435 33.765 17.4298Z" fill="#FFE07D"/>
<path d="M20.354 30.8062L19.6751 30.8002L19.2185 29.8009C19.116 29.5765 18.892 29.4326 18.6453 29.4326C18.3741 29.4326 18.1333 29.6061 18.0476 29.8634L17.7352 30.8001L16.8323 30.8071C16.2536 30.8116 16.0136 31.5501 16.4792 31.894L17.2055 32.4304L16.9331 33.2911C16.7585 33.8429 17.3868 34.2994 17.8576 33.9629L18.5921 33.4379L19.3266 33.9629C19.7975 34.2994 20.4257 33.843 20.2511 33.2911L19.9787 32.4304L20.7065 31.893C21.1718 31.5495 20.9323 30.8114 20.354 30.8062Z" fill="#FFE07D"/>
<path d="M47.1777 30.794L46.4988 30.788L46.0422 29.7887C45.9397 29.5643 45.7157 29.4204 45.469 29.4204C45.1978 29.4204 44.957 29.5939 44.8713 29.8512L44.5589 30.7879L43.6561 30.7949C43.0773 30.7994 42.8373 31.5379 43.3029 31.8818L44.0292 32.4182L43.7568 33.2789C43.5822 33.8306 44.2106 34.2871 44.6813 33.9506L45.4158 33.4256L46.1503 33.9506C46.6212 34.2871 47.2494 33.8308 47.0748 33.2789L46.8024 32.4182L47.5302 31.8808C47.9955 31.5373 47.7562 30.7992 47.1777 30.794Z" fill="#FFE07D"/>
<path d="M45.3394 24.2381L44.6605 24.2321L44.2039 23.2327C44.1014 23.0083 43.8774 22.8644 43.6308 22.8644C43.3595 22.8644 43.1188 23.0379 43.033 23.2952L42.7207 24.2319L41.8178 24.2389C41.239 24.2434 40.999 24.9819 41.4647 25.3258L42.1909 25.8622L41.9185 26.7229C41.7439 27.2747 42.3722 27.7312 42.843 27.3947L43.5775 26.8697L44.312 27.3947C44.7829 27.7312 45.4112 27.2748 45.2365 26.7229L44.9642 25.8622L45.6919 25.3248C46.1572 24.9813 45.9178 24.2432 45.3394 24.2381Z" fill="#FFE07D"/>
<path d="M40.1889 19.4748L39.51 19.4688L39.0534 18.4694C38.9509 18.245 38.7269 18.1011 38.4803 18.1011C38.209 18.1011 37.9683 18.2746 37.8825 18.5319L37.5702 19.4686L36.6673 19.4756C36.0885 19.4801 35.8485 20.2186 36.3142 20.5625L37.0404 21.0989L36.768 21.9596C36.5934 22.5114 37.2218 22.9679 37.6925 22.6314L38.427 22.1064L39.1615 22.6314C39.6324 22.9679 40.2606 22.5115 40.086 21.9596L39.8136 21.0989L40.5414 20.5615C41.0068 20.218 40.7674 19.4798 40.1889 19.4748Z" fill="#FFE07D"/>
<path d="M27.3338 19.4748L26.6549 19.4688L26.1983 18.4694C26.0958 18.245 25.8718 18.1011 25.6252 18.1011C25.3539 18.1011 25.1132 18.2746 25.0274 18.5319L24.7151 19.4686L23.8122 19.4756C23.2334 19.4801 22.9934 20.2186 23.4591 20.5625L24.1853 21.0989L23.9129 21.9596C23.7383 22.5114 24.3666 22.9679 24.8374 22.6314L25.5719 22.1064L26.3064 22.6314C26.7773 22.9679 27.4056 22.5115 27.2309 21.9596L26.9586 21.0989L27.6863 20.5615C28.1517 20.218 27.9123 19.4798 27.3338 19.4748Z" fill="#FFE07D"/>
<path d="M40.197 42.6518L39.5181 42.6458L39.0615 41.6465C38.959 41.4221 38.735 41.2782 38.4883 41.2782C38.2171 41.2782 37.9763 41.4517 37.8906 41.709L37.5782 42.6457L36.6753 42.6527C36.0966 42.6572 35.8566 43.3957 36.3222 43.7396L37.0485 44.276L36.7761 45.1367C36.6015 45.6885 37.2297 46.145 37.7006 45.8085L38.4351 45.2835L39.1696 45.8085C39.6405 46.145 40.2687 45.6886 40.0941 45.1367L39.8217 44.276L40.5495 43.7386C41.0148 43.395 40.7755 42.6568 40.197 42.6518Z" fill="#FFE07D"/>
<path d="M27.342 42.6518L26.6631 42.6458L26.2065 41.6465C26.104 41.4221 25.88 41.2782 25.6334 41.2782C25.3621 41.2782 25.1214 41.4517 25.0356 41.709L24.7232 42.6457L23.8204 42.6527C23.2416 42.6572 23.0016 43.3957 23.4672 43.7396L24.1935 44.276L23.9211 45.1367C23.7465 45.6885 24.3749 46.145 24.8456 45.8085L25.5801 45.2835L26.3146 45.8085C26.7855 46.145 27.4137 45.6886 27.2391 45.1367L26.9667 44.276L27.6945 43.7386C28.1599 43.395 27.9204 42.6568 27.342 42.6518Z" fill="#FFE07D"/>
<path d="M22.1837 24.2381L21.5048 24.2321L21.0482 23.2327C20.9457 23.0083 20.7217 22.8644 20.475 22.8644C20.2038 22.8644 19.963 23.0379 19.8773 23.2952L19.5649 24.2319L18.662 24.2389C18.0833 24.2434 17.8433 24.9819 18.3089 25.3258L19.0352 25.8622L18.7628 26.7229C18.5882 27.2747 19.2164 27.7312 19.6873 27.3947L20.4218 26.8697L21.1563 27.3947C21.6272 27.7312 22.2554 27.2748 22.0808 26.7229L21.8084 25.8622L22.5362 25.3248C23.0015 24.9813 22.762 24.2432 22.1837 24.2381Z" fill="#FFE07D"/>
<path d="M45.3394 37.7781L44.6605 37.7721L44.2039 36.7727C44.1014 36.5484 43.8774 36.4045 43.6308 36.4045C43.3595 36.4045 43.1188 36.578 43.033 36.8352L42.7207 37.772L41.8178 37.779C41.239 37.7835 40.999 38.522 41.4647 38.8659L42.1909 39.4022L41.9185 40.263C41.7439 40.8147 42.3722 41.2712 42.843 40.9347L43.5775 40.4097L44.312 40.9347C44.7829 41.2712 45.4112 40.8149 45.2365 40.263L44.9642 39.4022L45.6919 38.8649C46.1572 38.5212 45.9178 37.7831 45.3394 37.7781Z" fill="#FFE07D"/>
<path d="M22.1837 37.7781L21.5048 37.7721L21.0482 36.7727C20.9457 36.5484 20.7217 36.4045 20.475 36.4045C20.2038 36.4045 19.963 36.578 19.8773 36.8352L19.5649 37.772L18.662 37.779C18.0833 37.7835 17.8433 38.522 18.3089 38.8659L19.0352 39.4022L18.7628 40.263C18.5882 40.8147 19.2164 41.2712 19.6873 40.9347L20.4218 40.4097L21.1563 40.9347C21.6272 41.2712 22.2554 40.8149 22.0808 40.263L21.8084 39.4022L22.5362 38.8649C23.0015 38.5212 22.762 37.7831 22.1837 37.7781Z" fill="#FFE07D"/>
<path d="M33.765 44.3654L33.0861 44.3594L32.6295 43.36C32.527 43.1356 32.303 42.9918 32.0563 42.9918C31.7851 42.9918 31.5443 43.1653 31.4586 43.4225L31.1462 44.3593L30.2433 44.3663C29.6646 44.3708 29.4246 45.1093 29.8902 45.4531L30.6165 45.9895L30.3441 46.8503C30.1695 47.402 30.7977 47.8585 31.2686 47.522L32.0031 46.997L32.7376 47.522C33.2085 47.8585 33.8367 47.4022 33.6621 46.8503L33.3897 45.9895L34.1175 45.4521C34.5828 45.1086 34.3433 44.3705 33.765 44.3654Z" fill="#FFE07D"/>
</svg>
