<svg width="64" height="64" viewBox="0 0 64 64" fill="none" xmlns="http://www.w3.org/2000/svg">
<g clip-path="url(#clip0)">
<path d="M61.9355 11.3552H25.8064L24.8749 12.417H20.7083L19.6128 11.3551H2.06443L0.977051 12.6254V49.3942C0.977051 50.5345 1.90143 51.4587 3.04155 51.4587H62.75L64 50.5811V35.0971L62.9375 33.8441V30.0316L64 28.9036V13.4197C64 12.2795 63.0756 11.3552 61.9355 11.3552Z" fill="#F2F2F6"/>
<path d="M2.0645 44.3894V11.3572C0.924375 11.3572 0 12.2814 0 13.4217V28.9056L0.8125 29.8773V33.7836L0 35.0991V50.5829C0 51.7232 0.924375 52.6474 2.0645 52.6474H19.6129L20.8438 51.7211H24.6562L25.8065 52.6474H61.9355C63.0756 52.6474 64 51.723 64 50.5829H8.25813C4.8375 50.5829 2.0645 47.81 2.0645 44.3894Z" fill="#E1E1E6"/>
<path d="M64 28.9035H25.8065V11.3552H19.6129V28.9035H2.0645L1.03125 30.469V33.5315L2.0645 35.097H19.6129V50.5809L20.8438 51.5315H24.8125L25.8065 50.5809V35.097H64V28.9035Z" fill="#5055A0"/>
<path d="M0 28.9036H2.0645V35.0972H0V28.9036Z" fill="#3F3F8F"/>
<path d="M19.613 50.5812H25.8065V52.6457H19.613V50.5812Z" fill="#3F3F8F"/>
</g>
<defs>
<clipPath id="clip0">
<rect width="64" height="64" fill="white"/>
</clipPath>
</defs>
</svg>
