<svg width="64" height="64" viewBox="0 0 64 64" fill="none" xmlns="http://www.w3.org/2000/svg">
<path d="M21.3334 11.3549H2.06455L1.31055 13.4194V49.6439C1.31055 50.784 2.23492 51.7084 3.37505 51.7084H21.3334L23.742 49.548V14.452L21.3334 11.3549Z" fill="#5055A0"/>
<path d="M42.6667 51.6875H61.9356L64.0001 50.5807V13.4194C64.0001 12.2793 63.0757 11.3549 61.9356 11.3549H42.6667L40.2581 14.4522V49.5482L42.6667 51.6875Z" fill="#E5646E"/>
<path d="M63.9999 50.5807H41.061L42.6665 52.6452H61.9354C63.0755 52.6452 63.9999 51.7209 63.9999 50.5807Z" fill="#DB4655"/>
<path d="M2.0645 44.3872V11.3549C0.924375 11.3549 0 12.2792 0 13.4194V50.5807C0 51.7209 0.924375 52.6452 2.0645 52.6452H21.3334L22.9389 50.5807H8.25813C4.8375 50.5807 2.0645 47.8078 2.0645 44.3872Z" fill="#3F3F8F"/>
<path d="M23.4167 51.7084H41.0417L42.6667 50.5807V11.3549H21.3335V50.5807L23.4167 51.7084Z" fill="#F2F2F6"/>
<path d="M21.3335 50.5807H42.6667V52.6452H21.3335V50.5807Z" fill="#E1E1E6"/>
</svg>
