<svg width="64" height="64" viewBox="0 0 64 64" fill="none" xmlns="http://www.w3.org/2000/svg">
<g clip-path="url(#clip0)">
<path d="M61.9355 13.3748H15.125L13.6488 11.3547H9.06087L7.70837 13.3748H1.125V50.1217H61.9355L64 48.0572V43.4693L62.375 41.1873L64 38.8815V34.2937L62.375 31.9164L64 29.7059V25.1181L62.375 22.9998L64 20.5302V15.9424L61.9355 13.3748Z" fill="#F2F2F6"/>
<path d="M2.0645 44.3871V19.5L0 20.5304V25.1182L0.96875 25.9688V33.25L0 34.2939V38.8817L0.958375 39.8334V42.5834L0 43.4695V48.0574L0.859375 49.0156L3.269 48.0566C2.512 47.0298 2.0645 45.7607 2.0645 44.3871Z" fill="#E1E1E6"/>
<path d="M22.7096 20.5302H64V25.118H22.7096V20.5302Z" fill="#5055A0"/>
<path d="M0.916626 13.4192V19.3748L2.0645 20.5302H9.06087V11.3547H2.0645L0.916626 13.4192Z" fill="#5055A0"/>
<path d="M1 32.5L2.0645 34.2938H9.06087V25.1182H2.0645L1 26.7812V32.5Z" fill="#5055A0"/>
<path d="M22.7096 29.7061V25.1182H13.6487V34.2938H63.9999V29.7061H22.7096Z" fill="#5055A0"/>
<path d="M1.14587 40.062V42.2495L2.0645 43.469H64V38.8813H2.0645L1.14587 40.062Z" fill="#5055A0"/>
<path d="M3.26819 48.0569L4.00006 51.687H62.7501L64.0001 50.5801V48.0569H3.26819Z" fill="#5055A0"/>
<path d="M3.26813 48.0569H0V50.5801C0 51.7203 0.924375 52.6446 2.0645 52.6446H61.9355C63.0756 52.6446 64 51.7203 64 50.5801H8.25813C6.21313 50.5801 4.396 49.5848 3.26813 48.0569Z" fill="#3F3F8F"/>
<path d="M0 38.8812H2.0645V43.4691H0V38.8812Z" fill="#3F3F8F"/>
<path d="M61.9357 11.3547H13.6489V20.5303H22.7098V15.9426H64.0002V13.4193C64.0002 12.2789 63.0758 11.3547 61.9357 11.3547Z" fill="#5055A0"/>
<path d="M0 25.1182H2.0645V34.2938H0V25.1182Z" fill="#3F3F8F"/>
<path d="M2.0645 11.3547C0.924375 11.3547 0 12.2789 0 13.4192V20.5303H2.0645V11.3547Z" fill="#3F3F8F"/>
</g>
<defs>
<clipPath id="clip0">
<rect width="64" height="64" fill="white"/>
</clipPath>
</defs>
</svg>
