<svg width="64" height="64" viewBox="0 0 64 64" fill="none" xmlns="http://www.w3.org/2000/svg">
<path d="M61.9355 11.3549H2.06455L0.977173 12.625V49.3939C0.977173 50.5342 1.90155 51.4584 3.04167 51.4584H62.75L64 50.5808V13.4195C64 12.2792 63.0757 11.3549 61.9355 11.3549Z" fill="#E5646E"/>
<path d="M2.0645 44.3872V11.3549C0.924375 11.3549 0 12.2792 0 13.4194V50.5807C0 51.7209 0.924375 52.6452 2.0645 52.6452H61.9355C63.0756 52.6452 64 51.7208 64 50.5807H8.25813C4.8375 50.5807 2.0645 47.8078 2.0645 44.3872Z" fill="#DB4655"/>
<path d="M42.5786 30.4521C40.3694 26.1807 33.8358 25.2332 31.1439 30.2344C31.2867 29.3499 31.6437 28.2301 32.4223 26.8922C33.5784 24.906 32.0562 24.1299 31.9412 22.5834C31.8859 21.8409 31.9856 21.2281 32.1118 20.7784C32.2211 20.3894 31.8548 20.0274 31.4692 20.1479C27.1362 21.502 25.0362 27.1665 28.5529 30.7569C27.9438 30.2669 27.2778 29.59 26.5956 28.6351C25.2595 26.7651 23.9266 27.8342 22.4693 27.3039C21.7698 27.0492 21.252 26.7069 20.8938 26.407C20.584 26.1475 20.1035 26.333 20.055 26.7342C19.5081 31.2561 23.8416 35.5092 28.5784 33.7305C27.9424 34.1761 27.1151 34.624 26.0223 35.0124C23.8568 35.7821 24.5177 37.3579 23.6067 38.6129C23.1691 39.2156 22.6971 39.6193 22.3101 39.8811C21.976 40.1071 22.0207 40.6195 22.3923 40.7765C26.4881 42.5058 31.6162 39.6928 31.4828 34.8674C31.6158 35.5502 31.6936 36.3605 31.6639 37.3305C31.5938 39.6277 33.3019 39.5848 34.1399 40.8896C34.5418 41.5153 34.7463 42.101 34.8496 42.5563C34.9393 42.9521 35.4363 43.0935 35.7189 42.8023C39.0668 39.3532 37.8941 32.8605 32.3033 31.8909C33.2319 31.8374 34.4882 31.9654 36.1023 32.5609C38.2586 33.3565 38.7599 31.7231 40.2633 31.3426C40.9843 31.1601 41.6045 31.1521 42.0692 31.1987C42.4732 31.2389 42.7649 30.8125 42.5786 30.4521ZM30.2887 33.6256C29.7217 33.6256 29.2619 33.166 29.2619 32.5989C29.2619 32.0319 29.7216 31.5721 30.2887 31.5721C30.8558 31.5721 31.3154 32.0317 31.3154 32.5989C31.3154 33.166 30.8558 33.6256 30.2887 33.6256Z" fill="white"/>
</svg>
