<svg width="64" height="64" viewBox="0 0 64 64" fill="none" xmlns="http://www.w3.org/2000/svg">
<path d="M64 25.1182V13.4194C64 12.2791 63.0756 11.3549 61.9355 11.3549H2.0645L0.958374 13.4194V25.1182L3.09637 27.871H60.9034L64 25.1182Z" fill="#FFC269"/>
<path d="M0 13.4194V25.1182L2.0645 26.9536V11.3549C0.924375 11.3549 0 12.2791 0 13.4194Z" fill="#FFA95F"/>
<path d="M0.977173 38.8818V49.6855C0.977173 50.8258 1.90155 51.75 3.04167 51.75H61.9355L64 50.5807V38.8818L60.9038 36.129H3.0968L0.977173 38.8818Z" fill="#95CC81"/>
<path d="M2.0645 44.3871V37.0466L0 38.8818V50.5806C0 51.7209 0.924375 52.6451 2.0645 52.6451H61.9355C63.0756 52.6451 64 51.7209 64 50.5806H8.25813C4.8375 50.5806 2.0645 47.8078 2.0645 44.3871Z" fill="#7DBD80"/>
<path d="M1.08337 37.1251L2.0645 38.8817H64V25.1183H2.0645L1.08337 27.2917V37.1251Z" fill="#F2F2F6"/>
<path d="M0 25.1183H2.0645V38.8817H0V25.1183Z" fill="#E1E1E6"/>
<path d="M35.8255 29.6338C35.4581 29.042 34.9576 28.5415 34.3657 28.1741L33.0322 29.5077V27.6208C32.7005 27.5426 32.3552 27.5 32 27.5C31.6448 27.5 31.2995 27.5426 30.9678 27.6209V29.5079L29.6343 28.1742C29.0424 28.5415 28.5419 29.0421 28.1745 29.6339L29.5082 30.9679H27.6208C27.5426 31.2995 27.5 31.6448 27.5 32C27.5 32.3552 27.5426 32.7005 27.6209 33.0322H29.5084L28.1746 34.3662C28.542 34.958 29.0425 35.4585 29.6344 35.8259L30.9679 34.4922V36.3792C31.2996 36.4574 31.6449 36.5001 32.0001 36.5001C32.3554 36.5001 32.7006 36.4575 33.0324 36.3792V34.4922L34.3659 35.8259C34.9578 35.4586 35.4583 34.9581 35.8256 34.3662L34.4919 33.0322H36.3794C36.4575 32.7005 36.5003 32.3552 36.5003 32C36.5003 31.6448 36.4576 31.2995 36.3794 30.9678H34.4919L35.8255 29.6338Z" fill="#5055A0"/>
<path d="M31.9998 38.1935C28.5844 38.1935 25.8063 35.4153 25.8063 32C25.8063 28.5848 28.5845 25.8065 31.9998 25.8065C35.415 25.8065 38.1933 28.5848 38.1933 32C38.1933 35.4153 35.4151 38.1935 31.9998 38.1935ZM31.9998 27.871C29.7225 27.871 27.8708 29.7234 27.8708 32C27.8708 34.2766 29.7226 36.129 31.9998 36.129C34.2769 36.129 36.1288 34.2766 36.1288 32C36.1288 29.7234 34.277 27.871 31.9998 27.871Z" fill="#3F3F8F"/>
</svg>
