<svg width="64" height="64" viewBox="0 0 64 64" fill="none" xmlns="http://www.w3.org/2000/svg">
<g clip-path="url(#clip0)">
<path d="M61.9356 29.9353H3.12505C1.9848 29.9353 1.06055 30.8597 1.06055 31.9998V49.602C1.06055 50.7422 1.98492 51.6665 3.12505 51.6665H61.9356L64.0001 50.5805V31.9998C64.0001 30.8596 63.0757 29.9353 61.9356 29.9353Z" fill="#F2F2F6"/>
<path d="M2.0645 44.3871V30.9375L0 32V50.5806C0 51.7209 0.924375 52.6451 2.0645 52.6451H61.9355C63.0756 52.6451 64 51.7207 64 50.5806H8.25813C4.8375 50.5806 2.0645 47.8077 2.0645 44.3871Z" fill="#E1E1E6"/>
<path d="M61.9355 11.3547H2.0645L1 13.4192V29.7498L2.0645 31.9998H64V13.4192C64 12.2789 63.0756 11.3547 61.9355 11.3547Z" fill="#DB4655"/>
<path d="M0 13.4192V31.9998H2.0645V11.3547C0.924375 11.3547 0 12.2789 0 13.4192Z" fill="#BD4150"/>
</g>
<defs>
<clipPath id="clip0">
<rect width="64" height="64" fill="white"/>
</clipPath>
</defs>
</svg>
