<svg width="64" height="64" viewBox="0 0 64 64" fill="none" xmlns="http://www.w3.org/2000/svg">
<g clip-path="url(#clip0)">
<path d="M63.9822 24.7738L0.750122 22.1246V39.5421L62.2533 40.1255L63.9822 38.1939V24.7738Z" fill="#F2F2F6"/>
<path d="M0 24.7738V38.1938L2.0646 39.3871V23.6811L0 24.7738Z" fill="#E1E1E6"/>
<path d="M63.9818 40.2586C62.7114 39.688 62.378 39.7297 60.4281 40.2586C58.7122 40.724 58.6502 39.2263 56.8723 39.2263C55.0961 39.2263 55.0961 40.2586 53.3198 40.2586C51.5426 40.2586 51.5426 39.2263 49.7653 39.2263C47.9901 39.2263 47.9901 40.2586 46.215 40.2586C44.438 40.2586 44.438 39.2263 42.6607 39.2263C40.8857 39.2263 40.8857 40.2586 39.1106 40.2586C37.3331 40.2586 37.3331 39.2263 35.5556 39.2263C33.7787 39.2263 33.7787 40.2586 32.0017 40.2586H31.9805C30.2036 40.2586 30.2036 39.2263 28.4268 39.2263C26.6488 39.2263 26.6488 40.2586 24.871 40.2586C23.0948 40.2586 23.0948 39.2263 21.3184 39.2263C19.5412 39.2263 19.5412 40.2586 17.764 40.2586C15.9888 40.2586 15.9888 39.2263 14.2137 39.2263C12.4366 39.2263 12.4366 40.2586 10.6594 40.2586C8.8843 40.2586 8.8843 39.2263 7.10922 39.2263C5.33175 39.2263 5.33175 40.2586 3.55429 40.2586C1.77732 40.2586 2.83788 39.2263 1.06091 39.2263V49.7282C1.06091 50.8685 1.98533 51.7928 3.12552 51.7928H61.9357C61.9357 51.7928 64.0036 50.5818 64.0003 50.5785L63.9818 40.2586Z" fill="#E5646E"/>
<path d="M35.8761 28.6158C35.499 28.1843 34.8458 28.142 34.4194 28.518C33.99 28.894 33.9466 29.5463 34.3216 29.9747C34.6765 30.38 35.0989 31.0604 35.0989 32.0001C35.0989 33.3441 34.2333 34.4793 33.0343 34.9068V27.8709C33.0343 27.3002 32.5725 26.8386 32.002 26.8386C31.4314 26.8386 30.9697 27.3003 30.9697 27.8709V34.9067C29.7706 34.4792 28.9051 33.344 28.9051 32.0001C28.9051 31.0605 29.3275 30.38 29.6824 29.9747C30.0574 29.5463 30.014 28.894 29.5846 28.518C29.1572 28.142 28.5039 28.1844 28.1279 28.6158C27.2982 29.5645 26.8406 30.7661 26.8406 32.0001C26.8406 34.846 29.1562 37.1616 32.0021 37.1616C34.848 37.1616 37.1636 34.846 37.1636 32.0001C37.1634 30.7661 36.7057 29.5645 35.8761 28.6158Z" fill="#E5646E"/>
<path d="M63.982 22.7092C63.982 22.7092 62.2052 24.7738 60.4284 24.7738C58.6504 24.7738 58.6504 23.7415 56.8726 23.7415C55.0964 23.7415 55.0963 24.7738 53.32 24.7738C51.5428 24.7738 51.5428 23.7415 49.7656 23.7415C47.9904 23.7415 47.9904 24.7738 46.2153 24.7738C44.4382 24.7738 44.4382 23.7415 42.661 23.7415C40.8859 23.7415 40.8859 24.7738 39.1108 24.7738C37.3333 24.7738 37.3333 23.7415 35.5559 23.7415C33.7789 23.7415 33.7789 24.7738 32.0019 24.7738H31.9807C30.2038 24.7738 30.2038 23.7415 28.427 23.7415C26.649 23.7415 26.649 24.7738 24.8712 24.7738C23.095 24.7738 23.095 23.7415 21.3186 23.7415C19.5414 23.7415 19.5414 24.7738 17.7642 24.7738C15.989 24.7738 15.989 23.7415 14.2139 23.7415C12.4368 23.7415 12.4368 24.7738 10.6596 24.7738C8.8845 24.7738 8.8845 23.7415 7.10941 23.7415C5.33195 23.7415 5.33195 24.7738 3.55448 24.7738C1.77752 24.7738 2.93383 23.7415 1.15686 23.7415V13.4184L2.06516 11.3538H61.9356C63.0773 11.3538 64.0022 12.2803 64.0002 13.422L63.982 22.7092Z" fill="#95CC81"/>
<path d="M63.9996 50.5817H8.25854C4.83775 50.5817 2.06473 47.8087 2.06473 44.3879V39.9028C1.50245 39.6041 0 40.2585 0 40.2585V50.5817C0 51.7219 0.924422 52.6463 2.0646 52.6463H61.9354C63.0758 52.6463 63.9998 51.7216 63.9996 50.5817Z" fill="#DB4655"/>
<path d="M2.0646 11.3559C0.924422 11.3559 0 12.2802 0 13.4205V22.7114L2.0646 24.4201V11.3559Z" fill="#7DBD80"/>
<path d="M61.6867 23.3655C61.2965 23.5913 61.0384 23.7415 60.4286 23.7415C59.8177 23.7415 59.5596 23.5913 59.1684 23.3645C58.6654 23.0731 58.0394 22.7092 56.8729 22.7092C55.7065 22.7092 55.0805 23.0731 54.5775 23.3655C54.1883 23.5913 53.9303 23.7415 53.3203 23.7415C52.7094 23.7415 52.4524 23.5913 52.0611 23.3655C51.5581 23.0731 50.932 22.7092 49.7656 22.7092C48.5992 22.7092 47.9741 23.0731 47.4711 23.3655C47.082 23.5924 46.8239 23.7415 46.215 23.7415C45.6041 23.7415 45.347 23.5913 44.9558 23.3655C44.4528 23.0731 43.8268 22.7092 42.6604 22.7092C41.4949 22.7092 40.8699 23.0731 40.3669 23.3655C39.9777 23.5924 39.7197 23.7415 39.1108 23.7415C38.4999 23.7415 38.2429 23.5913 37.8516 23.3655C37.3486 23.0731 36.7226 22.7092 35.5551 22.7092C34.3887 22.7092 33.7627 23.0731 33.2606 23.3645C32.8705 23.5914 32.6125 23.7415 31.9803 23.7415C31.3694 23.7415 31.1113 23.5913 30.7211 23.3645C30.2191 23.0731 29.5931 22.7092 28.4266 22.7092C27.2592 22.7092 26.6332 23.0731 26.1301 23.3655C25.739 23.5913 25.4819 23.7415 24.871 23.7415C24.261 23.7415 24.0029 23.5913 23.6139 23.3655C23.1109 23.0731 22.4848 22.7092 21.3184 22.7092C20.152 22.7092 19.5259 23.0731 19.0229 23.3655C18.6318 23.5913 18.3746 23.7415 17.7637 23.7415C17.1548 23.7415 16.8967 23.5923 16.5075 23.3655C16.0045 23.0731 15.3795 22.7092 14.213 22.7092C13.0466 22.7092 12.4206 23.0731 11.9175 23.3655C11.5264 23.5913 11.2693 23.7415 10.6584 23.7415C10.0494 23.7415 9.79243 23.5923 9.40329 23.3655C8.90026 23.0731 8.27523 22.7092 7.1088 22.7092C5.94236 22.7092 5.31633 23.0731 4.81331 23.3645C4.42216 23.5914 4.16402 23.7415 3.55312 23.7415C2.94321 23.7415 2.68507 23.5913 2.29493 23.3655C2.22093 23.3225 2.1448 23.282 2.06404 23.2373L1.47864 24.2392L2.06404 25.5479C2.44544 25.6926 2.91946 25.8061 3.55299 25.8061C4.72043 25.8061 5.34646 25.4422 5.84948 25.1498C6.24063 24.9241 6.49777 24.7738 7.10867 24.7738C7.71758 24.7738 7.97559 24.9231 8.36474 25.1498C8.86776 25.4422 9.49279 25.8061 10.6582 25.8061C11.8247 25.8061 12.4507 25.4422 12.9537 25.1498C13.3449 24.9241 13.602 24.7738 14.2129 24.7738C14.8218 24.7738 15.08 24.9231 15.469 25.1498C15.972 25.4422 16.597 25.8061 17.7635 25.8061C18.9299 25.8061 19.5559 25.4422 20.059 25.1498C20.4501 24.9241 20.7072 24.7738 21.3181 24.7738C21.9281 24.7738 22.1862 24.9241 22.5752 25.1498C23.0782 25.4422 23.7043 25.8061 24.8707 25.8061C26.0371 25.8061 26.6632 25.4422 27.1662 25.1508C27.5573 24.924 27.8155 24.7738 28.4264 24.7738C29.0363 24.7738 29.2943 24.9241 29.6844 25.1498C30.1865 25.4422 30.8125 25.8061 32.0011 25.8061C33.1685 25.8061 33.7935 25.4422 34.2966 25.1498C34.6867 24.9241 34.9448 24.7738 35.5547 24.7738C36.1656 24.7738 36.4238 24.9241 36.8149 25.1508C37.318 25.4422 37.944 25.8061 39.1104 25.8061C40.2769 25.8061 40.9019 25.4422 41.4049 25.1498C41.7941 24.923 42.0511 24.7738 42.66 24.7738C43.2709 24.7738 43.528 24.9241 43.9192 25.1498C44.4222 25.4422 45.0482 25.8061 46.2147 25.8061C47.3811 25.8061 48.0061 25.4422 48.5092 25.1498C48.8983 24.923 49.1563 24.7738 49.7652 24.7738C50.3761 24.7738 50.6331 24.9241 51.0244 25.1498C51.5274 25.4422 52.1535 25.8061 53.3199 25.8061C54.4863 25.8061 55.1124 25.4422 55.6154 25.1498C56.0045 24.9241 56.2625 24.7738 56.8724 24.7738C57.4834 24.7738 57.7405 24.9241 58.1316 25.1498C58.6347 25.4422 59.2607 25.8061 60.4281 25.8061C61.5946 25.8061 62.2206 25.4422 62.7226 25.1508C63.1128 24.924 63.3709 24.7738 63.9818 24.7738V22.7092C62.8148 22.7092 62.1887 23.0732 61.6867 23.3655Z" fill="#C4DFBC"/>
<path d="M61.6865 38.85C61.2963 39.0758 61.0382 39.226 60.4284 39.226C59.8175 39.226 59.5594 39.0758 59.1682 38.849C58.6652 38.5576 58.0392 38.1937 56.8727 38.1937C55.7063 38.1937 55.0802 38.5576 54.5772 38.85C54.1881 39.0758 53.9301 39.226 53.32 39.226C52.7091 39.226 52.4521 39.0758 52.0609 38.85C51.5578 38.5576 50.9318 38.1937 49.7654 38.1937C48.5989 38.1937 47.9739 38.5576 47.4709 38.85C47.0817 39.0769 46.8237 39.226 46.2148 39.226C45.6039 39.226 45.3468 39.0758 44.9556 38.85C44.4526 38.5576 43.8266 38.1937 42.6601 38.1937C41.4947 38.1937 40.8697 38.5576 40.3666 38.85C39.9775 39.0769 39.7195 39.226 39.1106 39.226C38.4997 39.226 38.2426 39.0758 37.8514 38.85C37.3484 38.5576 36.7223 38.1937 35.5549 38.1937C34.3885 38.1937 33.7624 38.5576 33.2604 38.849C32.8703 39.0759 32.6122 39.226 31.9801 39.226C31.3692 39.226 31.111 39.0758 30.7209 38.849C30.2189 38.5576 29.5928 38.1937 28.4264 38.1937C27.259 38.1937 26.6329 38.5576 26.1299 38.85C25.7388 39.0758 25.4816 39.226 24.8707 39.226C24.2608 39.226 24.0027 39.0758 23.6137 38.85C23.1106 38.5576 22.4846 38.1937 21.3182 38.1937C20.1517 38.1937 19.5257 38.5576 19.0227 38.85C18.6315 39.0758 18.3744 39.226 17.7635 39.226C17.1546 39.226 16.8964 39.0768 16.5073 38.85C16.0043 38.5576 15.3792 38.1937 14.2128 38.1937C13.0464 38.1937 12.4203 38.5576 11.9173 38.85C11.5262 39.0758 11.269 39.226 10.6581 39.226C10.0492 39.226 9.7922 39.0768 9.40306 38.85C8.90003 38.5576 8.275 38.1937 7.10857 38.1937C5.94213 38.1937 5.3161 38.5576 4.81307 38.849C4.42193 39.0759 4.16379 39.226 3.55289 39.226C2.94298 39.226 2.68484 39.0758 2.2947 38.85C2.22057 38.8069 2.14381 38.7623 2.06306 38.7175L0.937378 39.5419L2.06494 41.0388C2.44633 41.1834 2.92023 41.2906 3.55339 41.2906C4.72082 41.2906 5.34685 40.9268 5.84988 40.6344C6.24102 40.4086 6.49816 40.2583 7.10907 40.2583C7.71797 40.2583 7.97599 40.4076 8.36513 40.6344C8.86816 40.9268 9.49319 41.2906 10.6586 41.2906C11.8251 41.2906 12.4511 40.9268 12.9541 40.6344C13.3453 40.4086 13.6024 40.2583 14.2133 40.2583C14.8222 40.2583 15.0803 40.4076 15.4694 40.6344C15.9724 40.9268 16.5974 41.2906 17.7639 41.2906C18.9303 41.2906 19.5563 40.9268 20.0593 40.6344C20.4505 40.4086 20.7076 40.2583 21.3185 40.2583C21.9284 40.2583 22.1866 40.4086 22.5756 40.6344C23.0786 40.9268 23.7047 41.2906 24.8711 41.2906C26.0375 41.2906 26.6636 40.9268 27.1666 40.6354C27.5577 40.4085 27.8159 40.2583 28.4268 40.2583C29.0367 40.2583 29.2947 40.4086 29.6848 40.6344C30.1869 40.9268 30.8129 41.2906 32.0015 41.2906C33.1689 41.2906 33.7939 40.9268 34.2969 40.6344C34.6871 40.4086 34.9452 40.2583 35.5551 40.2583C36.166 40.2583 36.4242 40.4086 36.8153 40.6354C37.3184 40.9268 37.9444 41.2906 39.1108 41.2906C40.2773 41.2906 40.9023 40.9268 41.4053 40.6344C41.7945 40.4075 42.0515 40.2583 42.6604 40.2583C43.2713 40.2583 43.5284 40.4086 43.9196 40.6344C44.4226 40.9268 45.0486 41.2906 46.2151 41.2906C47.3815 41.2906 48.0065 40.9268 48.5095 40.6344C48.8987 40.4075 49.1567 40.2583 49.7656 40.2583C50.3765 40.2583 50.6335 40.4086 51.0248 40.6344C51.5278 40.9268 52.1539 41.2906 53.3203 41.2906C54.4867 41.2906 55.1128 40.9268 55.6158 40.6344C56.0049 40.4086 56.2629 40.2583 56.8728 40.2583C57.4837 40.2583 57.7409 40.4086 58.132 40.6344C58.6351 40.9268 59.2611 41.2906 60.4285 41.2906C61.595 41.2906 62.221 40.9268 62.723 40.6354C63.1132 40.4085 63.3713 40.2583 63.9822 40.2583V38.1937C62.8145 38.1937 62.1885 38.5577 61.6865 38.85Z" fill="#ECABB2"/>
<path d="M2.0646 25.548V23.2374C1.59596 22.9766 1.00168 22.7094 0 22.7094V24.7739C0.610906 24.7739 0.869044 24.9242 1.25919 25.151C1.48658 25.2828 1.74771 25.4269 2.0646 25.548Z" fill="#ACD59E"/>
<path d="M2.0646 41.0402V38.7177C1.59596 38.457 1.00168 38.194 0 38.194V40.2586C0.610906 40.2586 0.869044 40.4088 1.25919 40.6356C1.48658 40.7675 1.74771 40.919 2.0646 41.0402Z" fill="#E88790"/>
</g>
<defs>
<clipPath id="clip0">
<rect width="64" height="64" fill="white"/>
</clipPath>
</defs>
</svg>
