<svg width="64" height="64" viewBox="0 0 64 64" fill="none" xmlns="http://www.w3.org/2000/svg">
<g clip-path="url(#clip0)">
<path d="M61.9355 17.5483H1.25V46.4516H61.9355C63.0758 46.4516 64 45.5272 64 44.3871V19.6128C64 18.4727 63.0756 17.5483 61.9355 17.5483Z" fill="#F2F2F6"/>
<path d="M0 19.6129V44.3871L1.08337 45.25L2.0645 44.3871V18.375L0 19.6129Z" fill="#E1E1E6"/>
<path d="M38.5562 32L40.9175 27.9102C41.102 27.5907 41.102 27.1975 40.9175 26.878C40.733 26.5585 40.3922 26.3618 40.0233 26.3618H35.301L32.8942 22.1935C32.5252 21.5543 31.4748 21.5543 31.106 22.1935L28.6992 26.3618H23.9768C23.6078 26.3618 23.2672 26.5585 23.0827 26.878C22.8982 27.1975 22.8982 27.5907 23.0827 27.9102L25.444 32L23.0827 36.0897C22.8982 36.4092 22.8982 36.8025 23.0827 37.122C23.2672 37.4415 23.608 37.6381 23.9768 37.6381H28.6992L31.106 41.8065C31.2905 42.126 31.6312 42.3226 32.0001 42.3226C32.3691 42.3226 32.7097 42.126 32.8942 41.8065L35.301 37.6381H40.0233C40.3923 37.6381 40.733 37.4415 40.9175 37.122C41.102 36.8025 41.102 36.4092 40.9175 36.0897L38.5562 32ZM38.235 28.4263L37.364 29.9351L36.493 28.4263H38.235ZM36.1718 32L34.1086 35.5736H29.8915L27.8283 32L29.8916 28.4263H34.1087L36.1718 32ZM32.0001 24.7742L32.9167 26.362H31.0835L32.0001 24.7742ZM25.7652 28.4263H27.5072L26.6362 29.9351L25.7652 28.4263ZM25.7652 35.5736L26.6362 34.0648L27.5072 35.5736H25.7652ZM32.0001 39.2257L31.0835 37.638H32.9167L32.0001 39.2257ZM36.493 35.5736L37.364 34.0648L38.235 35.5736H36.493Z" fill="#5055A0"/>
<path d="M64 13.4194C64 12.2791 63.0756 11.3549 61.9355 11.3549H2.0645L0.791626 13.4194L2.0645 19.6129H64V13.4194Z" fill="#5055A0"/>
<path d="M0 13.4194V19.6129H2.0645V11.3549C0.924375 11.3549 0 12.2791 0 13.4194Z" fill="#3F3F8F"/>
<path d="M2.06455 44.3871L1.31055 49.6438C1.31055 50.784 2.23492 51.7083 3.37505 51.7083H61.9355L64 50.5806V44.3871H2.06455Z" fill="#5055A0"/>
<path d="M61.9355 52.6451C63.0756 52.6451 64 51.7207 64 50.5806H8.25813C4.8375 50.5806 2.06463 47.8077 2.06463 44.3871H0V50.5806C0 51.7207 0.924375 52.6451 2.0645 52.6451H61.9355Z" fill="#3F3F8F"/>
</g>
<defs>
<clipPath id="clip0">
<rect width="64" height="64" fill="white"/>
</clipPath>
</defs>
</svg>
