<svg width="64" height="64" viewBox="0 0 64 64" fill="none" xmlns="http://www.w3.org/2000/svg">
<path d="M21.3337 11.3549H2.06479L1.31079 13.4194V49.6439C1.31079 50.784 2.23517 51.7084 3.37529 51.7084H21.3337L23.7423 49.548V14.452L21.3337 11.3549Z" fill="#95CC81"/>
<path d="M42.6666 51.6875H61.9354L63.9999 50.5807V13.4194C63.9999 12.2793 63.0756 11.3549 61.9354 11.3549H42.6666L40.2579 14.4522V49.5482L42.6666 51.6875Z" fill="#E5646E"/>
<path d="M63.9999 50.5807H41.061L42.6665 52.6452H61.9354C63.0755 52.6452 63.9999 51.7209 63.9999 50.5807Z" fill="#DB4655"/>
<path d="M2.0645 44.3872V11.3549C0.924375 11.3549 0 12.2792 0 13.4194V50.5807C0 51.7209 0.924375 52.6452 2.0645 52.6452H21.3334L22.9389 50.5807H8.25813C4.8375 50.5807 2.0645 47.8078 2.0645 44.3872Z" fill="#7DBD80"/>
<path d="M23.4166 51.7084H41.0416L42.6666 50.5807V11.3549H21.3334V50.5807L23.4166 51.7084Z" fill="#F2F2F6"/>
<path d="M21.3334 50.5807H42.6666V52.6452H21.3334V50.5807Z" fill="#E1E1E6"/>
</svg>
