<svg width="64" height="64" viewBox="0 0 64 64" fill="none" xmlns="http://www.w3.org/2000/svg">
<path d="M61.9355 11.3549H2.06443L0.977051 12.625V49.3939C0.977051 50.5342 1.90143 51.4584 3.04155 51.4584H62.75L64 50.5808V13.4195C64 12.2792 63.0756 11.3549 61.9355 11.3549Z" fill="#F2F2F6"/>
<path d="M2.0645 44.3872V11.3549C0.924375 11.3549 0 12.2792 0 13.4194V50.5807C0 51.7209 0.924375 52.6452 2.0645 52.6452H61.9355C63.0756 52.6452 64 51.7208 64 50.5807H8.25813C4.8375 50.5807 2.0645 47.8078 2.0645 44.3872Z" fill="#E1E1E6"/>
<path d="M32.0002 42.3227C37.7013 42.3227 42.3229 37.7011 42.3229 32.0001C42.3229 26.299 37.7013 21.6774 32.0002 21.6774C26.2992 21.6774 21.6776 26.299 21.6776 32.0001C21.6776 37.7011 26.2992 42.3227 32.0002 42.3227Z" fill="#E5646E"/>
</svg>
