<svg width="64" height="64" viewBox="0 0 64 64" fill="none" xmlns="http://www.w3.org/2000/svg">
<path d="M21.3333 11.3549H2.06442L1.31042 13.4194V49.6439C1.31042 50.784 2.2348 51.7084 3.37492 51.7084H21.3333L23.7419 49.548V14.452L21.3333 11.3549Z" fill="#95CC81"/>
<path d="M42.6667 51.6875H61.9356L64.0001 50.5807V13.4194C64.0001 12.2793 63.0757 11.3549 61.9356 11.3549H42.6667L40.2581 14.4522V49.5482L42.6667 51.6875Z" fill="#E5646E"/>
<path d="M64 50.5807H41.0612L42.6667 52.6452H61.9355C63.0757 52.6452 64 51.7209 64 50.5807Z" fill="#DB4655"/>
<path d="M2.0645 44.3872V11.3549C0.924375 11.3549 0 12.2792 0 13.4194V50.5807C0 51.7209 0.924375 52.6452 2.0645 52.6452H21.3334L22.9389 50.5807H8.25813C4.8375 50.5807 2.0645 47.8078 2.0645 44.3872Z" fill="#7DBD80"/>
<path d="M23.4166 51.7084H41.0416L42.6666 50.5807V11.3549H21.3334V50.5807L23.4166 51.7084Z" fill="#F2F2F6"/>
<path d="M21.3334 50.5807H42.6666V52.6452H21.3334V50.5807Z" fill="#E1E1E6"/>
<path d="M32 39.226C28.0162 39.226 24.7743 35.9846 24.7743 32.0002C24.7743 31.4302 25.236 30.968 25.8065 30.968C26.377 30.968 26.8388 31.4302 26.8388 32.0002C26.8388 34.846 29.1543 37.1615 32 37.1615C34.8458 37.1615 37.1613 34.846 37.1613 32.0002C37.1613 31.4302 37.623 30.968 38.1935 30.968C38.7642 30.968 39.2258 31.4302 39.2258 32.0002C39.2258 35.9846 35.9839 39.226 32 39.226Z" fill="#95CC81"/>
<path d="M29.9462 26.8388H30.9677C32.6779 26.8388 34.0644 28.2253 34.0644 29.9356V33.0323L32.6212 34.0646C31.08 34.0646 29.7734 32.9313 29.5555 31.4057L29.9462 26.8388Z" fill="#966A5B"/>
<path d="M34.0645 33.0323H32.6214C31.5939 33.0323 30.7228 32.2768 30.5775 31.2597L29.9461 26.8388H29.0578C28.4305 26.8388 27.9481 27.3937 28.0355 28.0149L28.5331 31.5515C28.8214 33.5727 30.5795 35.0969 32.6209 35.0969H33.0321C33.6023 35.0969 34.0644 34.6348 34.0644 34.0647V33.0323H34.0645Z" fill="#785353"/>
</svg>
