<svg width="64" height="64" viewBox="0 0 64 64" fill="none" xmlns="http://www.w3.org/2000/svg">
<path d="M61.9355 11.3549H2.06455L0.977173 12.625V49.3939C0.977173 50.5341 1.90155 51.4584 3.04167 51.4584H62.75L64 50.5807V13.4195C64 12.2791 63.0757 11.3549 61.9355 11.3549Z" fill="#E5646E"/>
<path d="M2.0645 44.3871V11.3549C0.924375 11.3549 0 12.2791 0 13.4194V50.5806C0 51.7209 0.924375 52.6451 2.0645 52.6451H61.9355C63.0756 52.6451 64 51.7207 64 50.5806H8.25813C4.8375 50.5806 2.0645 47.8077 2.0645 44.3871Z" fill="#DB4655"/>
<path d="M46.401 28.1421C46.2629 27.7167 45.8668 27.4283 45.4191 27.4283C45.4181 27.4283 45.4181 27.4283 45.4171 27.4283L35.8955 27.4442L32.9826 18.3941C32.8455 17.9677 32.4484 17.6783 31.9998 17.6783C31.5511 17.6783 31.154 17.9677 31.0169 18.3941L28.1015 27.4546L18.5834 27.4283C18.5824 27.4283 18.5814 27.4283 18.5804 27.4283C18.1328 27.4283 17.7366 27.7166 17.5985 28.1421C17.4604 28.5675 17.6126 29.0352 17.9755 29.2973L25.691 34.871L22.7255 43.9142C22.5854 44.3396 22.7366 44.8073 23.0995 45.0705C23.4634 45.3356 23.9534 45.3326 24.3153 45.0695L31.9998 39.4536L39.6843 45.0695C39.8658 45.2015 40.0794 45.2681 40.2931 45.2681C40.5059 45.2681 40.7185 45.2026 40.9 45.0705C41.2629 44.8073 41.4141 44.3396 41.274 43.9142L38.3083 34.8708L46.024 29.2972C46.3869 29.0352 46.5391 28.5685 46.401 28.1421ZM31.9998 36.8992L28.1208 34.0817L29.6026 29.5212H34.397L35.8789 34.0817L31.9998 36.8992ZM31.9998 22.0796L33.73 27.4566H30.2695L31.9998 22.0796ZM27.433 29.5173L26.3633 32.8095L21.7841 29.5021L27.433 29.5173ZM27.4465 36.1432L30.247 38.1776L25.6864 41.5101L27.4465 36.1432ZM38.3133 41.5101L33.7526 38.1776L36.5531 36.1432L38.3133 41.5101ZM37.6363 32.8092L36.5634 29.5077L42.2195 29.498L37.6363 32.8092Z" fill="#95CC81"/>
</svg>
