<svg width="64" height="64" viewBox="0 0 64 64" fill="none" xmlns="http://www.w3.org/2000/svg">
<path d="M64 25.1183V13.4194C64 12.2792 63.0756 11.3549 61.9355 11.3549H2.0645L0.958374 13.4194V25.1183L3.09637 27.871H60.9034L64 25.1183Z" fill="#E5646E"/>
<path d="M0 13.4194V25.1183L2.0645 26.9537V11.3549C0.924375 11.3549 0 12.2792 0 13.4194Z" fill="#DB4655"/>
<path d="M0.977173 38.8819V49.6857C0.977173 50.8259 1.90155 51.7502 3.04167 51.7502H61.9355L64 50.5808V38.8819L60.9038 36.1292H3.0968L0.977173 38.8819Z" fill="#5055A0"/>
<path d="M2.0645 44.3871V37.0466L0 38.8817V50.5806C0 51.7208 0.924375 52.6451 2.0645 52.6451H61.9355C63.0756 52.6451 64 51.7208 64 50.5806H8.25813C4.8375 50.5806 2.0645 47.8077 2.0645 44.3871Z" fill="#3F3F8F"/>
<path d="M1.08337 37.1249L2.0645 38.8816H64V25.1182H2.0645L1.08337 27.2915V37.1249Z" fill="#F2F2F6"/>
<path d="M0 25.1182H2.0645V38.8816H0V25.1182Z" fill="#E1E1E6"/>
</svg>
