<svg width="64" height="64" viewBox="0 0 64 64" fill="none" xmlns="http://www.w3.org/2000/svg">
<g clip-path="url(#clip0)">
<path d="M61.9356 11.3549H26.8388L22.8334 14.6668L18.5808 11.3549H2.06455L1.31055 13.4194V49.4772C1.31055 50.6174 2.23492 51.5417 3.37505 51.5417H61.9356L64.0001 50.5807V36.129L61.7917 32.0417L64.0001 27.871V13.4194C64.0001 12.2792 63.0757 11.3549 61.9356 11.3549Z" fill="#E5646E"/>
<path d="M2.0645 44.3872V11.3549C0.924375 11.3549 0 12.2792 0 13.4194V27.871L1.0625 29.125V35.3125L0 36.129V50.5807C0 51.7209 0.924375 52.6452 2.0645 52.6452H18.5806L19.625 51.4688H25.8438L26.8388 52.6452H61.9355C63.0756 52.6452 64 51.7208 64 50.5807H8.25813C4.8375 50.5807 2.0645 47.8078 2.0645 44.3872Z" fill="#DB4655"/>
<path d="M64 27.871H26.8388V11.3549H24.7743L22.875 13.0834L20.6451 11.3549H18.5806V27.871H2.0645L1.09375 29.125V35.1875L2.0645 36.129H18.5806V50.5807L19.6562 51.4889H25.9375L26.8388 50.5807V36.129H64V34.0645L62.9062 32.0938L64 29.9355V27.871Z" fill="#F2F2F6"/>
<path d="M0 36.129H2.0645V27.871H0V29.9355L1.03225 32L0 34.0645V36.129Z" fill="#E1E1E6"/>
<path d="M26.8386 52.6452H24.7741L22.7498 51.6563L20.6449 52.6452H18.5804V50.5807H26.8386V52.6452Z" fill="#E1E1E6"/>
<path d="M64 29.9355H24.7743V11.3549H20.6451V29.9355H2.0645L1.21875 30.7188V33.2188L2.0645 34.0645H20.6451V50.5807L22.7096 51.6129L24.7743 50.5807V34.0645H64V29.9355Z" fill="#5055A0"/>
<path d="M0 29.9354H2.0645V34.0645H0V29.9354Z" fill="#3F3F8F"/>
<path d="M20.6448 50.5805H24.7738V52.645H20.6448V50.5805Z" fill="#3F3F8F"/>
</g>
<defs>
<clipPath id="clip0">
<rect width="64" height="64" fill="white"/>
</clipPath>
</defs>
</svg>
