<svg width="64" height="64" viewBox="0 0 64 64" fill="none" xmlns="http://www.w3.org/2000/svg">
<g clip-path="url(#clip0)">
<path d="M61.9356 11.3549H2.06457C1.56144 11.3549 1.10032 11.5349 0.742065 11.834L11.8065 35.0969L64.0001 32V13.4194C64.0001 12.2791 63.0758 11.3549 61.9356 11.3549Z" fill="#5055A0"/>
<path d="M0.791626 32V51.625H61.9355L64 50.5806V32H0.791626Z" fill="#E5646E"/>
<path d="M8.25806 50.5807C6.98493 50.5807 5.80156 50.1966 4.81743 49.538L1.25906 49.1266L0.74231 52.1663C1.10043 52.4653 1.56143 52.6452 2.06443 52.6452H61.9354C63.0756 52.6452 63.9999 51.7208 63.9999 50.5807H8.25806Z" fill="#DB4655"/>
<path d="M2.0645 12.6868L1.4375 13.4194V49.1265L4.81738 49.5379L32 32L2.0645 12.6868Z" fill="#F2F2F6"/>
<path d="M4.818 49.5367C3.158 48.4257 2.0645 46.5345 2.0645 44.387V12.6867L0.741875 11.8339C0.287 12.2125 0 12.7811 0 13.4194V50.5806C0 51.2187 0.28725 51.7875 0.742125 52.1661L4.818 49.5367Z" fill="#E1E1E6"/>
<path d="M16.9334 30.9677H15.5243C15.0788 30.9677 14.8558 30.429 15.1708 30.1142L16.1885 29.0964C16.5787 28.7063 16.6243 28.0712 16.2598 27.6571C15.8605 27.2034 15.1698 27.1869 14.7492 27.6075L13.6929 28.6638C13.3779 28.9788 12.8394 28.7557 12.8394 28.3103V26.8736C12.8394 26.3234 12.4238 25.8436 11.8749 25.8087C11.2737 25.7704 10.7749 26.2458 10.7749 26.8388V28.2828C10.7749 28.7283 10.2363 28.9513 9.92143 28.6363L8.91755 27.6324C8.52743 27.2423 7.8923 27.1967 7.47818 27.5612C7.02456 27.9604 7.00806 28.6512 7.42868 29.0717L8.47118 30.1142C8.78618 30.4292 8.56305 30.9677 8.11768 30.9677H6.68056C6.13043 30.9677 5.65056 31.3833 5.61568 31.9322C5.57743 32.5334 6.05281 33.0322 6.64581 33.0322H8.11743C8.56293 33.0322 8.78593 33.5708 8.47093 33.8857L7.45318 34.9034C7.06306 35.2935 7.01743 35.9285 7.38193 36.3427C7.78118 36.7963 8.47205 36.8128 8.89255 36.3923L9.9213 35.3635C10.2363 35.0485 10.7748 35.2717 10.7748 35.717V37.1263C10.7748 37.6764 11.1904 38.1563 11.7393 38.1912C12.3406 38.2294 12.8393 37.754 12.8393 37.161V35.6894C12.8393 35.2439 13.3779 35.0209 13.6928 35.3359L14.7243 36.3674C15.1144 36.7575 15.7495 36.8032 16.1637 36.4387C16.6173 36.0394 16.6338 35.3485 16.2132 34.928L15.1708 33.8857C14.8558 33.5707 15.0789 33.0322 15.5243 33.0322H16.9683C17.5613 33.0322 18.0367 32.5335 17.9984 31.9322C17.9634 31.3833 17.4835 30.9677 16.9334 30.9677Z" fill="#FFE07D"/>
<path d="M24.0163 30.6475L23.3374 30.6415L22.8808 29.6422C22.7783 29.4178 22.5543 29.2739 22.3077 29.2739C22.0364 29.2739 21.7957 29.4474 21.7099 29.7047L21.3975 30.6414L20.4947 30.6484C19.9159 30.6529 19.6759 31.3914 20.1416 31.7353L20.8678 32.2717L20.5954 33.1324C20.4208 33.6842 21.0492 34.1407 21.5199 33.8042L22.2544 33.2792L22.9889 33.8042C23.4598 34.1407 24.088 33.6843 23.9134 33.1324L23.641 32.2717L24.3688 31.7343C24.8342 31.3907 24.5948 30.6525 24.0163 30.6475Z" fill="#FFE07D"/>
<path d="M7.57929 21.13L6.90042 21.124L6.44379 20.1246C6.34129 19.9002 6.11729 19.7563 5.87067 19.7563C5.59942 19.7563 5.35867 19.9298 5.27292 20.1871L4.96054 21.1239L4.05767 21.1309C3.47892 21.1354 3.23892 21.8739 3.70454 22.2177L4.43079 22.7541L4.15842 23.6149C3.98379 24.1666 4.61204 24.6231 5.08292 24.2866L5.81742 23.7616L6.55192 24.2866C7.02279 24.6231 7.65104 24.1667 7.47642 23.6149L7.20404 22.7541L7.93179 22.2167C8.39704 21.8732 8.15767 21.1351 7.57929 21.13Z" fill="#FFE07D"/>
<path d="M7.57929 40.8016L6.90042 40.7956L6.44379 39.7962C6.34129 39.5719 6.11729 39.428 5.87067 39.428C5.59942 39.428 5.35867 39.6015 5.27292 39.8587L4.96054 40.7955L4.05767 40.8025C3.47892 40.807 3.23892 41.5455 3.70454 41.8894L4.43079 42.4257L4.15842 43.2865C3.98379 43.8382 4.61204 44.2947 5.08292 43.9582L5.81742 43.4332L6.55192 43.9582C7.02279 44.2947 7.65104 43.8384 7.47642 43.2865L7.20404 42.4257L7.93179 41.8884C8.39704 41.5449 8.15767 40.8067 7.57929 40.8016Z" fill="#FFE07D"/>
</g>
<defs>
<clipPath id="clip0">
<rect width="64" height="64" fill="white"/>
</clipPath>
</defs>
</svg>
