<svg width="64" height="64" viewBox="0 0 64 64" fill="none" xmlns="http://www.w3.org/2000/svg">
<path d="M61.9354 29.9353H3.12492C1.98467 29.9353 1.06042 30.8597 1.06042 31.9998V49.602C1.06042 50.7422 1.9848 51.6665 3.12492 51.6665H61.9354L63.9999 50.5805V31.9998C63.9999 30.8596 63.0756 29.9353 61.9354 29.9353Z" fill="#E5646E"/>
<path d="M2.0645 44.3871V30.9375L0 32V50.5806C0 51.7209 0.924375 52.6451 2.0645 52.6451H61.9355C63.0756 52.6451 64 51.7207 64 50.5806H8.25813C4.8375 50.5806 2.0645 47.8077 2.0645 44.3871Z" fill="#DB4655"/>
<path d="M61.9355 11.3547H2.0645L1 13.4192V29.7498L2.0645 31.9998H64V13.4192C64 12.2789 63.0756 11.3547 61.9355 11.3547Z" fill="#F2F2F6"/>
<path d="M0 13.4192V31.9998H2.0645V11.3547C0.924375 11.3547 0 12.2789 0 13.4192Z" fill="#E1E1E6"/>
</svg>
