<svg width="64" height="64" viewBox="0 0 64 64" fill="none" xmlns="http://www.w3.org/2000/svg">
<g clip-path="url(#clip0)">
<path d="M61.9354 11.3549H23.7417C22.6015 11.3549 21.6772 12.2793 21.6772 13.4194V51.875H61.9354L63.9999 50.5807V13.4194C63.9999 12.2792 63.0755 11.3549 61.9354 11.3549Z" fill="#E5646E"/>
<path d="M23.7419 11.3549H2.06455L1.06055 13.4194V49.4772C1.06055 50.6173 1.98492 51.5417 3.12505 51.5417H22.125L23.7421 50.5807V11.3549H23.7419Z" fill="#95CC81"/>
<path d="M23.7424 41.2904C28.8733 41.2904 33.0328 37.131 33.0328 32C33.0328 26.8691 28.8733 22.7097 23.7424 22.7097C18.6115 22.7097 14.452 26.8691 14.452 32C14.452 37.131 18.6115 41.2904 23.7424 41.2904Z" fill="#FFE07D"/>
<path d="M22.6666 50.5807L23.7419 52.6452H61.9354C63.0755 52.6452 63.9999 51.7208 63.9999 50.5807H22.6666Z" fill="#DB4655"/>
<path d="M23.7425 37.1613C21.4622 37.1613 19.6135 35.3126 19.6135 33.0323V28.9033C19.6135 28.3332 20.0756 27.871 20.6458 27.871H26.8393C27.4094 27.871 27.8715 28.3332 27.8715 28.9033V33.0323C27.8715 35.3126 26.0229 37.1613 23.7425 37.1613Z" fill="#E5646E"/>
<path d="M0 13.4194V50.5807C0 51.7208 0.924375 52.6452 2.0645 52.6452H23.7419V50.5807H8.25813C4.8375 50.5807 2.06463 47.8078 2.06463 44.3872V11.3549C0.924375 11.3549 0 12.2792 0 13.4194H0Z" fill="#7DBD80"/>
<path d="M23.7424 35.0967C22.6021 35.0967 21.6779 34.1723 21.6779 33.0322V29.9354H25.8069V33.0322C25.8069 34.1724 24.8825 35.0967 23.7424 35.0967Z" fill="white"/>
</g>
<defs>
<clipPath id="clip0">
<rect width="64" height="64" fill="white"/>
</clipPath>
</defs>
</svg>
