<svg width="64" height="64" viewBox="0 0 64 64" fill="none" xmlns="http://www.w3.org/2000/svg">
<path d="M64 25.1181V13.4192C64 12.2789 63.0756 11.3547 61.9355 11.3547H2.0645L0.958374 13.4192V25.1181L3.09637 27.8708H60.9034L64 25.1181Z" fill="#F2F2F6"/>
<path d="M0 13.4192V25.118L2.0645 26.9534V11.3547C0.924375 11.3547 0 12.2789 0 13.4192Z" fill="#E1E1E6"/>
<path d="M0.977173 38.8813V49.6851C0.977173 50.8254 1.90155 51.7496 3.04167 51.7496H61.9355L64 50.5802V38.8813L60.9038 36.1286H3.0968L0.977173 38.8813Z" fill="#E5646E"/>
<path d="M2.0645 44.3869V37.0464L0 38.8816V50.5804C0 51.7207 0.924375 52.645 2.0645 52.645H61.9355C63.0756 52.645 64 51.7207 64 50.5804H8.25813C4.8375 50.5804 2.0645 47.8076 2.0645 44.3869Z" fill="#DB4655"/>
<path d="M1.08337 37.125L2.0645 38.8816H64V25.1182H2.0645L1.08337 27.2916V37.125Z" fill="#5055A0"/>
<path d="M0 25.1182H2.0645V38.8816H0V25.1182Z" fill="#3F3F8F"/>
</svg>
