<svg width="64" height="64" viewBox="0 0 64 64" fill="none" xmlns="http://www.w3.org/2000/svg">
<path d="M61.9355 11.3549H2.06455L0.977173 12.625V49.3939C0.977173 50.5342 1.90155 51.4584 3.04167 51.4584H62.75L64 50.5808V13.4195C64 12.2792 63.0757 11.3549 61.9355 11.3549Z" fill="#95CC81"/>
<path d="M2.0645 44.3872V11.3549C0.924375 11.3549 0 12.2792 0 13.4194V50.5807C0 51.7209 0.924375 52.6452 2.0645 52.6452H61.9355C63.0756 52.6452 64 51.7208 64 50.5807H8.25813C4.8375 50.5807 2.0645 47.8078 2.0645 44.3872Z" fill="#7DBD80"/>
<path d="M45.4195 42.3228H18.5807C18.0101 42.3228 17.5485 41.8611 17.5485 41.2906C17.5485 40.7201 18.0102 40.2583 18.5807 40.2583H45.4195C45.9901 40.2583 46.4517 40.7201 46.4517 41.2906C46.4517 41.8611 45.99 42.3228 45.4195 42.3228Z" fill="white"/>
<path d="M40.2578 35.0969C39.6872 35.0969 39.2256 34.6352 39.2256 34.0647V22.7098C39.2256 22.1392 39.6873 21.6776 40.2578 21.6776C40.8283 21.6776 41.2901 22.1393 41.2901 22.7098V34.0647C41.2901 34.6353 40.8283 35.0969 40.2578 35.0969Z" fill="white"/>
<path d="M44.3874 35.0969C43.8167 35.0969 43.3551 34.6352 43.3551 34.0647V22.7098C43.3551 22.1392 43.8169 21.6776 44.3874 21.6776C44.9579 21.6776 45.4196 22.1393 45.4196 22.7098V34.0647C45.4196 34.6353 44.9579 35.0969 44.3874 35.0969Z" fill="white"/>
<path d="M48.516 35.0969C47.9454 35.0969 47.4838 34.6352 47.4838 34.0647V22.7098C47.4838 22.1392 47.9455 21.6776 48.516 21.6776C49.0865 21.6776 49.5483 22.1393 49.5483 22.7098V34.0647C49.5483 34.6353 49.0866 35.0969 48.516 35.0969Z" fill="white"/>
<path d="M36.1291 26.839C35.5584 26.839 35.0968 26.3772 35.0968 25.8067V22.71C35.0968 22.1394 35.5586 21.6777 36.1291 21.6777C36.6996 21.6777 37.1613 22.1395 37.1613 22.71V25.8067C37.1613 26.3772 36.6997 26.839 36.1291 26.839Z" fill="white"/>
<path d="M31.9995 26.839C31.4289 26.839 30.9673 26.3772 30.9673 25.8067V22.71C30.9673 22.1394 31.429 21.6777 31.9995 21.6777C32.57 21.6777 33.0318 22.1395 33.0318 22.71V25.8067C33.0318 26.3772 32.5702 26.839 31.9995 26.839Z" fill="white"/>
<path d="M27.8712 26.839C27.3006 26.839 26.839 26.3772 26.839 25.8067V22.71C26.839 22.1394 27.3007 21.6777 27.8712 21.6777C28.4417 21.6777 28.9035 22.1395 28.9035 22.71V25.8067C28.9035 26.3772 28.4417 26.839 27.8712 26.839Z" fill="white"/>
<path d="M19.6129 27.8712C19.0423 27.8712 18.5807 27.4095 18.5807 26.839V22.71C18.5807 22.1394 19.0424 21.6777 19.6129 21.6777C20.1834 21.6777 20.6452 22.1395 20.6452 22.71V26.839C20.6452 27.4095 20.1836 27.8712 19.6129 27.8712Z" fill="white"/>
<path d="M15.4838 26.8409C14.9132 26.8409 14.4515 26.3791 14.4515 25.8086V22.7119C14.4515 22.1413 14.9133 21.6796 15.4838 21.6796C16.0544 21.6796 16.5161 22.1414 16.5161 22.7119V25.8086C16.5161 26.3791 16.0543 26.8409 15.4838 26.8409Z" fill="white"/>
<path d="M15.4838 33.0324C14.9132 33.0324 14.4515 32.5707 14.4515 32.0002V29.9356C14.4515 29.365 14.9133 28.9034 15.4838 28.9034C16.0544 28.9034 16.5161 29.3651 16.5161 29.9356V32.0002C16.5161 32.5708 16.0543 33.0324 15.4838 33.0324Z" fill="white"/>
<path d="M21.6774 35.0969C19.9698 35.0969 18.5807 33.7078 18.5807 32.0002V30.9679C18.5807 30.3973 19.0424 29.9357 19.6129 29.9357C20.1834 29.9357 20.6452 30.3974 20.6452 30.9679V32.0002C20.6452 32.5697 21.1079 33.0324 21.6774 33.0324C22.2469 33.0324 22.7097 32.5697 22.7097 32.0002V22.7098C22.7097 22.1392 23.1714 21.6776 23.7419 21.6776C24.3124 21.6776 24.7742 22.1393 24.7742 22.7098V32.0002C24.7743 33.7078 23.3852 35.0969 21.6774 35.0969Z" fill="white"/>
<path d="M29.9358 35.0969C28.2281 35.0969 26.839 33.7078 26.839 32.0001V30.9679C26.839 30.3973 27.3007 29.9356 27.8712 29.9356C28.4417 29.9356 28.9035 30.3974 28.9035 30.9679V32.0001C28.9035 32.5696 29.3663 33.0324 29.9358 33.0324C30.5053 33.0324 30.968 32.5696 30.968 32.0001V29.9356C30.968 29.365 31.4298 28.9034 32.0003 28.9034C32.5708 28.9034 33.0325 29.3651 33.0325 29.9356V32.0001C33.0325 33.7078 31.6434 35.0969 29.9358 35.0969Z" fill="white"/>
<path d="M36.1291 33.0324C35.5584 33.0324 35.0968 32.5707 35.0968 32.0002V29.9356C35.0968 29.365 35.5586 28.9034 36.1291 28.9034C36.6996 28.9034 37.1613 29.3651 37.1613 29.9356V32.0002C37.1613 32.5708 36.6997 33.0324 36.1291 33.0324Z" fill="white"/>
</svg>
