<svg width="64" height="64" viewBox="0 0 64 64" fill="none" xmlns="http://www.w3.org/2000/svg">
<g clip-path="url(#clip0)">
<path d="M61.9356 29.9354H3.12505C1.9848 29.9354 1.06055 30.8598 1.06055 31.9999V49.6021C1.06055 50.7423 1.98492 51.6666 3.12505 51.6666H61.9356L64.0001 50.5806V31.9999C64.0001 30.8597 63.0757 29.9354 61.9356 29.9354Z" fill="#F2F2F6"/>
<path d="M2.0645 44.3871V30.9375L0 32V50.5806C0 51.7209 0.924375 52.6451 2.0645 52.6451H61.9355C63.0756 52.6451 64 51.7207 64 50.5806H8.25813C4.8375 50.5806 2.0645 47.8077 2.0645 44.3871Z" fill="#E1E1E6"/>
<path d="M61.9355 11.3549H2.0645L1 13.4194V29.75L2.0645 32H64V13.4194C64 12.2792 63.0756 11.3549 61.9355 11.3549Z" fill="#E5646E"/>
<path d="M11.3548 21.6775C11.3548 18.9819 13.0798 16.6951 15.4838 15.844C14.8372 15.615 14.1443 15.484 13.4193 15.484C9.99871 15.484 7.22583 18.2569 7.22583 21.6775C7.22583 25.0981 9.99871 27.871 13.4193 27.871C14.1443 27.871 14.8372 27.74 15.4838 27.511C13.0798 26.66 11.3548 24.3731 11.3548 21.6775Z" fill="#F2F2F6"/>
<path d="M0 13.4194V32H2.0645V11.3549C0.924375 11.3549 0 12.2792 0 13.4194Z" fill="#DB4655"/>
<path d="M20.5319 17.1148L20.1562 17.1115L19.9036 16.5587C19.8469 16.4345 19.723 16.3549 19.5865 16.3549C19.4365 16.3549 19.3032 16.4509 19.2557 16.5933L19.0829 17.1115L18.5834 17.1154C18.2632 17.1179 18.1304 17.5265 18.388 17.7167L18.7899 18.0134L18.6392 18.4897C18.5426 18.7949 18.8902 19.0474 19.1507 18.8613L19.5571 18.5708L19.9635 18.8613C20.224 19.0474 20.5716 18.7949 20.475 18.4897L20.3244 18.0134L20.727 17.7162C20.9844 17.5259 20.8519 17.1175 20.5319 17.1148Z" fill="#F2F2F6"/>
<path d="M16.7256 19.8567L16.35 19.8535L16.0973 19.3006C16.0406 19.1765 15.9167 19.0969 15.7802 19.0969C15.6302 19.0969 15.497 19.1929 15.4495 19.3352L15.2766 19.8535L14.7771 19.8574C14.457 19.8599 14.3241 20.2685 14.5817 20.4586L14.9836 20.7554L14.833 21.2316C14.7363 21.5369 15.084 21.7894 15.3445 21.6032L15.7508 21.3127L16.1572 21.6032C16.4177 21.7894 16.7653 21.5369 16.6687 21.2316L16.5181 20.7554L16.9207 20.4581C17.1781 20.268 17.0456 19.8596 16.7256 19.8567Z" fill="#F2F2F6"/>
<path d="M24.5004 19.8567L24.1247 19.8535L23.8721 19.3006C23.8154 19.1765 23.6915 19.0969 23.555 19.0969C23.405 19.0969 23.2717 19.1929 23.2242 19.3352L23.0514 19.8535L22.5519 19.8574C22.2317 19.8599 22.0989 20.2685 22.3565 20.4586L22.7584 20.7554L22.6077 21.2316C22.5111 21.5369 22.8587 21.7894 23.1192 21.6032L23.5256 21.3127L23.932 21.6032C24.1925 21.7894 24.5401 21.5369 24.4435 21.2316L24.2929 20.7554L24.6955 20.4581C24.9527 20.268 24.8204 19.8596 24.5004 19.8567Z" fill="#F2F2F6"/>
<path d="M18.2421 24.276L17.8664 24.2727L17.6138 23.7199C17.5571 23.5957 17.4332 23.5161 17.2967 23.5161C17.1467 23.5161 17.0134 23.6121 16.9659 23.7545L16.7931 24.2727L16.2936 24.2766C15.9734 24.2791 15.8406 24.6877 16.0982 24.8779L16.5001 25.1746L16.3494 25.6509C16.2528 25.9561 16.6004 26.2086 16.8609 26.0225L17.2673 25.732L17.6737 26.0225C17.9342 26.2086 18.2818 25.9561 18.1852 25.6509L18.0346 25.1746L18.4372 24.8774C18.6946 24.6872 18.5621 24.2789 18.2421 24.276Z" fill="#F2F2F6"/>
<path d="M22.9839 24.276L22.6083 24.2727L22.3556 23.7199C22.2989 23.5957 22.175 23.5161 22.0385 23.5161C21.8885 23.5161 21.7553 23.6121 21.7078 23.7545L21.5349 24.2727L21.0354 24.2766C20.7153 24.2791 20.5824 24.6877 20.84 24.8779L21.2419 25.1746L21.0913 25.6509C20.9946 25.9561 21.3423 26.2086 21.6028 26.0225L22.0091 25.732L22.4155 26.0225C22.676 26.2086 23.0236 25.9561 22.927 25.6509L22.7764 25.1746L23.179 24.8774C23.4363 24.6872 23.3039 24.2789 22.9839 24.276Z" fill="#F2F2F6"/>
</g>
<defs>
<clipPath id="clip0">
<rect width="64" height="64" fill="white"/>
</clipPath>
</defs>
</svg>
