<svg width="64" height="64" viewBox="0 0 64 64" fill="none" xmlns="http://www.w3.org/2000/svg">
<path d="M61.9355 11.3549H2.06455L0.977173 12.625V49.3939C0.977173 50.5341 1.90155 51.4584 3.04167 51.4584H62.75L64 50.5807V13.4195C64 12.2791 63.0757 11.3549 61.9355 11.3549Z" fill="#F2F2F6"/>
<path d="M2.0645 44.3871V11.3549C0.924375 11.3549 0 12.2791 0 13.4194V50.5806C0 51.7209 0.924375 52.6451 2.0645 52.6451H61.9355C63.0756 52.6451 64 51.7207 64 50.5806H8.25813C4.8375 50.5806 2.0645 47.8077 2.0645 44.3871Z" fill="#E1E1E6"/>
<path d="M18.2753 27.5468C18.0777 27.5468 17.8772 27.4903 17.7007 27.3715C17.228 27.054 17.102 26.4123 17.4195 25.939L20.8721 20.7973C21.1886 20.3246 21.8307 20.1976 22.3046 20.5161C22.7773 20.8336 22.9033 21.4752 22.5858 21.9486L19.1332 27.0902C18.9346 27.3866 18.608 27.5468 18.2753 27.5468Z" fill="#4B3F4E"/>
<path d="M14.8467 25.245C14.6491 25.245 14.4486 25.1885 14.2721 25.0697C13.7994 24.7522 13.6734 24.1105 13.9909 23.6372L17.4435 18.4955C17.76 18.0238 18.4031 17.8953 18.876 18.2143C19.3488 18.5318 19.4748 19.1734 19.1573 19.6468L15.7046 24.7884C15.506 25.0847 15.1794 25.245 14.8467 25.245Z" fill="#5D5360"/>
<path d="M45.6988 45.9614C45.5012 45.9614 45.3007 45.9049 45.1242 45.786C44.6514 45.4685 44.5254 44.8269 44.8429 44.3535L48.2955 39.2119C48.612 38.7396 49.2552 38.6116 49.7281 38.9306C50.2008 39.2481 50.3268 39.8897 50.0093 40.3631L46.5567 45.5047C46.358 45.801 46.0314 45.9614 45.6988 45.9614Z" fill="#5D5360"/>
<path d="M42.2702 43.6592C42.0726 43.6592 41.8721 43.6027 41.6956 43.4838C41.2228 43.1663 41.0968 42.5247 41.4143 42.0513L44.867 36.9097C45.1835 36.4375 45.8256 36.309 46.2995 36.6285C46.7722 36.946 46.8982 37.5876 46.5807 38.061L43.1281 43.2026C42.9295 43.499 42.603 43.6592 42.2702 43.6592Z" fill="#4B3F4E"/>
<path d="M45.7248 27.5469C45.3922 27.5469 45.0666 27.3867 44.867 27.0903L41.4143 21.9487C41.0968 21.4754 41.2228 20.8338 41.6956 20.5162C42.1683 20.1972 42.8095 20.3247 43.1281 20.7974L46.5807 25.9391C46.8982 26.4123 46.7722 27.0539 46.2995 27.3716C46.1231 27.4904 45.9225 27.5469 45.7248 27.5469Z" fill="#4B3F4E"/>
<path d="M49.1534 25.245C48.8208 25.245 48.4952 25.0848 48.2955 24.7884L44.8429 19.6468C44.5254 19.1735 44.6514 18.5319 45.1242 18.2143C45.5969 17.8948 46.238 18.0228 46.5567 18.4955L50.0093 23.6372C50.3268 24.1104 50.2008 24.752 49.7281 25.0697C49.5516 25.1885 49.3509 25.245 49.1534 25.245Z" fill="#5D5360"/>
<path d="M18.3014 45.9612C17.9688 45.9612 17.6431 45.8009 17.4435 45.5046L13.9909 40.363C13.6734 39.8897 13.7994 39.2481 14.2721 38.9305C14.7449 38.611 15.386 38.7385 15.7046 39.2117L19.1573 44.3533C19.4748 44.8266 19.3488 45.4682 18.876 45.7858C18.6996 45.9047 18.499 45.9612 18.3014 45.9612Z" fill="#5D5360"/>
<path d="M21.7299 43.6592C21.3973 43.6592 21.0717 43.4989 20.8721 43.2025L17.4195 38.0609C17.102 37.5877 17.228 36.9461 17.7007 36.6284C18.1745 36.3084 18.8146 36.4374 19.1332 36.9097L22.5858 42.0513C22.9033 42.5245 22.7773 43.1662 22.3046 43.4838C22.1281 43.6028 21.9274 43.6592 21.7299 43.6592Z" fill="#4B3F4E"/>
<path d="M39.7919 29.9999C37.4221 28.427 33.1229 27.0033 31.5419 29.3749L23.4211 26.2747L23.412 26.2753C22.3176 27.9138 21.6776 29.8817 21.6776 31.9999C21.6776 37.7009 26.2992 42.3225 32.0003 42.3225C35.5834 42.3225 38.7381 40.4954 40.589 37.7235L40.5864 37.7209C42.1696 35.3575 42.1654 31.5809 39.7919 29.9999Z" fill="#5055A0"/>
<path d="M23.4117 26.2753C21.8286 28.6387 22.4668 31.8501 24.8403 33.4312C27.2101 35.0041 30.4133 34.3699 31.9943 31.9983C33.5754 29.6268 36.7766 28.9847 39.1462 30.5657C41.5178 32.1468 42.162 35.3582 40.5769 37.7216L40.586 37.7209C41.6804 36.0824 42.3205 34.1146 42.3205 31.9963C42.3205 26.2953 37.6989 21.6737 31.9979 21.6737C28.4148 21.6737 25.2601 23.5008 23.4092 26.2727L23.4117 26.2753Z" fill="#E5646E"/>
</svg>
