<svg width="64" height="64" viewBox="0 0 64 64" fill="none" xmlns="http://www.w3.org/2000/svg">
<g clip-path="url(#clip0)">
<path d="M28.9028 37.1614L8.55322 51.8126H61.9351L63.9996 50.5807V38.1936L28.9028 37.1614Z" fill="#5055A0"/>
<path d="M61.9351 11.3547H8.55322H10.1531L28.9028 26.8386L63.9996 25.8063V13.4192C63.9996 12.2789 63.0752 11.3547 61.9351 11.3547Z" fill="#E5646E"/>
<path d="M10.1541 50.5807V52.6452H61.9357C63.0758 52.6452 64.0002 51.7208 64.0002 50.5807H10.1541Z" fill="#3F3F8F"/>
<path d="M0.958374 17.5479L18.5806 31.9995L0.958374 46.4512V17.5479Z" fill="#5D5360"/>
<path d="M2.0645 44.3872V19.1542L0 18.8567V45.1438C0 45.1438 2.0645 44.5362 2.0645 44.3872Z" fill="#4B3F4E"/>
<path d="M9.41663 51.5414L28.4608 37.1611L64 36.1288V27.8708L28.4608 26.8386L6.78188 11.3547L2.06463 11.3548L0.791626 13.4193V18.2914L18.5806 31.9998L1.08338 45.5832L1.75 50.9164L9.41663 51.5414Z" fill="#95CC81"/>
<path d="M8.25813 50.5803C4.9865 50.5803 2.31413 48.0419 2.08688 44.8282L0 47.7588V50.5803C0 51.7204 0.924375 52.6448 2.0645 52.6448H6.7815L11.2074 50.5803H8.25813Z" fill="#7DBD80"/>
<path d="M0 13.4213V16.2423L2.0645 19.1559V11.3568C0.924375 11.3568 0 12.2811 0 13.4213Z" fill="#7DBD80"/>
<path d="M28.8138 25.8063L10.1539 11.3547H6.78223L27.829 27.6551C28.0095 27.7952 28.2322 27.8708 28.461 27.8708H64.0003V25.8063H28.8138Z" fill="#F2F2F6"/>
<path d="M28.4603 36.1286C28.2314 36.1286 28.0086 36.2042 27.8283 36.3443L9.4469 50.5802L9.9164 51.583L12.8193 50.5803L28.8133 38.1932H63.9996V36.1287H28.4603V36.1286Z" fill="#F2F2F6"/>
<path d="M2.06485 17.8463L1.08423 18.3263L2.06485 20.4624L16.8996 32L2.06485 43.538L1.0861 45.5392L2.28073 45.9855L19.2151 32.8145C19.4661 32.6189 19.6132 32.3185 19.6132 32C19.6132 31.6815 19.4661 31.381 19.2151 31.1855L2.06485 17.8463Z" fill="#FFE07D"/>
<path d="M9.44712 50.5807L6.78137 52.6452H10.1537L12.8194 50.5807H9.44712Z" fill="#E1E1E6"/>
<path d="M2.0645 44.3875V43.5383L0 45.1441V47.7595L2.28038 45.9858C2.14412 45.4751 2.0645 44.9411 2.0645 44.3875Z" fill="#FFD064"/>
<path d="M2.0645 17.8462L0 16.2405V18.8566L2.0645 20.4624V17.8462Z" fill="#FFD064"/>
</g>
<defs>
<clipPath id="clip0">
<rect width="64" height="64" fill="white"/>
</clipPath>
</defs>
</svg>
