<svg width="64" height="64" viewBox="0 0 64 64" fill="none" xmlns="http://www.w3.org/2000/svg">
<path d="M61.9355 11.3549H2.0645L0.958374 13.4194V49.8105C0.958374 50.9508 1.88275 51.875 3.02287 51.875H61.9355L64 50.5807V44.3872L62.125 42.125V21.375L64 19.6129V13.4194C64 12.2792 63.0756 11.3549 61.9355 11.3549Z" fill="#E5646E"/>
<path d="M2.0645 44.3872V11.3549C0.924375 11.3549 0 12.2792 0 13.4194V19.6129L0.9375 21.0625V42.75L0 44.3872V50.5807C0 51.7209 0.924375 52.6452 2.0645 52.6452H61.9355C63.0756 52.6452 64 51.7208 64 50.5807H8.25813C4.8375 50.5807 2.0645 47.8078 2.0645 44.3872Z" fill="#DB4655"/>
<path d="M64 44.3873H2.0645L1.0625 42.4376V22.1251L2.0645 19.613H64V44.3873Z" fill="#FFE07D"/>
<path d="M18.5807 23.7419C17.4406 23.7419 16.5162 24.6662 16.5162 25.8064V28.9032H20.6452V25.8064C20.6452 24.6663 19.721 23.7419 18.5807 23.7419Z" fill="#DB4655"/>
<path d="M18.5806 39.2257L13.4193 33.0323V28.9033C13.4193 28.3332 13.8814 27.871 14.4516 27.871H18.5806L23.7418 33.0323V34.0645C23.7418 36.915 21.4311 39.2257 18.5806 39.2257Z" fill="#E5646E"/>
<path d="M8.2583 27.871H10.3228V38.1937H8.2583V27.871Z" fill="white"/>
<path d="M0 19.613H2.0645V44.3873H0V19.613Z" fill="#FFD064"/>
<path d="M9.29055 28.9033C9.86065 28.9033 10.3228 28.4412 10.3228 27.8711C10.3228 27.301 9.86065 26.8388 9.29055 26.8388C8.72045 26.8388 8.2583 27.301 8.2583 27.8711C8.2583 28.4412 8.72045 28.9033 9.29055 28.9033Z" fill="#E5646E"/>
<path d="M9.29055 39.2257C9.86065 39.2257 10.3228 38.7635 10.3228 38.1934C10.3228 37.6233 9.86065 37.1612 9.29055 37.1612C8.72045 37.1612 8.2583 37.6233 8.2583 38.1934C8.2583 38.7635 8.72045 39.2257 9.29055 39.2257Z" fill="#5055A0"/>
<path d="M26.839 27.871H28.9035V38.1937H26.839V27.871Z" fill="white"/>
<path d="M27.8712 28.9033C28.4413 28.9033 28.9035 28.4412 28.9035 27.8711C28.9035 27.301 28.4413 26.8388 27.8712 26.8388C27.3011 26.8388 26.839 27.301 26.839 27.8711C26.839 28.4412 27.3011 28.9033 27.8712 28.9033Z" fill="#E5646E"/>
<path d="M27.8712 39.2257C28.4413 39.2257 28.9035 38.7635 28.9035 38.1934C28.9035 37.6233 28.4413 37.1612 27.8712 37.1612C27.3011 37.1612 26.839 37.6233 26.839 38.1934C26.839 38.7635 27.3011 39.2257 27.8712 39.2257Z" fill="#5055A0"/>
<path d="M22.7097 27.871H18.5807V33.0323H23.7419V28.9033C23.7419 28.3332 23.2798 27.871 22.7097 27.871Z" fill="white"/>
<path d="M13.4193 33.0322V34.0645C13.4193 36.915 15.7301 39.2257 18.5805 39.2257V33.0322H13.4193Z" fill="#FFC269"/>
<path d="M18.5807 35.097C19.7209 35.097 20.6452 34.1726 20.6452 33.0325C20.6452 31.8923 19.7209 30.968 18.5807 30.968C17.4405 30.968 16.5162 31.8923 16.5162 33.0325C16.5162 34.1726 17.4405 35.097 18.5807 35.097Z" fill="#5055A0"/>
</svg>
