<svg width="64" height="64" viewBox="0 0 64 64" fill="none" xmlns="http://www.w3.org/2000/svg">
<path d="M61.9355 11.3549H2.06455L0.977173 12.625V49.3939C0.977173 50.5342 1.90155 51.4584 3.04167 51.4584H62.75L64 50.5808V13.4195C64 12.2792 63.0757 11.3549 61.9355 11.3549Z" fill="#E5646E"/>
<path d="M2.0645 44.3872V11.3549C0.924375 11.3549 0 12.2792 0 13.4194V50.5807C0 51.7209 0.924375 52.6452 2.0645 52.6452H61.9355C63.0756 52.6452 64 51.7208 64 50.5807H8.25813C4.8375 50.5807 2.0645 47.8078 2.0645 44.3872Z" fill="#DB4655"/>
<path d="M43.3553 27.871H36.1295V20.6452C36.1295 20.0751 35.6674 19.613 35.0973 19.613H28.9038C28.3336 19.613 27.8715 20.0751 27.8715 20.6452V27.871H20.6458C20.0756 27.871 19.6135 28.3331 19.6135 28.9032V35.0967C19.6135 35.6667 20.0756 36.129 20.6458 36.129H27.8715V43.3547C27.8715 43.9247 28.3336 44.3869 28.9038 44.3869H35.0973C35.6674 44.3869 36.1295 43.9247 36.1295 43.3547V36.129H43.3553C43.9254 36.129 44.3875 35.6667 44.3875 35.0967V28.9032C44.3875 28.3331 43.9254 27.871 43.3553 27.871Z" fill="white"/>
</svg>
