<svg width="64" height="64" viewBox="0 0 64 64" fill="none" xmlns="http://www.w3.org/2000/svg">
<path d="M61.9355 11.3549H32L0.977051 28.625V49.3939C0.977051 50.5341 1.90143 51.4584 3.04155 51.4584H62.75L64 50.5807V13.4195C64 12.2791 63.0756 11.3549 61.9355 11.3549Z" fill="#E5646E"/>
<path d="M2.0645 44.3871V29.9355L0 32V50.5806C0 51.7209 0.924375 52.6451 2.0645 52.6451H61.9355C63.0756 52.6451 64 51.7208 64 50.5806H8.25813C4.8375 50.5806 2.0645 47.8078 2.0645 44.3871Z" fill="#DB4655"/>
<path d="M2.0645 11.3549L0.708374 13.4194V30.375L2.0645 32H30.9678C31.5379 32 32 31.5377 32 30.9677V11.3549H2.0645Z" fill="#5055A0"/>
<path d="M22.1935 20.6452H18.4922L21.1095 18.0278C21.5129 17.6243 21.5129 16.9714 21.1095 16.5679C20.706 16.1645 20.0532 16.1645 19.6497 16.5679L17.0323 19.1853V15.4839C17.0323 14.9133 16.5705 14.4517 16 14.4517C15.4295 14.4517 14.9678 14.9134 14.9678 15.4839V19.1853L12.3504 16.5679C11.9469 16.1645 11.294 16.1645 10.8905 16.5679C10.4872 16.9714 10.4872 17.6243 10.8905 18.0278L13.5079 20.6452H9.80654C9.23592 20.6452 8.77429 21.1069 8.77429 21.6774C8.77429 22.2479 9.23604 22.7097 9.80654 22.7097H13.5079L10.8905 25.327C10.4872 25.7304 10.4872 26.3834 10.8905 26.7868C11.294 27.1903 11.9469 27.1903 12.3504 26.7868L14.9678 24.1694V27.8709C14.9678 28.4415 15.4295 28.9032 16 28.9032C16.5705 28.9032 17.0323 28.4414 17.0323 27.8709V24.1694L19.6497 26.7868C20.0532 27.1903 20.706 27.1903 21.1095 26.7868C21.5129 26.3834 21.5129 25.7304 21.1095 25.327L18.4922 22.7097H22.1935C22.7642 22.7097 23.2258 22.2479 23.2258 21.6774C23.2258 21.1069 22.7642 20.6452 22.1935 20.6452Z" fill="#F2F2F6"/>
<path d="M16 24.1547C17.3682 24.1547 18.4773 23.0455 18.4773 21.6773C18.4773 20.3091 17.3682 19.2 16 19.2C14.6317 19.2 13.5226 20.3091 13.5226 21.6773C13.5226 23.0455 14.6317 24.1547 16 24.1547Z" fill="white"/>
<path d="M2.0645 11.3549C0.924375 11.3549 0 12.2791 0 13.4194V32H2.0645V11.3549Z" fill="#3F3F8F"/>
</svg>
