<svg width="64" height="64" viewBox="0 0 64 64" fill="none" xmlns="http://www.w3.org/2000/svg">
<g clip-path="url(#clip0)">
<path d="M64 17.5484L62.4584 15.875H1.70837L1.75 48.2084H62.4584L64 46.4516V40.2581L62.8125 38.8125V25.0625L64 23.7419V17.5484Z" fill="#F2F2F6"/>
<path d="M2.0645 16.4585L0 17.5485V23.742L2.0645 24.4071V23.742V16.4585Z" fill="#E1E1E6"/>
<path d="M2.0645 39.3353L0 40.2584V46.4518L1.45312 47.1876L2.41775 46.4541C2.189 45.8078 2.0645 45.112 2.0645 44.3873V40.2583V39.3353Z" fill="#E1E1E6"/>
<path d="M64 40.2582H2.0645L0.75 38.4376V25.3751L2.0645 23.7419H64V40.2582Z" fill="#E5646E"/>
<path d="M0 23.7419H2.0645V40.2581H0V23.7419Z" fill="#DB4655"/>
<path d="M61.9355 11.3549H2.0645L1.09375 13.4194L2.0645 17.5484H64V13.4194C64 12.2792 63.0756 11.3549 61.9355 11.3549Z" fill="#5055A0"/>
<path d="M2.0645 11.3549C0.924375 11.3549 0 12.2792 0 13.4194V17.5484H2.0645V11.3549Z" fill="#3F3F8F"/>
<path d="M61.9355 51.9374H3.4395L1.375 50.5805L2.41775 46.4539L64 46.4515V50.5805L61.9355 51.9374Z" fill="#5055A0"/>
<path d="M0 50.5805C0 51.7207 0.924375 52.645 2.0645 52.645H61.9355C63.0756 52.645 64 51.7207 64 50.5805H8.25813C5.5625 50.5805 3.269 48.8555 2.41788 46.4515H0L0 50.5805Z" fill="#3F3F8F"/>
</g>
<defs>
<clipPath id="clip0">
<rect width="64" height="64" fill="white"/>
</clipPath>
</defs>
</svg>
