<svg width="64" height="64" viewBox="0 0 64 64" fill="none" xmlns="http://www.w3.org/2000/svg">
<path d="M61.9355 11.3549H2.06455L0.977173 12.625V49.3939C0.977173 50.5341 1.90155 51.4584 3.04167 51.4584H62.75L64 50.5807V13.4195C64 12.2791 63.0757 11.3549 61.9355 11.3549Z" fill="#E5646E"/>
<path d="M2.0645 44.3871V11.3549C0.924375 11.3549 0 12.2791 0 13.4194V50.5806C0 51.7209 0.924375 52.6451 2.0645 52.6451H61.9355C63.0756 52.6451 64 51.7207 64 50.5806H8.25813C4.8375 50.5806 2.0645 47.8077 2.0645 44.3871Z" fill="#DB4655"/>
<path d="M23.7415 40.2581C19.1808 40.2581 15.4834 36.5609 15.4834 32C15.4834 27.4391 19.1806 23.7419 23.7415 23.7419C25.4476 23.7419 27.0326 24.2597 28.3488 25.1461C26.458 23.0225 23.7118 21.6772 20.6448 21.6772C14.9438 21.6772 10.3221 26.2987 10.3221 31.9999C10.3221 37.7009 14.9438 42.3225 20.6448 42.3225C23.7116 42.3225 26.458 40.9772 28.3486 38.8537C27.0326 39.7402 25.4476 40.2581 23.7415 40.2581Z" fill="white"/>
<path d="M35.8308 30.8777L33.9148 30.8608L32.974 28.802C32.8852 28.5355 32.5082 28.5355 32.4193 28.802L31.7327 30.8608L29.5625 30.8777C29.2816 30.8798 29.165 31.2384 29.3911 31.4053L31.1369 32.6944L30.4823 34.7636C30.3975 35.0315 30.7025 35.2531 30.9312 35.0897L32.6967 33.8277L34.4622 35.0897C34.6908 35.2531 34.9958 35.0315 34.911 34.7636L34.2564 32.6944L36.0022 31.4053C36.2282 31.2383 36.1117 30.8798 35.8308 30.8777Z" fill="#F2F2F6"/>
</svg>
