<svg width="64" height="64" viewBox="0 0 64 64" fill="none" xmlns="http://www.w3.org/2000/svg">
<g clip-path="url(#clip0)">
<path d="M61.9358 29.9354H3.12529C1.98504 29.9354 1.06079 30.8598 1.06079 31.9999V49.6021C1.06079 50.7423 1.98517 51.6666 3.12529 51.6666H61.9358L64.0003 50.5806V31.9999C64.0003 30.8597 63.0759 29.9354 61.9358 29.9354Z" fill="#FFE07D"/>
<path d="M2.0645 44.3871V30.9375L0 32V50.5806C0 51.7209 0.924375 52.6451 2.0645 52.6451H61.9355C63.0756 52.6451 64 51.7207 64 50.5806H8.25813C4.8375 50.5806 2.0645 47.8077 2.0645 44.3871Z" fill="#FFD064"/>
<path d="M61.9355 11.3549H2.0645L1 13.4194V29.75L2.0645 32H64V13.4194C64 12.2792 63.0756 11.3549 61.9355 11.3549Z" fill="#739AD6"/>
<path d="M0 13.4194V32H2.0645V11.3549C0.924375 11.3549 0 12.2792 0 13.4194Z" fill="#5A7DC3"/>
</g>
<defs>
<clipPath id="clip0">
<rect width="64" height="64" fill="white"/>
</clipPath>
</defs>
</svg>
