<svg width="64" height="64" viewBox="0 0 64 64" fill="none" xmlns="http://www.w3.org/2000/svg">
<path d="M61.9355 11.3549H33.0322L1.125 33.4375V51.7917H61.9355L64 50.5807V46.7465L62.6562 45.4688V41.8438L64 40.8479V34.9493L62.7916 33.7917V30.0833L64 29.0505V23.152L62.7916 22.0834V18.8334L64 17.2535V13.4194C64 12.2792 63.0756 11.3549 61.9355 11.3549Z" fill="#E5646E"/>
<path d="M32.0416 17.2536H64V23.1522H32.0416V17.2536Z" fill="#F2F2F6"/>
<path d="M32 29.0505L33.0322 34.9492H64V29.0505H32Z" fill="#F2F2F6"/>
<path d="M2.0645 44.3871V33.875L0 34.9492V40.8479L0.875 41.5938V45.4688L0 46.7465V50.5806C0 51.7209 0.924375 52.6451 2.0645 52.6451H61.9355C63.0756 52.6451 64 51.7207 64 50.5806H8.25813C4.8375 50.5806 2.0645 47.8077 2.0645 44.3871Z" fill="#DB4655"/>
<path d="M33.0322 11.3549H2.0645L0.75 13.4194L2.0645 34.9493H33.0322V11.3549Z" fill="#5055A0"/>
<path d="M2.0645 11.3549C0.924375 11.3549 0 12.2792 0 13.4194V34.9493H2.0645V11.3549Z" fill="#3F3F8F"/>
<path d="M4.13906 15.9572C3.56843 15.9572 3.10181 15.4949 3.10181 14.925C3.10181 14.355 3.55843 13.8927 4.12906 13.8927H4.13918C4.70981 13.8927 5.17144 14.355 5.17144 14.925C5.17144 15.4949 4.70956 15.9572 4.13906 15.9572Z" fill="white"/>
<path d="M4.13906 24.2154C3.56843 24.2154 3.10181 23.7532 3.10181 23.1832C3.10181 22.6132 3.55843 22.1509 4.12906 22.1509H4.13918C4.70981 22.1509 5.17144 22.6132 5.17144 23.1832C5.17144 23.7532 4.70956 24.2154 4.13906 24.2154Z" fill="white"/>
<path d="M4.13906 32.4733C3.56843 32.4733 3.10181 32.011 3.10181 31.441C3.10181 30.871 3.55843 30.4088 4.12906 30.4088H4.13918C4.70981 30.4088 5.17144 30.871 5.17144 31.441C5.17144 32.011 4.70956 32.4733 4.13906 32.4733Z" fill="white"/>
<path d="M4.13906 20.0863C3.56843 20.0863 3.10181 19.6241 3.10181 19.0541C3.10181 18.4841 3.55843 18.0219 4.12906 18.0219H4.13918C4.70981 18.0219 5.17144 18.4841 5.17144 19.0541C5.17131 19.6241 4.70956 20.0863 4.13906 20.0863Z" fill="#F2F2F6"/>
<path d="M4.13906 28.3442C3.56843 28.3442 3.10181 27.8819 3.10181 27.3119C3.10181 26.7419 3.55843 26.2797 4.12906 26.2797H4.13918C4.70981 26.2797 5.17144 26.7419 5.17144 27.3119C5.17144 27.8819 4.70956 28.3442 4.13906 28.3442Z" fill="#F2F2F6"/>
<path d="M28.9131 15.9572C28.3425 15.9572 27.8759 15.4949 27.8759 14.925C27.8759 14.355 28.3325 13.8927 28.9031 13.8927H28.9132C29.4839 13.8927 29.9455 14.355 29.9455 14.925C29.9455 15.4949 29.4837 15.9572 28.9131 15.9572Z" fill="white"/>
<path d="M28.9131 24.2154C28.3425 24.2154 27.8759 23.7532 27.8759 23.1832C27.8759 22.6132 28.3325 22.1509 28.9031 22.1509H28.9132C29.4839 22.1509 29.9455 22.6132 29.9455 23.1832C29.9455 23.7532 29.4837 24.2154 28.9131 24.2154Z" fill="white"/>
<path d="M28.9131 32.4733C28.3425 32.4733 27.8759 32.011 27.8759 31.441C27.8759 30.871 28.3325 30.4088 28.9031 30.4088H28.9132C29.4839 30.4088 29.9455 30.871 29.9455 31.441C29.9455 32.011 29.4837 32.4733 28.9131 32.4733Z" fill="white"/>
<path d="M28.9133 20.0864C28.3427 20.0864 27.8761 19.6242 27.8761 19.0542C27.8761 18.4842 28.3327 18.0219 28.9033 18.0219H28.9135C29.4841 18.0219 29.9457 18.4842 29.9457 19.0542C29.9457 19.6242 29.484 20.0864 28.9133 20.0864Z" fill="#F2F2F6"/>
<path d="M28.9133 28.3442C28.3427 28.3442 27.8761 27.882 27.8761 27.312C27.8761 26.742 28.3327 26.2797 28.9033 26.2797H28.9135C29.4841 26.2797 29.9457 26.742 29.9457 27.312C29.9457 27.882 29.484 28.3442 28.9133 28.3442Z" fill="#F2F2F6"/>
<path d="M10.3327 15.9572C9.76204 15.9572 9.29541 15.4949 9.29541 14.925C9.29541 14.355 9.75204 13.8927 10.3227 13.8927H10.3328C10.9034 13.8927 11.365 14.355 11.365 14.925C11.365 15.4949 10.9033 15.9572 10.3327 15.9572Z" fill="#F2F2F6"/>
<path d="M10.3327 24.2155C9.76204 24.2155 9.29541 23.7533 9.29541 23.1833C9.29541 22.6133 9.75204 22.151 10.3227 22.151H10.3328C10.9034 22.151 11.365 22.6133 11.365 23.1833C11.365 23.7533 10.9033 24.2155 10.3327 24.2155Z" fill="#F2F2F6"/>
<path d="M10.3327 32.4733C9.76204 32.4733 9.29541 32.0111 9.29541 31.4411C9.29541 30.8711 9.75204 30.4088 10.3227 30.4088H10.3328C10.9034 30.4088 11.365 30.8711 11.365 31.4411C11.365 32.0111 10.9033 32.4733 10.3327 32.4733Z" fill="#F2F2F6"/>
<path d="M10.3327 20.0863C9.76204 20.0863 9.29541 19.6241 9.29541 19.0541C9.29541 18.4841 9.75204 18.0219 10.3227 18.0219H10.3328C10.9034 18.0219 11.365 18.4841 11.365 19.0541C11.3649 19.6241 10.9033 20.0863 10.3327 20.0863Z" fill="white"/>
<path d="M10.3327 28.3442C9.76204 28.3442 9.29541 27.8819 9.29541 27.3119C9.29541 26.7419 9.75204 26.2797 10.3227 26.2797H10.3328C10.9034 26.2797 11.365 26.7419 11.365 27.3119C11.365 27.8819 10.9033 28.3442 10.3327 28.3442Z" fill="white"/>
<path d="M7.23598 18.0217C6.66535 18.0217 6.19873 17.5595 6.19873 16.9895C6.19873 16.4195 6.65535 15.9572 7.22598 15.9572H7.2361C7.80672 15.9572 8.26835 16.4195 8.26835 16.9895C8.26822 17.5596 7.8066 18.0217 7.23598 18.0217Z" fill="white"/>
<path d="M7.23598 26.2796C6.66535 26.2796 6.19873 25.8174 6.19873 25.2474C6.19873 24.6774 6.65535 24.2151 7.22598 24.2151H7.2361C7.80672 24.2151 8.26835 24.6774 8.26835 25.2474C8.26835 25.8174 7.8066 26.2796 7.23598 26.2796Z" fill="white"/>
<path d="M7.23598 22.1509C6.66535 22.1509 6.19873 21.6887 6.19873 21.1187C6.19873 20.5487 6.65535 20.0864 7.22598 20.0864H7.2361C7.80672 20.0864 8.26835 20.5487 8.26835 21.1187C8.26835 21.6887 7.8066 22.1509 7.23598 22.1509Z" fill="#F2F2F6"/>
<path d="M7.23598 30.4087C6.66535 30.4087 6.19873 29.9465 6.19873 29.3765C6.19873 28.8065 6.65535 28.3442 7.22598 28.3442H7.2361C7.80672 28.3442 8.26835 28.8065 8.26835 29.3765C8.26835 29.9465 7.8066 30.4087 7.23598 30.4087Z" fill="#F2F2F6"/>
<path d="M16.5263 15.9572C15.9556 15.9572 15.489 15.4949 15.489 14.925C15.489 14.355 15.9456 13.8927 16.5163 13.8927H16.5264C17.097 13.8927 17.5586 14.355 17.5586 14.925C17.5586 15.4949 17.0968 15.9572 16.5263 15.9572Z" fill="white"/>
<path d="M16.5263 24.2154C15.9556 24.2154 15.489 23.7532 15.489 23.1832C15.489 22.6132 15.9456 22.1509 16.5163 22.1509H16.5264C17.097 22.1509 17.5586 22.6132 17.5586 23.1832C17.5586 23.7532 17.0968 24.2154 16.5263 24.2154Z" fill="white"/>
<path d="M16.5263 32.4733C15.9556 32.4733 15.489 32.011 15.489 31.441C15.489 30.871 15.9456 30.4088 16.5163 30.4088H16.5264C17.097 30.4088 17.5586 30.871 17.5586 31.441C17.5586 32.011 17.0968 32.4733 16.5263 32.4733Z" fill="white"/>
<path d="M16.5263 20.0863C15.9556 20.0863 15.489 19.6241 15.489 19.0541C15.489 18.4841 15.9456 18.0219 16.5163 18.0219H16.5264C17.097 18.0219 17.5586 18.4841 17.5586 19.0541C17.5585 19.6241 17.0968 20.0863 16.5263 20.0863Z" fill="#F2F2F6"/>
<path d="M16.5263 28.3442C15.9556 28.3442 15.489 27.8819 15.489 27.3119C15.489 26.7419 15.9456 26.2797 16.5163 26.2797H16.5264C17.097 26.2797 17.5586 26.7419 17.5586 27.3119C17.5586 27.8819 17.0968 28.3442 16.5263 28.3442Z" fill="#F2F2F6"/>
<path d="M13.4293 18.0217C12.8587 18.0217 12.3921 17.5595 12.3921 16.9895C12.3921 16.4195 12.8487 15.9572 13.4193 15.9572H13.4295C14.0001 15.9572 14.4617 16.4195 14.4617 16.9895C14.4617 17.5596 14 18.0217 13.4293 18.0217Z" fill="#F2F2F6"/>
<path d="M13.4293 26.2796C12.8587 26.2796 12.3921 25.8174 12.3921 25.2474C12.3921 24.6774 12.8487 24.2151 13.4193 24.2151H13.4295C14.0001 24.2151 14.4617 24.6774 14.4617 25.2474C14.4617 25.8174 14 26.2796 13.4293 26.2796Z" fill="#F2F2F6"/>
<path d="M13.4293 22.1509C12.8587 22.1509 12.3921 21.6887 12.3921 21.1187C12.3921 20.5487 12.8487 20.0864 13.4193 20.0864H13.4295C14.0001 20.0864 14.4617 20.5487 14.4617 21.1187C14.4617 21.6887 14 22.1509 13.4293 22.1509Z" fill="white"/>
<path d="M13.4293 30.4087C12.8587 30.4087 12.3921 29.9465 12.3921 29.3765C12.3921 28.8065 12.8487 28.3442 13.4193 28.3442H13.4295C14.0001 28.3442 14.4617 28.8065 14.4617 29.3765C14.4617 29.9465 14 30.4087 13.4293 30.4087Z" fill="white"/>
<path d="M22.7095 15.9572C22.1389 15.9572 21.6722 15.4949 21.6722 14.925C21.6722 14.355 22.1289 13.8927 22.6995 13.8927H22.7096C23.2802 13.8927 23.7419 14.355 23.7419 14.925C23.7419 15.4949 23.2801 15.9572 22.7095 15.9572Z" fill="#F2F2F6"/>
<path d="M22.7095 24.2154C22.1389 24.2154 21.6722 23.7532 21.6722 23.1832C21.6722 22.6132 22.1289 22.1509 22.6995 22.1509H22.7096C23.2802 22.1509 23.7419 22.6132 23.7419 23.1832C23.7419 23.7532 23.2801 24.2154 22.7095 24.2154Z" fill="#F2F2F6"/>
<path d="M22.7095 32.4733C22.1389 32.4733 21.6722 32.011 21.6722 31.441C21.6722 30.871 22.1289 30.4088 22.6995 30.4088H22.7096C23.2802 30.4088 23.7419 30.871 23.7419 31.441C23.7419 32.011 23.2801 32.4733 22.7095 32.4733Z" fill="#F2F2F6"/>
<path d="M22.7095 20.0863C22.1389 20.0863 21.6722 19.6241 21.6722 19.0541C21.6722 18.4841 22.1289 18.0219 22.6995 18.0219H22.7096C23.2802 18.0219 23.7419 18.4841 23.7419 19.0541C23.7417 19.6241 23.2801 20.0863 22.7095 20.0863Z" fill="white"/>
<path d="M22.7095 28.3442C22.1389 28.3442 21.6722 27.8819 21.6722 27.3119C21.6722 26.7419 22.1289 26.2797 22.6995 26.2797H22.7096C23.2802 26.2797 23.7419 26.7419 23.7419 27.3119C23.7419 27.8819 23.2801 28.3442 22.7095 28.3442Z" fill="white"/>
<path d="M19.6129 18.0217C19.0423 18.0217 18.5757 17.5595 18.5757 16.9895C18.5757 16.4195 19.0323 15.9572 19.6029 15.9572H19.6131C20.1837 15.9572 20.6453 16.4195 20.6453 16.9895C20.6452 17.5596 20.1836 18.0217 19.6129 18.0217Z" fill="white"/>
<path d="M19.6129 26.2796C19.0423 26.2796 18.5757 25.8174 18.5757 25.2474C18.5757 24.6774 19.0323 24.2151 19.6029 24.2151H19.6131C20.1837 24.2151 20.6453 24.6774 20.6453 25.2474C20.6453 25.8174 20.1836 26.2796 19.6129 26.2796Z" fill="white"/>
<path d="M19.6129 22.1509C19.0423 22.1509 18.5757 21.6887 18.5757 21.1187C18.5757 20.5487 19.0323 20.0864 19.6029 20.0864H19.6131C20.1837 20.0864 20.6453 20.5487 20.6453 21.1187C20.6453 21.6887 20.1836 22.1509 19.6129 22.1509Z" fill="#F2F2F6"/>
<path d="M19.6129 30.4087C19.0423 30.4087 18.5757 29.9465 18.5757 29.3765C18.5757 28.8065 19.0323 28.3442 19.6029 28.3442H19.6131C20.1837 28.3442 20.6453 28.8065 20.6453 29.3765C20.6453 29.9465 20.1836 30.4087 19.6129 30.4087Z" fill="#F2F2F6"/>
<path d="M25.8164 18.0217C25.2458 18.0217 24.7792 17.5595 24.7792 16.9895C24.7792 16.4195 25.2358 15.9572 25.8064 15.9572H25.8166C26.3872 15.9572 26.8488 16.4195 26.8488 16.9895C26.8487 17.5596 26.387 18.0217 25.8164 18.0217Z" fill="#F2F2F6"/>
<path d="M25.8164 26.2796C25.2458 26.2796 24.7792 25.8174 24.7792 25.2474C24.7792 24.6774 25.2358 24.2151 25.8064 24.2151H25.8166C26.3872 24.2151 26.8488 24.6774 26.8488 25.2474C26.8488 25.8174 26.387 26.2796 25.8164 26.2796Z" fill="#F2F2F6"/>
<path d="M25.8164 22.1509C25.2458 22.1509 24.7792 21.6887 24.7792 21.1187C24.7792 20.5487 25.2358 20.0864 25.8064 20.0864H25.8166C26.3872 20.0864 26.8488 20.5487 26.8488 21.1187C26.8488 21.6887 26.387 22.1509 25.8164 22.1509Z" fill="white"/>
<path d="M25.8164 30.4087C25.2458 30.4087 24.7792 29.9465 24.7792 29.3765C24.7792 28.8065 25.2358 28.3442 25.8064 28.3442H25.8166C26.3872 28.3442 26.8488 28.8065 26.8488 29.3765C26.8488 29.9465 26.387 30.4087 25.8164 30.4087Z" fill="white"/>
<path d="M0.375 45.0417L2.5325 46.7465H64V40.8479H2.0645L0.375 45.0417Z" fill="#F2F2F6"/>
<path d="M0 40.848V46.7466H2.5325C2.23238 46.0191 2.06463 45.223 2.06463 44.3871V40.8479H0L0 40.848Z" fill="#E1E1E6"/>
</svg>
