<svg width="64" height="64" viewBox="0 0 64 64" fill="none" xmlns="http://www.w3.org/2000/svg">
<g clip-path="url(#clip0)">
<path d="M63.9995 25.1183V13.4194C63.9995 12.2792 63.0752 11.3549 61.935 11.3549H19.6125C18.4723 11.3549 17.548 12.2792 17.548 13.4194V25.1183L20.6442 27.871H60.9028L63.9995 25.1183Z" fill="#95CC81"/>
<path d="M17.548 38.8819V52.0418H61.935L63.9995 50.5808V38.8819L60.9033 36.1292H20.6447L17.548 38.8819Z" fill="#5D5360"/>
<path d="M17.548 25.1183H63.9995V38.8818H17.548V25.1183Z" fill="#F2F2F6"/>
<path d="M63.9998 50.5806H18.5804L19.6127 52.6451H61.9353C63.0754 52.6451 63.9998 51.7208 63.9998 50.5806Z" fill="#4B3F4E"/>
<path d="M2.95842 51.7084H17.7084L19.6129 50.5808V11.3549H2.06455L0.893799 13.4194V49.6439C0.893924 50.784 1.81817 51.7084 2.95842 51.7084Z" fill="#E5646E"/>
<path d="M19.6129 50.5807H8.25813C4.8375 50.5807 2.06463 47.8078 2.06463 44.3872V11.3549C0.924375 11.3549 0 12.2792 0 13.4194V50.5807C0 51.7208 0.924375 52.6452 2.0645 52.6452H19.6129V50.5807Z" fill="#DB4655"/>
</g>
<defs>
<clipPath id="clip0">
<rect width="64" height="64" fill="white"/>
</clipPath>
</defs>
</svg>
