<svg width="64" height="64" viewBox="0 0 64 64" fill="none" xmlns="http://www.w3.org/2000/svg">
<g clip-path="url(#clip0)">
<path d="M58.2873 11.3547H37.1613L35.0967 12.9582H28.9032L26.8388 11.3547H5.71275L1.0625 13.4192V51.5414H59.9584L64 48.9596V37.1611L62.3438 35.0965V28.903L64 26.8386V15.0403L58.2873 11.3547Z" fill="#5055A0"/>
<path d="M56.375 50.5802H8.258C4.83738 50.5802 2.0645 47.8072 2.0645 44.3867V15.6246L0 15.0401V26.8384L1.125 27.4162V36.4787L0 37.161V48.9594L5.71238 52.6447H26.8388L28.9032 51.234H35.0967L37.1611 52.6447H58.2876L56.375 50.5802Z" fill="#3F3F8F"/>
<path d="M62.0851 11.361L59.5462 11.9216L2.38342 48.6563L6.17905 51.1131L63.3639 14.156L63.8559 12.676C63.5737 11.9497 62.8964 11.4193 62.0851 11.361Z" fill="#E5646E"/>
<path d="M3.28592 48.0687L0.138672 51.326C0.420297 52.053 1.10167 52.5809 1.91317 52.6396L7.16742 50.4787C5.58155 50.1966 4.20817 49.3121 3.28592 48.0687Z" fill="#DB4655"/>
<path d="M4.3122 11.7812L2.1012 11.4062C0.960946 11.4062 0.382446 12.4984 0.382446 13.6386V14.0312L59.7809 52.2188L63.8122 50.1094L4.3122 11.7812Z" fill="#E5646E"/>
<path d="M63.2968 50.5807H56.9916L59.4609 51.7891L62.0876 52.6397C62.8984 52.5806 63.5793 52.0533 63.8611 51.3269L63.2968 50.5807Z" fill="#DB4655"/>
<path d="M1.90928 11.3616C1.10328 11.4244 0.420027 11.9497 0.139526 12.6728L2.06503 15.1438V11.4379L1.90928 11.3616Z" fill="#DB4655"/>
<path d="M64 28.903L36.129 27.8708L35.0967 11.3547H28.9032L27.871 27.8708H1.03125V36.1288H27.871V51.6664H36.129V36.1288L64 35.0965V28.903Z" fill="#E5646E"/>
<path d="M0 35.0966L2.0645 36.1289V27.8709L0 28.9032V35.0966Z" fill="#DB4655"/>
<path d="M35.0974 52.6452H28.9039L27.8717 50.5807H36.1297L35.0974 52.6452Z" fill="#DB4655"/>
<path d="M64.0002 35.0964H36.1292C35.5591 35.0964 35.0969 35.5585 35.0969 36.1286V50.5802L36.0707 51.554L37.1614 50.5802V39.0149L55.0878 50.5801L58.6373 51.6502L58.8959 50.5801L38.0958 37.161H41.9047L62.7046 50.5802L63.6877 50.9684L64.0002 50.5802V48.9594L45.7127 37.1609H64.0002V35.0964Z" fill="#F2F2F6"/>
<path d="M27.871 35.0964H2.0645L1.03125 36.1286L2.0645 37.1609H18.2875L2.73362 47.1958L1.96875 48.8538L3.97362 48.8525L22.0955 37.1609H25.9044L5.8545 50.0961L6.14062 51.2965L8.91238 50.5803L26.8388 39.015V50.5803L27.8334 51.5413L28.9032 50.5803V36.1286C28.9032 35.5585 28.4411 35.0964 27.871 35.0964Z" fill="#F2F2F6"/>
<path d="M26.8388 11.3547V24.9844L5.71275 11.3547H2.0645C2.01725 11.3547 1.95525 11.3584 1.90875 11.3616L25.9045 26.8384H22.0954L2.0645 13.9154L1.41663 14.8331L2.0645 16.3722L18.2874 26.8384H2.0645L1.03125 27.8707L2.0645 28.9029H27.871C28.4411 28.9029 28.9032 28.4408 28.9032 27.8707V11.3547H26.8388Z" fill="#F2F2F6"/>
<path d="M0 26.8384H2.0645V28.9029H0V26.8384Z" fill="#E1E1E6"/>
<path d="M2.0645 13.9155L0.13925 12.6729C0.049625 12.9042 0 13.1565 0 13.4193V15.0404L2.0645 16.3723V13.9155Z" fill="#E1E1E6"/>
<path d="M64.0002 13.4192C64.0002 13.1564 63.9463 12.9073 63.8567 12.6761L41.9047 26.8386H38.0956L62.0859 11.3611C62.0394 11.3579 61.9829 11.3547 61.9357 11.3547H58.2874L37.1614 24.9844V11.3547H35.0969V27.8708C35.0969 28.4408 35.5591 28.903 36.1292 28.903H64.0002V26.8386H45.7128L64.0002 15.0403V13.4192Z" fill="#F2F2F6"/>
<path d="M0 35.0964H2.0645V37.1609H0V35.0964Z" fill="#E1E1E6"/>
<path d="M3.97362 48.8525C3.47487 48.3739 3.0505 47.8177 2.73362 47.1957L0 48.9592V50.5801C0 50.843 0.049125 51.0942 0.138625 51.3255L3.97362 48.8525Z" fill="#E1E1E6"/>
<path d="M26.8386 50.5801H28.9031V52.6446H26.8386V50.5801Z" fill="#E1E1E6"/>
<path d="M35.0969 50.5801H37.1614V52.6446H35.0969V50.5801Z" fill="#E1E1E6"/>
<path d="M5.71233 52.6448L8.91233 50.5803H8.25808C7.40558 50.5803 6.59358 50.4077 5.85458 50.0963L1.91333 52.6384C1.95996 52.6416 2.01721 52.6448 2.06458 52.6448H5.71233Z" fill="#E1E1E6"/>
<path d="M35.0969 50.5801H37.1614V52.6446H35.0969V50.5801Z" fill="#E1E1E6"/>
<path d="M63.862 51.3265C63.9516 51.0953 64.0007 50.843 64.0007 50.5801H62.7051L63.862 51.3265Z" fill="#E1E1E6"/>
<path d="M58.8955 50.5801H55.0874L58.2874 52.6446H61.9352C61.9827 52.6446 62.0405 52.6416 62.0872 52.6384L58.8955 50.5801Z" fill="#E1E1E6"/>
</g>
<defs>
<clipPath id="clip0">
<rect width="64" height="64" fill="white"/>
</clipPath>
</defs>
</svg>
