<svg width="64" height="64" viewBox="0 0 64 64" fill="none" xmlns="http://www.w3.org/2000/svg">
<path d="M64 25.1181V13.4192C64 12.2789 63.0756 11.3547 61.9355 11.3547H2.0645L0.958374 13.4192V25.1181L3.09637 27.8708H60.9034L64 25.1181Z" fill="#FFE07D"/>
<path d="M0 13.4192V25.118L2.0645 26.9534V11.3547C0.924375 11.3547 0 12.2789 0 13.4192Z" fill="#FFD064"/>
<path d="M0.977173 38.8813V49.6851C0.977173 50.8254 1.90155 51.7496 3.04167 51.7496H61.9355L64 50.5802V38.8813L60.9038 36.1286H3.0968L0.977173 38.8813Z" fill="#E5646E"/>
<path d="M2.0645 44.3869V37.0464L0 38.8816V50.5804C0 51.7207 0.924375 52.645 2.0645 52.645H61.9355C63.0756 52.645 64 51.7207 64 50.5804H8.25813C4.8375 50.5804 2.0645 47.8076 2.0645 44.3869Z" fill="#DB4655"/>
<path d="M1.08337 37.125L2.0645 38.8816H64V25.1182H2.0645L1.08337 27.2916V37.125Z" fill="#5055A0"/>
<path d="M0 25.1182H2.0645V38.8816H0V25.1182Z" fill="#3F3F8F"/>
<path d="M40.4337 33.6414C40.1857 33.1253 40.4125 32.5164 40.9287 32.2684C41.4448 32.0305 42.0648 32.2583 42.3017 32.7744C42.5497 33.2905 42.3228 33.8994 41.7967 34.1474C41.6615 34.2089 41.5174 34.2401 41.3733 34.2401C40.981 34.2401 40.609 34.0234 40.4337 33.6414ZM22.2451 34.0023C21.729 33.7543 21.5224 33.1354 21.7704 32.6293C22.0184 32.1131 22.6373 31.8964 23.1434 32.1444C23.6595 32.3924 23.8763 33.0113 23.6283 33.5275C23.4529 33.8894 23.0809 34.1061 22.6888 34.1061C22.5445 34.106 22.3893 34.0748 22.2451 34.0023ZM38.4004 30.8228C37.9872 30.4205 37.9669 29.7704 38.359 29.357C38.7613 28.9448 39.4114 28.9337 39.8248 29.3268C40.237 29.7189 40.2482 30.3692 39.855 30.7814C39.6594 30.9981 39.3803 31.102 39.112 31.102C38.854 31.102 38.5959 31.0093 38.4004 30.8228ZM24.237 30.6685C23.8449 30.2553 23.8761 29.5949 24.2995 29.2129C24.7118 28.8208 25.362 28.851 25.7551 29.2744C26.1361 29.6877 26.116 30.3379 25.6926 30.73C25.497 30.9054 25.2491 30.9981 25.0011 30.9981C24.7229 30.9983 24.4436 30.8853 24.237 30.6685ZM35.479 28.9337C34.9418 28.7169 34.6938 28.1182 34.9105 27.5919C35.1172 27.0557 35.716 26.8077 36.2533 27.0244C36.7795 27.231 37.0375 27.8399 36.8208 28.3662C36.6554 28.7694 36.2734 29.0063 35.8612 29.0063C35.737 29.0063 35.603 28.9862 35.479 28.9337ZM27.3136 28.2947C27.107 27.7674 27.365 27.1687 27.9024 26.963C28.4287 26.7564 29.0274 27.0144 29.233 27.5508C29.4397 28.077 29.1817 28.6758 28.6453 28.8824C28.5213 28.9338 28.3973 28.955 28.2733 28.955C27.861 28.9549 27.4679 28.7069 27.3136 28.2947ZM32.0718 28.2634C31.4942 28.2634 31.0395 27.7887 31.0395 27.221C31.0507 26.6525 31.5153 26.1989 32.0829 26.1989C32.6504 26.1989 33.104 26.6637 33.104 27.2413C33.104 27.8087 32.6403 28.2634 32.0718 28.2634Z" fill="white"/>
<path d="M21.6978 37.8524C22.2679 37.8524 22.73 37.3903 22.73 36.8202C22.73 36.2501 22.2679 35.7879 21.6978 35.7879C21.1277 35.7879 20.6655 36.2501 20.6655 36.8202C20.6655 37.3903 21.1277 37.8524 21.6978 37.8524Z" fill="white"/>
<path d="M42.3014 38.0014C42.8715 38.0014 43.3337 37.5392 43.3337 36.9691C43.3337 36.399 42.8715 35.9369 42.3014 35.9369C41.7313 35.9369 41.2692 36.399 41.2692 36.9691C41.2692 37.5392 41.7313 38.0014 42.3014 38.0014Z" fill="white"/>
</svg>
