<svg width="64" height="64" viewBox="0 0 64 64" fill="none" xmlns="http://www.w3.org/2000/svg">
<path d="M61.9355 11.3549H2.06455L0.977173 12.625V49.3939C0.977173 50.5342 1.90155 51.4584 3.04167 51.4584H62.75L64 50.5808V13.4195C64 12.2792 63.0757 11.3549 61.9355 11.3549Z" fill="#E5646E"/>
<path d="M2.0645 44.3872V11.3549C0.924375 11.3549 0 12.2792 0 13.4194V50.5807C0 51.7209 0.924375 52.6452 2.0645 52.6452H61.9355C63.0756 52.6452 64 51.7208 64 50.5807H8.25813C4.8375 50.5807 2.0645 47.8078 2.0645 44.3872Z" fill="#DB4655"/>
<path d="M44.0906 28.7499H35.3041L32.5888 20.3935C32.4034 19.8229 31.5961 19.8229 31.4108 20.3935L28.6956 28.7499H19.9091C19.3091 28.7499 19.0597 29.5177 19.5451 29.8704L26.6534 35.035L23.9383 43.3915C23.7529 43.9622 24.4059 44.4367 24.8913 44.0839L31.9998 38.9193L39.1082 44.0839C39.5936 44.4367 40.2467 43.962 40.0613 43.3915L37.3462 35.035L44.4545 29.8704C44.9399 29.5178 44.6906 28.7499 44.0906 28.7499Z" fill="#FFE07D"/>
</svg>
