<svg width="28" height="27" viewBox="0 0 28 27" fill="none" xmlns="http://www.w3.org/2000/svg">
<path d="M19.1603 2.1766C18.8493 2.22566 18.5447 2.00401 18.4956 1.69302C18.4465 1.38202 18.6682 1.07736 18.9792 1.0283C19.2902 0.979239 19.5948 1.20088 19.6439 1.51188C19.7207 1.84303 19.4952 2.12377 19.1603 2.1766Z" fill="#D7D7D7"/>
<path d="M19.5002 4.32966C19.1892 4.37872 18.8845 4.15708 18.8354 3.84608C18.7864 3.53508 19.008 3.23042 19.319 3.18136C19.63 3.1323 19.9347 3.35394 19.9837 3.66494C20.0605 3.99609 19.8351 4.27683 19.5002 4.32966Z" fill="#D7D7D7"/>
<path d="M18.2538 3.42295C17.9428 3.47201 17.6382 3.25037 17.5891 2.93937C17.54 2.62837 17.7617 2.32371 18.0727 2.27465C18.3837 2.22559 18.6883 2.44723 18.7374 2.75823C18.7902 3.09315 18.5887 3.37012 18.2538 3.42295Z" fill="#D7D7D7"/>
<path d="M20.4067 3.08332C20.0957 3.13238 19.791 2.91074 19.7419 2.59974C19.6929 2.28874 19.9145 1.98408 20.2255 1.93502C20.5365 1.88596 20.8412 2.1076 20.8902 2.4186C20.967 2.74975 20.7416 3.03049 20.4067 3.08332Z" fill="#D7D7D7"/>
<path d="M5.8842 23.3951C5.5732 23.4441 5.26853 23.2225 5.21948 22.9115C5.17042 22.6005 5.39206 22.2958 5.70306 22.2468C6.01405 22.1977 6.31872 22.4193 6.36778 22.7303C6.42061 23.0653 6.19519 23.346 5.8842 23.3951Z" fill="#D7D7D7"/>
<path d="M6.22379 25.5481C5.9128 25.5972 5.60813 25.3755 5.55907 25.0646C5.51002 24.7536 5.73166 24.4489 6.04266 24.3998C6.35365 24.3508 6.65832 24.5724 6.70738 24.8834C6.76021 25.2183 6.53479 25.4991 6.22379 25.5481Z" fill="#D7D7D7"/>
<path d="M4.97746 24.6414C4.66646 24.6905 4.3618 24.4688 4.31274 24.1578C4.26368 23.8468 4.48532 23.5422 4.79632 23.4931C5.10732 23.4441 5.41198 23.6657 5.46104 23.9767C5.51387 24.3116 5.28846 24.5924 4.97746 24.6414Z" fill="#D7D7D7"/>
<path d="M7.13053 24.3018C6.81953 24.3508 6.51487 24.1292 6.46581 23.8182C6.41675 23.5072 6.6384 23.2025 6.94939 23.1535C7.26039 23.1044 7.56506 23.3261 7.61411 23.6371C7.66695 23.972 7.44153 24.2527 7.13053 24.3018Z" fill="#D7D7D7"/>
<path d="M6.15625 2.67245L7.08235 1.39946L8.35534 2.32556L7.42924 3.59855L6.15625 2.67245Z" fill="white"/>
<path d="M24.6875 21.9329L25.6136 20.6599L26.8866 21.586L25.9605 22.859L24.6875 21.9329Z" fill="white"/>
<path d="M15.1922 17.1212C20.3846 16.3021 24.3169 13.8816 23.9751 11.7148C23.6332 9.54797 19.1469 8.45542 13.9544 9.2745C8.76202 10.0936 4.82982 12.5141 5.17162 14.6809C5.51343 16.8477 9.9998 17.9403 15.1922 17.1212Z" fill="#E1E442"/>
<path d="M24.8813 5.95716L24.2831 15.6872L24.1796 17.5179C24.323 18.4269 20.5405 19.7837 15.732 20.5422C10.9235 21.3007 6.90708 21.1742 6.76368 20.2651L6.10166 18.5552L2.53729 9.48181L10.4602 12.7679L13.4225 5.90134L18.3547 11.5226L24.8813 5.95716Z" fill="#DBFF00"/>
<path d="M13.5298 14.0468L14.4842 12.7348L15.7962 13.6893L14.8417 15.0013L13.5298 14.0468Z" fill="#2EC3FC"/>
<path d="M24.283 15.6872L24.1795 17.5179C24.3229 18.4269 20.5404 19.7837 15.7319 20.5422C10.9234 21.3007 6.90699 21.1742 6.76358 20.2651L6.10156 18.5552C7.87428 18.913 11.3871 18.8002 15.3583 18.1738C19.3295 17.5474 22.7065 16.5733 24.283 15.6872Z" fill="#E1E442"/>
<path d="M25.1905 7.91883C26.2211 7.75627 26.9247 6.78905 26.7622 5.75849C26.5996 4.72793 25.6324 4.02429 24.6018 4.18685C23.5713 4.34942 22.8676 5.31663 23.0302 6.34719C23.1928 7.37775 24.16 8.0814 25.1905 7.91883Z" fill="#E1E442"/>
<path d="M13.7203 7.79127C14.7509 7.62871 15.4545 6.66149 15.2919 5.63093C15.1294 4.60037 14.1622 3.89672 13.1316 4.05929C12.1011 4.22185 11.3974 5.18907 11.56 6.21963C11.7225 7.25019 12.6898 7.95384 13.7203 7.79127Z" fill="#E1E442"/>
<path d="M2.84653 11.4435C3.87709 11.2809 4.58074 10.3137 4.41817 9.28315C4.25561 8.25259 3.28839 7.54894 2.25783 7.71151C1.22728 7.87407 0.523631 8.84129 0.686196 9.87185C0.84876 10.9024 1.81598 11.6061 2.84653 11.4435Z" fill="#E1E442"/>
<path d="M14.4978 12.7194L14.6789 13.8677L15.8272 13.6866L14.4978 12.7194Z" fill="#1BA4FC"/>
<path d="M13.5308 14.0488L14.679 13.8677L14.8564 14.9921L13.5308 14.0488Z" fill="#1BA4FC"/>
</svg>
