<svg width="20" height="20" viewBox="0 0 20 20" fill="none" xmlns="http://www.w3.org/2000/svg">
<path d="M16.4257 2.54657C14.5312 2.20707 12.7864 1.17239 11.9149 0.585861C11.3456 0.202618 10.6835 0 10 0C9.31658 0 8.65435 0.202618 8.08513 0.585782C7.21364 1.17235 5.4688 2.20704 3.5743 2.54657C2.45219 2.74766 1.6377 3.71856 1.6377 4.85509V9.57029C1.6377 11.128 2.07352 12.6465 2.93297 14.0835C3.60539 15.2078 4.53704 16.2823 5.70204 17.2771C7.66091 18.95 9.6006 19.8223 9.6822 19.8586L9.99994 20L10.3177 19.8586C10.3993 19.8223 12.339 18.95 14.2978 17.2771C15.4628 16.2823 16.3945 15.2078 17.0669 14.0835C17.9264 12.6465 18.3622 11.128 18.3622 9.57029V4.85509C18.3623 3.71856 17.5478 2.74766 16.4257 2.54657ZM13.3123 16.0634C11.9672 17.2181 10.6016 17.9707 10.0001 18.2761C9.39814 17.9705 8.03275 17.218 6.68786 16.0634C4.37403 14.0771 3.20086 11.8925 3.20086 9.57029V4.85509C3.20086 4.47638 3.47391 4.15255 3.85012 4.08509C6.02649 3.69509 7.98454 2.53766 8.95802 1.88246C9.26837 1.67348 9.62873 1.56305 10.0001 1.56305C10.3714 1.56305 10.7318 1.67348 11.0422 1.8825C12.0156 2.53774 13.9737 3.69509 16.15 4.08509C16.5262 4.15255 16.7992 4.47634 16.7992 4.85509V9.57029H16.7993C16.7993 11.8925 15.6261 14.0771 13.3123 16.0634Z" fill="#6FB1FF"/>
<path d="M13.8455 7.72896C14.0859 7.48858 14.0859 7.09886 13.8455 6.85848C13.6052 6.61818 13.2157 6.61809 12.9752 6.85827L8.99781 10.832L7.72893 9.56617C7.4884 9.32623 7.09899 9.32647 6.85876 9.5667C6.61832 9.80714 6.61832 10.197 6.85876 10.4374L8.77162 12.3503C8.8966 12.4752 9.09923 12.4752 9.22422 12.3503L13.8455 7.72896Z" fill="#6FB1FF" stroke="#6FB1FF" stroke-width="0.4"/>
</svg>
