<svg width="375" height="138" viewBox="0 0 375 138" fill="none" xmlns="http://www.w3.org/2000/svg">
<path opacity="0.01" d="M0 6.40129C7.83333 5.3455 30.7 7.24593 59.5 23.294C95.5 43.354 141.5 33.148 188.5 8.86481C235.5 -15.4184 274.956 23.4919 311 32.0922C343.5 39.8469 378 35.7411 377 35.6238" stroke="white"/>
<path opacity="0.08" d="M0 60.0164C7.83333 58.9606 30.7 60.861 59.5 76.9091C95.5 96.9692 141.5 86.7632 188.5 62.4799C235.5 38.1967 274.956 77.107 311 85.7074C343.5 93.462 378 89.3562 377 89.2389" stroke="white"/>
<path opacity="0.15" d="M0 113.632C7.83333 112.576 30.7 114.476 59.5 130.524C95.5 150.584 141.5 140.378 188.5 116.095C235.5 91.8119 274.956 130.722 311 139.323C343.5 147.077 378 142.971 377 142.854" stroke="white"/>
<path opacity="0.02" d="M0 14.0606C7.83333 13.0048 30.7 14.9052 59.5 30.9533C95.5 51.0133 141.5 40.8073 188.5 16.5241C235.5 -7.75912 274.956 31.1512 311 39.7516C343.5 47.5062 378 43.4004 377 43.2831" stroke="white"/>
<path opacity="0.09" d="M0 67.6758C7.83333 66.62 30.7 68.5204 59.5 84.5685C95.5 104.629 141.5 94.4225 188.5 70.1393C235.5 45.8561 274.956 84.7663 311 93.3667C343.5 101.121 378 97.0156 377 96.8982" stroke="white"/>
<path opacity="0.16" d="M0 121.291C7.83333 120.235 30.7 122.136 59.5 138.184C95.5 158.244 141.5 148.038 188.5 123.754C235.5 99.4712 274.956 138.381 311 146.982C343.5 154.737 378 150.631 377 150.513" stroke="white"/>
<path opacity="0.03" d="M0 21.7199C7.83333 20.6641 30.7 22.5645 59.5 38.6126C95.5 58.6726 141.5 48.4667 188.5 24.1834C235.5 -0.0998204 274.956 38.8105 311 47.4109C343.5 55.1655 378 51.0597 377 50.9424" stroke="white"/>
<path opacity="0.1" d="M0 75.3351C7.83333 74.2793 30.7 76.1797 59.5 92.2278C95.5 112.288 141.5 102.082 188.5 77.7986C235.5 53.5154 274.956 92.4256 311 101.026C343.5 108.781 378 104.675 377 104.558" stroke="white"/>
<path opacity="0.17" d="M0 128.95C7.83333 127.894 30.7 129.795 59.5 145.843C95.5 165.903 141.5 155.697 188.5 131.414C235.5 107.131 274.956 146.041 311 154.641C343.5 162.396 378 158.29 377 158.173" stroke="white"/>
<path opacity="0.04" d="M0 29.3792C7.83333 28.3234 30.7 30.2238 59.5 46.2719C95.5 66.3319 141.5 56.126 188.5 31.8427C235.5 7.55948 274.956 46.4698 311 55.0702C343.5 62.8248 378 58.719 377 58.6017" stroke="white"/>
<path opacity="0.11" d="M0 82.9944C7.83333 81.9386 30.7 83.839 59.5 99.8871C95.5 119.947 141.5 109.741 188.5 85.4579C235.5 61.1747 274.956 100.085 311 108.685C343.5 116.44 378 112.334 377 112.217" stroke="white"/>
<path opacity="0.18" d="M0 136.61C7.83333 135.554 30.7 137.454 59.5 153.502C95.5 173.562 141.5 163.356 188.5 139.073C235.5 114.79 274.956 153.7 311 162.301C343.5 170.055 378 165.949 377 165.832" stroke="white"/>
<path opacity="0.05" d="M0 37.0385C7.83333 35.9827 30.7 37.8831 59.5 53.9312C95.5 73.9912 141.5 63.7853 188.5 39.502C235.5 15.2188 274.956 54.1291 311 62.7295C343.5 70.4841 378 66.3783 377 66.261" stroke="white"/>
<path opacity="0.12" d="M0 90.6537C7.83333 89.5979 30.7 91.4983 59.5 107.546C95.5 127.606 141.5 117.4 188.5 93.1172C235.5 68.834 274.956 107.744 311 116.345C343.5 124.099 378 119.993 377 119.876" stroke="white"/>
<path opacity="0.19" d="M0 144.269C7.83333 143.213 30.7 145.113 59.5 161.162C95.5 181.222 141.5 171.016 188.5 146.732C235.5 122.449 274.956 161.359 311 169.96C343.5 177.714 378 173.609 377 173.491" stroke="white"/>
<path opacity="0.06" d="M0 44.6978C7.83333 43.642 30.7 45.5424 59.5 61.5905C95.5 81.6505 141.5 71.4446 188.5 47.1613C235.5 22.8781 274.956 61.7884 311 70.3888C343.5 78.1434 378 74.0376 377 73.9203" stroke="white"/>
<path opacity="0.13" d="M0 98.313C7.83333 97.2572 30.7 99.1576 59.5 115.206C95.5 135.266 141.5 125.06 188.5 100.776C235.5 76.4933 274.956 115.404 311 124.004C343.5 131.759 378 127.653 377 127.535" stroke="white"/>
<path opacity="0.07" d="M0 52.3571C7.83333 51.3013 30.7 53.2017 59.5 69.2498C95.5 89.3099 141.5 79.1039 188.5 54.8206C235.5 30.5374 274.956 69.4477 311 78.0481C343.5 85.8027 378 81.6969 377 81.5796" stroke="white"/>
<path opacity="0.14" d="M0 105.972C7.83333 104.916 30.7 106.817 59.5 122.865C95.5 142.925 141.5 132.719 188.5 108.436C235.5 84.1526 274.956 123.063 311 131.663C343.5 139.418 378 135.312 377 135.195" stroke="white"/>
</svg>
